<?xml version="1.0"?>
<!-- Generated by SVGo (float) -->
<svg width="768.00" height="128.00"
     xmlns="http://www.w3.org/2000/svg"
     xmlns:xlink="http://www.w3.org/1999/xlink">
<title>Image Fade</title>
<image x="0.00" y="0.00" width="128.00" height="128.00" xlink:href="gophercolor128x128.png" style="opacity:1.00" />
<image x="100.00" y="0.00" width="128.00" height="128.00" xlink:href="gophercolor128x128.png" style="opacity:0.90" />
<image x="200.00" y="0.00" width="128.00" height="128.00" xlink:href="gophercolor128x128.png" style="opacity:0.80" />
<image x="300.00" y="0.00" width="128.00" height="128.00" xlink:href="gophercolor128x128.png" style="opacity:0.70" />
<image x="400.00" y="0.00" width="128.00" height="128.00" xlink:href="gophercolor128x128.png" style="opacity:0.60" />
<image x="500.00" y="0.00" width="128.00" height="128.00" xlink:href="gophercolor128x128.png" style="opacity:0.50" />
<image x="600.00" y="0.00" width="128.00" height="128.00" xlink:href="gophercolor128x128.png" style="opacity:0.40" />
<g style="stroke:gray; opacity:0.2">
<line x1="0.00" y1="0.00" x2="0.00" y2="128.00" />
<line x1="16.00" y1="0.00" x2="16.00" y2="128.00" />
<line x1="32.00" y1="0.00" x2="32.00" y2="128.00" />
<line x1="48.00" y1="0.00" x2="48.00" y2="128.00" />
<line x1="64.00" y1="0.00" x2="64.00" y2="128.00" />
<line x1="80.00" y1="0.00" x2="80.00" y2="128.00" />
<line x1="96.00" y1="0.00" x2="96.00" y2="128.00" />
<line x1="112.00" y1="0.00" x2="112.00" y2="128.00" />
<line x1="128.00" y1="0.00" x2="128.00" y2="128.00" />
<line x1="144.00" y1="0.00" x2="144.00" y2="128.00" />
<line x1="160.00" y1="0.00" x2="160.00" y2="128.00" />
<line x1="176.00" y1="0.00" x2="176.00" y2="128.00" />
<line x1="192.00" y1="0.00" x2="192.00" y2="128.00" />
<line x1="208.00" y1="0.00" x2="208.00" y2="128.00" />
<line x1="224.00" y1="0.00" x2="224.00" y2="128.00" />
<line x1="240.00" y1="0.00" x2="240.00" y2="128.00" />
<line x1="256.00" y1="0.00" x2="256.00" y2="128.00" />
<line x1="272.00" y1="0.00" x2="272.00" y2="128.00" />
<line x1="288.00" y1="0.00" x2="288.00" y2="128.00" />
<line x1="304.00" y1="0.00" x2="304.00" y2="128.00" />
<line x1="320.00" y1="0.00" x2="320.00" y2="128.00" />
<line x1="336.00" y1="0.00" x2="336.00" y2="128.00" />
<line x1="352.00" y1="0.00" x2="352.00" y2="128.00" />
<line x1="368.00" y1="0.00" x2="368.00" y2="128.00" />
<line x1="384.00" y1="0.00" x2="384.00" y2="128.00" />
<line x1="400.00" y1="0.00" x2="400.00" y2="128.00" />
<line x1="416.00" y1="0.00" x2="416.00" y2="128.00" />
<line x1="432.00" y1="0.00" x2="432.00" y2="128.00" />
<line x1="448.00" y1="0.00" x2="448.00" y2="128.00" />
<line x1="464.00" y1="0.00" x2="464.00" y2="128.00" />
<line x1="480.00" y1="0.00" x2="480.00" y2="128.00" />
<line x1="496.00" y1="0.00" x2="496.00" y2="128.00" />
<line x1="512.00" y1="0.00" x2="512.00" y2="128.00" />
<line x1="528.00" y1="0.00" x2="528.00" y2="128.00" />
<line x1="544.00" y1="0.00" x2="544.00" y2="128.00" />
<line x1="560.00" y1="0.00" x2="560.00" y2="128.00" />
<line x1="576.00" y1="0.00" x2="576.00" y2="128.00" />
<line x1="592.00" y1="0.00" x2="592.00" y2="128.00" />
<line x1="608.00" y1="0.00" x2="608.00" y2="128.00" />
<line x1="624.00" y1="0.00" x2="624.00" y2="128.00" />
<line x1="640.00" y1="0.00" x2="640.00" y2="128.00" />
<line x1="656.00" y1="0.00" x2="656.00" y2="128.00" />
<line x1="672.00" y1="0.00" x2="672.00" y2="128.00" />
<line x1="688.00" y1="0.00" x2="688.00" y2="128.00" />
<line x1="704.00" y1="0.00" x2="704.00" y2="128.00" />
<line x1="720.00" y1="0.00" x2="720.00" y2="128.00" />
<line x1="736.00" y1="0.00" x2="736.00" y2="128.00" />
<line x1="752.00" y1="0.00" x2="752.00" y2="128.00" />
<line x1="768.00" y1="0.00" x2="768.00" y2="128.00" />
<line x1="0.00" y1="0.00" x2="768.00" y2="0.00" />
<line x1="0.00" y1="16.00" x2="768.00" y2="16.00" />
<line x1="0.00" y1="32.00" x2="768.00" y2="32.00" />
<line x1="0.00" y1="48.00" x2="768.00" y2="48.00" />
<line x1="0.00" y1="64.00" x2="768.00" y2="64.00" />
<line x1="0.00" y1="80.00" x2="768.00" y2="80.00" />
<line x1="0.00" y1="96.00" x2="768.00" y2="96.00" />
<line x1="0.00" y1="112.00" x2="768.00" y2="112.00" />
<line x1="0.00" y1="128.00" x2="768.00" y2="128.00" />
</g>
</svg>
