<?xml version="1.0"?>
<!-- Generated by SVGo (float) -->
<svg width="200.00" height="200.00"
     xmlns="http://www.w3.org/2000/svg"
     xmlns:xlink="http://www.w3.org/1999/xlink">
<title>Random Lines</title>
<rect x="0.00" y="0.00" width="200.00" height="200.00" style="fill:black" />
<g style="stroke-width:10">
<line x1="0.00" y1="0.00" x2="0.00" y2="200.00" style="stroke:rgb(12,12,12); opacity:0.39" />
<line x1="1.00" y1="0.00" x2="19.00" y2="200.00" style="stroke:rgb(228,228,228); opacity:0.39" />
<line x1="2.00" y1="0.00" x2="174.00" y2="200.00" style="stroke:rgb(34,34,34); opacity:0.39" />
<line x1="3.00" y1="0.00" x2="178.00" y2="200.00" style="stroke:rgb(1,1,1); opacity:0.39" />
<line x1="4.00" y1="0.00" x2="74.00" y2="200.00" style="stroke:rgb(216,216,216); opacity:0.39" />
<line x1="5.00" y1="0.00" x2="177.00" y2="200.00" style="stroke:rgb(144,144,144); opacity:0.39" />
<line x1="6.00" y1="0.00" x2="146.00" y2="200.00" style="stroke:rgb(146,146,146); opacity:0.39" />
<line x1="7.00" y1="0.00" x2="173.00" y2="200.00" style="stroke:rgb(1,1,1); opacity:0.39" />
<line x1="8.00" y1="0.00" x2="5.00" y2="200.00" style="stroke:rgb(216,216,216); opacity:0.39" />
<line x1="9.00" y1="0.00" x2="32.00" y2="200.00" style="stroke:rgb(194,194,194); opacity:0.39" />
<line x1="10.00" y1="0.00" x2="31.00" y2="200.00" style="stroke:rgb(243,243,243); opacity:0.39" />
<line x1="11.00" y1="0.00" x2="159.00" y2="200.00" style="stroke:rgb(105,105,105); opacity:0.39" />
<line x1="12.00" y1="0.00" x2="95.00" y2="200.00" style="stroke:rgb(29,29,29); opacity:0.39" />
<line x1="13.00" y1="0.00" x2="170.00" y2="200.00" style="stroke:rgb(119,119,119); opacity:0.39" />
<line x1="14.00" y1="0.00" x2="91.00" y2="200.00" style="stroke:rgb(24,24,24); opacity:0.39" />
<line x1="15.00" y1="0.00" x2="105.00" y2="200.00" style="stroke:rgb(205,205,205); opacity:0.39" />
<line x1="16.00" y1="0.00" x2="102.00" y2="200.00" style="stroke:rgb(252,252,252); opacity:0.39" />
<line x1="17.00" y1="0.00" x2="178.00" y2="200.00" style="stroke:rgb(106,106,106); opacity:0.39" />
<line x1="18.00" y1="0.00" x2="58.00" y2="200.00" style="stroke:rgb(8,8,8); opacity:0.39" />
<line x1="19.00" y1="0.00" x2="187.00" y2="200.00" style="stroke:rgb(88,88,88); opacity:0.39" />
<line x1="20.00" y1="0.00" x2="49.00" y2="200.00" style="stroke:rgb(207,207,207); opacity:0.39" />
<line x1="21.00" y1="0.00" x2="8.00" y2="200.00" style="stroke:rgb(91,91,91); opacity:0.39" />
<line x1="22.00" y1="0.00" x2="197.00" y2="200.00" style="stroke:rgb(171,171,171); opacity:0.39" />
<line x1="23.00" y1="0.00" x2="179.00" y2="200.00" style="stroke:rgb(213,213,213); opacity:0.39" />
<line x1="24.00" y1="0.00" x2="171.00" y2="200.00" style="stroke:rgb(124,124,124); opacity:0.39" />
<line x1="25.00" y1="0.00" x2="32.00" y2="200.00" style="stroke:rgb(187,187,187); opacity:0.39" />
<line x1="26.00" y1="0.00" x2="20.00" y2="200.00" style="stroke:rgb(83,83,83); opacity:0.39" />
<line x1="27.00" y1="0.00" x2="169.00" y2="200.00" style="stroke:rgb(181,181,181); opacity:0.39" />
<line x1="28.00" y1="0.00" x2="2.00" y2="200.00" style="stroke:rgb(155,155,155); opacity:0.39" />
<line x1="29.00" y1="0.00" x2="19.00" y2="200.00" style="stroke:rgb(17,17,17); opacity:0.39" />
<line x1="30.00" y1="0.00" x2="63.00" y2="200.00" style="stroke:rgb(15,15,15); opacity:0.39" />
<line x1="31.00" y1="0.00" x2="121.00" y2="200.00" style="stroke:rgb(61,61,61); opacity:0.39" />
<line x1="32.00" y1="0.00" x2="193.00" y2="200.00" style="stroke:rgb(21,21,21); opacity:0.39" />
<line x1="33.00" y1="0.00" x2="62.00" y2="200.00" style="stroke:rgb(130,130,130); opacity:0.39" />
<line x1="34.00" y1="0.00" x2="94.00" y2="200.00" style="stroke:rgb(61,61,61); opacity:0.39" />
<line x1="35.00" y1="0.00" x2="154.00" y2="200.00" style="stroke:rgb(114,114,114); opacity:0.39" />
<line x1="36.00" y1="0.00" x2="18.00" y2="200.00" style="stroke:rgb(4,4,4); opacity:0.39" />
<line x1="37.00" y1="0.00" x2="128.00" y2="200.00" style="stroke:rgb(72,72,72); opacity:0.39" />
<line x1="38.00" y1="0.00" x2="33.00" y2="200.00" style="stroke:rgb(245,245,245); opacity:0.39" />
<line x1="39.00" y1="0.00" x2="15.00" y2="200.00" style="stroke:rgb(209,209,209); opacity:0.39" />
<line x1="40.00" y1="0.00" x2="97.00" y2="200.00" style="stroke:rgb(133,133,133); opacity:0.39" />
<line x1="41.00" y1="0.00" x2="132.00" y2="200.00" style="stroke:rgb(173,173,173); opacity:0.39" />
<line x1="42.00" y1="0.00" x2="120.00" y2="200.00" style="stroke:rgb(159,159,159); opacity:0.39" />
<line x1="43.00" y1="0.00" x2="188.00" y2="200.00" style="stroke:rgb(160,160,160); opacity:0.39" />
<line x1="44.00" y1="0.00" x2="142.00" y2="200.00" style="stroke:rgb(186,186,186); opacity:0.39" />
<line x1="45.00" y1="0.00" x2="158.00" y2="200.00" style="stroke:rgb(96,96,96); opacity:0.39" />
<line x1="46.00" y1="0.00" x2="41.00" y2="200.00" style="stroke:rgb(10,10,10); opacity:0.39" />
<line x1="47.00" y1="0.00" x2="73.00" y2="200.00" style="stroke:rgb(83,83,83); opacity:0.39" />
<line x1="48.00" y1="0.00" x2="124.00" y2="200.00" style="stroke:rgb(213,213,213); opacity:0.39" />
<line x1="49.00" y1="0.00" x2="143.00" y2="200.00" style="stroke:rgb(79,79,79); opacity:0.39" />
<line x1="50.00" y1="0.00" x2="35.00" y2="200.00" style="stroke:rgb(225,225,225); opacity:0.39" />
<line x1="51.00" y1="0.00" x2="37.00" y2="200.00" style="stroke:rgb(160,160,160); opacity:0.39" />
<line x1="52.00" y1="0.00" x2="31.00" y2="200.00" style="stroke:rgb(142,142,142); opacity:0.39" />
<line x1="53.00" y1="0.00" x2="67.00" y2="200.00" style="stroke:rgb(151,151,151); opacity:0.39" />
<line x1="54.00" y1="0.00" x2="4.00" y2="200.00" style="stroke:rgb(204,204,204); opacity:0.39" />
<line x1="55.00" y1="0.00" x2="158.00" y2="200.00" style="stroke:rgb(21,21,21); opacity:0.39" />
<line x1="56.00" y1="0.00" x2="133.00" y2="200.00" style="stroke:rgb(83,83,83); opacity:0.39" />
<line x1="57.00" y1="0.00" x2="161.00" y2="200.00" style="stroke:rgb(247,247,247); opacity:0.39" />
<line x1="58.00" y1="0.00" x2="107.00" y2="200.00" style="stroke:rgb(63,63,63); opacity:0.39" />
<line x1="59.00" y1="0.00" x2="12.00" y2="200.00" style="stroke:rgb(231,231,231); opacity:0.39" />
<line x1="60.00" y1="0.00" x2="6.00" y2="200.00" style="stroke:rgb(203,203,203); opacity:0.39" />
<line x1="61.00" y1="0.00" x2="5.00" y2="200.00" style="stroke:rgb(4,4,4); opacity:0.39" />
<line x1="62.00" y1="0.00" x2="124.00" y2="200.00" style="stroke:rgb(32,32,32); opacity:0.39" />
<line x1="63.00" y1="0.00" x2="16.00" y2="200.00" style="stroke:rgb(149,149,149); opacity:0.39" />
<line x1="64.00" y1="0.00" x2="184.00" y2="200.00" style="stroke:rgb(13,13,13); opacity:0.39" />
<line x1="65.00" y1="0.00" x2="10.00" y2="200.00" style="stroke:rgb(78,78,78); opacity:0.39" />
<line x1="66.00" y1="0.00" x2="1.00" y2="200.00" style="stroke:rgb(12,12,12); opacity:0.39" />
<line x1="67.00" y1="0.00" x2="3.00" y2="200.00" style="stroke:rgb(1,1,1); opacity:0.39" />
<line x1="68.00" y1="0.00" x2="76.00" y2="200.00" style="stroke:rgb(138,138,138); opacity:0.39" />
<line x1="69.00" y1="0.00" x2="29.00" y2="200.00" style="stroke:rgb(247,247,247); opacity:0.39" />
<line x1="70.00" y1="0.00" x2="138.00" y2="200.00" style="stroke:rgb(28,28,28); opacity:0.39" />
<line x1="71.00" y1="0.00" x2="167.00" y2="200.00" style="stroke:rgb(117,117,117); opacity:0.39" />
<line x1="72.00" y1="0.00" x2="142.00" y2="200.00" style="stroke:rgb(119,119,119); opacity:0.39" />
<line x1="73.00" y1="0.00" x2="182.00" y2="200.00" style="stroke:rgb(158,158,158); opacity:0.39" />
<line x1="74.00" y1="0.00" x2="160.00" y2="200.00" style="stroke:rgb(105,105,105); opacity:0.39" />
<line x1="75.00" y1="0.00" x2="78.00" y2="200.00" style="stroke:rgb(108,108,108); opacity:0.39" />
<line x1="76.00" y1="0.00" x2="120.00" y2="200.00" style="stroke:rgb(246,246,246); opacity:0.39" />
<line x1="77.00" y1="0.00" x2="124.00" y2="200.00" style="stroke:rgb(136,136,136); opacity:0.39" />
<line x1="78.00" y1="0.00" x2="89.00" y2="200.00" style="stroke:rgb(118,118,118); opacity:0.39" />
<line x1="79.00" y1="0.00" x2="27.00" y2="200.00" style="stroke:rgb(196,196,196); opacity:0.39" />
<line x1="80.00" y1="0.00" x2="98.00" y2="200.00" style="stroke:rgb(154,154,154); opacity:0.39" />
<line x1="81.00" y1="0.00" x2="100.00" y2="200.00" style="stroke:rgb(111,111,111); opacity:0.39" />
<line x1="82.00" y1="0.00" x2="42.00" y2="200.00" style="stroke:rgb(101,101,101); opacity:0.39" />
<line x1="83.00" y1="0.00" x2="153.00" y2="200.00" style="stroke:rgb(48,48,48); opacity:0.39" />
<line x1="84.00" y1="0.00" x2="25.00" y2="200.00" style="stroke:rgb(247,247,247); opacity:0.39" />
<line x1="85.00" y1="0.00" x2="24.00" y2="200.00" style="stroke:rgb(230,230,230); opacity:0.39" />
<line x1="86.00" y1="0.00" x2="16.00" y2="200.00" style="stroke:rgb(202,202,202); opacity:0.39" />
<line x1="87.00" y1="0.00" x2="197.00" y2="200.00" style="stroke:rgb(179,179,179); opacity:0.39" />
<line x1="88.00" y1="0.00" x2="3.00" y2="200.00" style="stroke:rgb(230,230,230); opacity:0.39" />
<line x1="89.00" y1="0.00" x2="14.00" y2="200.00" style="stroke:rgb(56,56,56); opacity:0.39" />
<line x1="90.00" y1="0.00" x2="29.00" y2="200.00" style="stroke:rgb(6,6,6); opacity:0.39" />
<line x1="91.00" y1="0.00" x2="183.00" y2="200.00" style="stroke:rgb(234,234,234); opacity:0.39" />
<line x1="92.00" y1="0.00" x2="102.00" y2="200.00" style="stroke:rgb(203,203,203); opacity:0.39" />
<line x1="93.00" y1="0.00" x2="104.00" y2="200.00" style="stroke:rgb(30,30,30); opacity:0.39" />
<line x1="94.00" y1="0.00" x2="101.00" y2="200.00" style="stroke:rgb(237,237,237); opacity:0.39" />
<line x1="95.00" y1="0.00" x2="106.00" y2="200.00" style="stroke:rgb(174,174,174); opacity:0.39" />
<line x1="96.00" y1="0.00" x2="127.00" y2="200.00" style="stroke:rgb(29,29,29); opacity:0.39" />
<line x1="97.00" y1="0.00" x2="22.00" y2="200.00" style="stroke:rgb(130,130,130); opacity:0.39" />
<line x1="98.00" y1="0.00" x2="186.00" y2="200.00" style="stroke:rgb(219,219,219); opacity:0.39" />
<line x1="99.00" y1="0.00" x2="59.00" y2="200.00" style="stroke:rgb(31,31,31); opacity:0.39" />
<line x1="100.00" y1="0.00" x2="14.00" y2="200.00" style="stroke:rgb(86,86,86); opacity:0.39" />
<line x1="101.00" y1="0.00" x2="191.00" y2="200.00" style="stroke:rgb(120,120,120); opacity:0.39" />
<line x1="102.00" y1="0.00" x2="178.00" y2="200.00" style="stroke:rgb(217,217,217); opacity:0.39" />
<line x1="103.00" y1="0.00" x2="47.00" y2="200.00" style="stroke:rgb(224,224,224); opacity:0.39" />
<line x1="104.00" y1="0.00" x2="75.00" y2="200.00" style="stroke:rgb(30,30,30); opacity:0.39" />
<line x1="105.00" y1="0.00" x2="75.00" y2="200.00" style="stroke:rgb(204,204,204); opacity:0.39" />
<line x1="106.00" y1="0.00" x2="121.00" y2="200.00" style="stroke:rgb(191,191,191); opacity:0.39" />
<line x1="107.00" y1="0.00" x2="57.00" y2="200.00" style="stroke:rgb(122,122,122); opacity:0.39" />
<line x1="108.00" y1="0.00" x2="97.00" y2="200.00" style="stroke:rgb(29,29,29); opacity:0.39" />
<line x1="109.00" y1="0.00" x2="131.00" y2="200.00" style="stroke:rgb(35,35,35); opacity:0.39" />
<line x1="110.00" y1="0.00" x2="101.00" y2="200.00" style="stroke:rgb(150,150,150); opacity:0.39" />
<line x1="111.00" y1="0.00" x2="121.00" y2="200.00" style="stroke:rgb(123,123,123); opacity:0.39" />
<line x1="112.00" y1="0.00" x2="35.00" y2="200.00" style="stroke:rgb(64,64,64); opacity:0.39" />
<line x1="113.00" y1="0.00" x2="176.00" y2="200.00" style="stroke:rgb(85,85,85); opacity:0.39" />
<line x1="114.00" y1="0.00" x2="22.00" y2="200.00" style="stroke:rgb(105,105,105); opacity:0.39" />
<line x1="115.00" y1="0.00" x2="7.00" y2="200.00" style="stroke:rgb(188,188,188); opacity:0.39" />
<line x1="116.00" y1="0.00" x2="142.00" y2="200.00" style="stroke:rgb(144,144,144); opacity:0.39" />
<line x1="117.00" y1="0.00" x2="35.00" y2="200.00" style="stroke:rgb(187,187,187); opacity:0.39" />
<line x1="118.00" y1="0.00" x2="19.00" y2="200.00" style="stroke:rgb(187,187,187); opacity:0.39" />
<line x1="119.00" y1="0.00" x2="85.00" y2="200.00" style="stroke:rgb(161,161,161); opacity:0.39" />
<line x1="120.00" y1="0.00" x2="70.00" y2="200.00" style="stroke:rgb(186,186,186); opacity:0.39" />
<line x1="121.00" y1="0.00" x2="148.00" y2="200.00" style="stroke:rgb(26,26,26); opacity:0.39" />
<line x1="122.00" y1="0.00" x2="69.00" y2="200.00" style="stroke:rgb(131,131,131); opacity:0.39" />
<line x1="123.00" y1="0.00" x2="164.00" y2="200.00" style="stroke:rgb(163,163,163); opacity:0.39" />
<line x1="124.00" y1="0.00" x2="47.00" y2="200.00" style="stroke:rgb(195,195,195); opacity:0.39" />
<line x1="125.00" y1="0.00" x2="192.00" y2="200.00" style="stroke:rgb(58,58,58); opacity:0.39" />
<line x1="126.00" y1="0.00" x2="47.00" y2="200.00" style="stroke:rgb(1,1,1); opacity:0.39" />
<line x1="127.00" y1="0.00" x2="153.00" y2="200.00" style="stroke:rgb(34,34,34); opacity:0.39" />
<line x1="128.00" y1="0.00" x2="146.00" y2="200.00" style="stroke:rgb(49,49,49); opacity:0.39" />
<line x1="129.00" y1="0.00" x2="196.00" y2="200.00" style="stroke:rgb(12,12,12); opacity:0.39" />
<line x1="130.00" y1="0.00" x2="135.00" y2="200.00" style="stroke:rgb(59,59,59); opacity:0.39" />
<line x1="131.00" y1="0.00" x2="141.00" y2="200.00" style="stroke:rgb(233,233,233); opacity:0.39" />
<line x1="132.00" y1="0.00" x2="152.00" y2="200.00" style="stroke:rgb(239,239,239); opacity:0.39" />
<line x1="133.00" y1="0.00" x2="117.00" y2="200.00" style="stroke:rgb(238,238,238); opacity:0.39" />
<line x1="134.00" y1="0.00" x2="51.00" y2="200.00" style="stroke:rgb(236,236,236); opacity:0.39" />
<line x1="135.00" y1="0.00" x2="168.00" y2="200.00" style="stroke:rgb(182,182,182); opacity:0.39" />
<line x1="136.00" y1="0.00" x2="25.00" y2="200.00" style="stroke:rgb(31,31,31); opacity:0.39" />
<line x1="137.00" y1="0.00" x2="105.00" y2="200.00" style="stroke:rgb(99,99,99); opacity:0.39" />
<line x1="138.00" y1="0.00" x2="136.00" y2="200.00" style="stroke:rgb(71,71,71); opacity:0.39" />
<line x1="139.00" y1="0.00" x2="138.00" y2="200.00" style="stroke:rgb(206,206,206); opacity:0.39" />
<line x1="140.00" y1="0.00" x2="145.00" y2="200.00" style="stroke:rgb(88,88,88); opacity:0.39" />
<line x1="141.00" y1="0.00" x2="88.00" y2="200.00" style="stroke:rgb(3,3,3); opacity:0.39" />
<line x1="142.00" y1="0.00" x2="21.00" y2="200.00" style="stroke:rgb(9,9,9); opacity:0.39" />
<line x1="143.00" y1="0.00" x2="26.00" y2="200.00" style="stroke:rgb(73,73,73); opacity:0.39" />
<line x1="144.00" y1="0.00" x2="89.00" y2="200.00" style="stroke:rgb(157,157,157); opacity:0.39" />
<line x1="145.00" y1="0.00" x2="139.00" y2="200.00" style="stroke:rgb(153,153,153); opacity:0.39" />
<line x1="146.00" y1="0.00" x2="182.00" y2="200.00" style="stroke:rgb(149,149,149); opacity:0.39" />
<line x1="147.00" y1="0.00" x2="73.00" y2="200.00" style="stroke:rgb(115,115,115); opacity:0.39" />
<line x1="148.00" y1="0.00" x2="94.00" y2="200.00" style="stroke:rgb(56,56,56); opacity:0.39" />
<line x1="149.00" y1="0.00" x2="185.00" y2="200.00" style="stroke:rgb(158,158,158); opacity:0.39" />
<line x1="150.00" y1="0.00" x2="149.00" y2="200.00" style="stroke:rgb(80,80,80); opacity:0.39" />
<line x1="151.00" y1="0.00" x2="29.00" y2="200.00" style="stroke:rgb(99,99,99); opacity:0.39" />
<line x1="152.00" y1="0.00" x2="156.00" y2="200.00" style="stroke:rgb(71,71,71); opacity:0.39" />
<line x1="153.00" y1="0.00" x2="64.00" y2="200.00" style="stroke:rgb(152,152,152); opacity:0.39" />
<line x1="154.00" y1="0.00" x2="46.00" y2="200.00" style="stroke:rgb(213,213,213); opacity:0.39" />
<line x1="155.00" y1="0.00" x2="133.00" y2="200.00" style="stroke:rgb(63,63,63); opacity:0.39" />
<line x1="156.00" y1="0.00" x2="13.00" y2="200.00" style="stroke:rgb(21,21,21); opacity:0.39" />
<line x1="157.00" y1="0.00" x2="186.00" y2="200.00" style="stroke:rgb(91,91,91); opacity:0.39" />
<line x1="158.00" y1="0.00" x2="14.00" y2="200.00" style="stroke:rgb(28,28,28); opacity:0.39" />
<line x1="159.00" y1="0.00" x2="44.00" y2="200.00" style="stroke:rgb(237,237,237); opacity:0.39" />
<line x1="160.00" y1="0.00" x2="38.00" y2="200.00" style="stroke:rgb(132,132,132); opacity:0.39" />
<line x1="161.00" y1="0.00" x2="0.00" y2="200.00" style="stroke:rgb(58,58,58); opacity:0.39" />
<line x1="162.00" y1="0.00" x2="44.00" y2="200.00" style="stroke:rgb(94,94,94); opacity:0.39" />
<line x1="163.00" y1="0.00" x2="63.00" y2="200.00" style="stroke:rgb(98,98,98); opacity:0.39" />
<line x1="164.00" y1="0.00" x2="23.00" y2="200.00" style="stroke:rgb(52,52,52); opacity:0.39" />
<line x1="165.00" y1="0.00" x2="35.00" y2="200.00" style="stroke:rgb(226,226,226); opacity:0.39" />
<line x1="166.00" y1="0.00" x2="148.00" y2="200.00" style="stroke:rgb(36,36,36); opacity:0.39" />
<line x1="167.00" y1="0.00" x2="192.00" y2="200.00" style="stroke:rgb(194,194,194); opacity:0.39" />
<line x1="168.00" y1="0.00" x2="125.00" y2="200.00" style="stroke:rgb(37,37,37); opacity:0.39" />
<line x1="169.00" y1="0.00" x2="141.00" y2="200.00" style="stroke:rgb(99,99,99); opacity:0.39" />
<line x1="170.00" y1="0.00" x2="161.00" y2="200.00" style="stroke:rgb(110,110,110); opacity:0.39" />
<line x1="171.00" y1="0.00" x2="17.00" y2="200.00" style="stroke:rgb(113,113,113); opacity:0.39" />
<line x1="172.00" y1="0.00" x2="56.00" y2="200.00" style="stroke:rgb(12,12,12); opacity:0.39" />
<line x1="173.00" y1="0.00" x2="10.00" y2="200.00" style="stroke:rgb(207,207,207); opacity:0.39" />
<line x1="174.00" y1="0.00" x2="153.00" y2="200.00" style="stroke:rgb(192,192,192); opacity:0.39" />
<line x1="175.00" y1="0.00" x2="85.00" y2="200.00" style="stroke:rgb(35,35,35); opacity:0.39" />
<line x1="176.00" y1="0.00" x2="43.00" y2="200.00" style="stroke:rgb(115,115,115); opacity:0.39" />
<line x1="177.00" y1="0.00" x2="142.00" y2="200.00" style="stroke:rgb(163,163,163); opacity:0.39" />
<line x1="178.00" y1="0.00" x2="17.00" y2="200.00" style="stroke:rgb(131,131,131); opacity:0.39" />
<line x1="179.00" y1="0.00" x2="117.00" y2="200.00" style="stroke:rgb(13,13,13); opacity:0.39" />
<line x1="180.00" y1="0.00" x2="126.00" y2="200.00" style="stroke:rgb(184,184,184); opacity:0.39" />
<line x1="181.00" y1="0.00" x2="60.00" y2="200.00" style="stroke:rgb(23,23,23); opacity:0.39" />
<line x1="182.00" y1="0.00" x2="160.00" y2="200.00" style="stroke:rgb(195,195,195); opacity:0.39" />
<line x1="183.00" y1="0.00" x2="126.00" y2="200.00" style="stroke:rgb(156,156,156); opacity:0.39" />
<line x1="184.00" y1="0.00" x2="54.00" y2="200.00" style="stroke:rgb(69,69,69); opacity:0.39" />
<line x1="185.00" y1="0.00" x2="23.00" y2="200.00" style="stroke:rgb(154,154,154); opacity:0.39" />
<line x1="186.00" y1="0.00" x2="3.00" y2="200.00" style="stroke:rgb(211,211,211); opacity:0.39" />
<line x1="187.00" y1="0.00" x2="145.00" y2="200.00" style="stroke:rgb(179,179,179); opacity:0.39" />
<line x1="188.00" y1="0.00" x2="174.00" y2="200.00" style="stroke:rgb(9,9,9); opacity:0.39" />
<line x1="189.00" y1="0.00" x2="71.00" y2="200.00" style="stroke:rgb(107,107,107); opacity:0.39" />
<line x1="190.00" y1="0.00" x2="14.00" y2="200.00" style="stroke:rgb(110,110,110); opacity:0.39" />
<line x1="191.00" y1="0.00" x2="101.00" y2="200.00" style="stroke:rgb(18,18,18); opacity:0.39" />
<line x1="192.00" y1="0.00" x2="57.00" y2="200.00" style="stroke:rgb(196,196,196); opacity:0.39" />
<line x1="193.00" y1="0.00" x2="131.00" y2="200.00" style="stroke:rgb(27,27,27); opacity:0.39" />
<line x1="194.00" y1="0.00" x2="121.00" y2="200.00" style="stroke:rgb(189,189,189); opacity:0.39" />
<line x1="195.00" y1="0.00" x2="181.00" y2="200.00" style="stroke:rgb(171,171,171); opacity:0.39" />
<line x1="196.00" y1="0.00" x2="157.00" y2="200.00" style="stroke:rgb(31,31,31); opacity:0.39" />
<line x1="197.00" y1="0.00" x2="99.00" y2="200.00" style="stroke:rgb(189,189,189); opacity:0.39" />
<line x1="198.00" y1="0.00" x2="90.00" y2="200.00" style="stroke:rgb(14,14,14); opacity:0.39" />
<line x1="199.00" y1="0.00" x2="127.00" y2="200.00" style="stroke:rgb(120,120,120); opacity:0.39" />
</g>
<text x="100.00" y="100.00" style="fill:white; font-size:20; font-family:Calibri; text-anchor:middle" >Random Lines</text>
</svg>
