<?xml version="1.0"?>
<!-- Generated by SVGo (float) -->
<svg width="1200.00" height="600.00"
     xmlns="http://www.w3.org/2000/svg"
     xmlns:xlink="http://www.w3.org/1999/xlink">
<title>Bubble Trail</title>
<rect x="0.00" y="0.00" width="1200.00" height="600.00" style="fill:rgb(200,200,200)" />
<g style="fill-opacity:0.50;stroke:none">
<circle cx="1110.00" cy="365.00" r="40.00" style="fill:rgb(0,0,0)" />
<circle cx="738.00" cy="217.00" r="40.00" style="fill:rgb(127,0,0)" />
<circle cx="554.00" cy="275.00" r="40.00" style="fill:rgb(0,0,0)" />
<circle cx="401.00" cy="372.00" r="40.00" style="fill:rgb(127,0,0)" />
<circle cx="392.00" cy="299.00" r="40.00" style="fill:rgb(127,0,0)" />
<circle cx="392.00" cy="255.00" r="40.00" style="fill:rgb(127,127,127)" />
<circle cx="763.00" cy="224.00" r="40.00" style="fill:rgb(127,127,127)" />
<circle cx="1170.00" cy="270.00" r="40.00" style="fill:rgb(255,255,255)" />
<circle cx="615.00" cy="310.00" r="40.00" style="fill:rgb(0,0,0)" />
<circle cx="784.00" cy="341.00" r="40.00" style="fill:rgb(127,127,127)" />
<circle cx="697.00" cy="333.00" r="40.00" style="fill:rgb(0,0,0)" />
<circle cx="752.00" cy="214.00" r="40.00" style="fill:rgb(255,255,255)" />
<circle cx="159.00" cy="345.00" r="40.00" style="fill:rgb(255,255,255)" />
<circle cx="582.00" cy="374.00" r="40.00" style="fill:rgb(127,127,127)" />
<circle cx="768.00" cy="304.00" r="40.00" style="fill:rgb(127,127,127)" />
<circle cx="1143.00" cy="203.00" r="40.00" style="fill:rgb(127,0,0)" />
<circle cx="1170.00" cy="381.00" r="40.00" style="fill:rgb(0,0,0)" />
<circle cx="344.00" cy="355.00" r="40.00" style="fill:rgb(127,0,0)" />
<circle cx="275.00" cy="258.00" r="40.00" style="fill:rgb(127,127,127)" />
<circle cx="504.00" cy="369.00" r="40.00" style="fill:rgb(127,0,0)" />
<circle cx="835.00" cy="226.00" r="40.00" style="fill:rgb(0,0,0)" />
<circle cx="327.00" cy="304.00" r="40.00" style="fill:rgb(255,255,255)" />
<circle cx="1128.00" cy="221.00" r="40.00" style="fill:rgb(127,0,0)" />
<circle cx="75.00" cy="240.00" r="40.00" style="fill:rgb(0,0,0)" />
<circle cx="509.00" cy="305.00" r="40.00" style="fill:rgb(127,127,127)" />
<circle cx="913.00" cy="396.00" r="40.00" style="fill:rgb(255,255,255)" />
<circle cx="177.00" cy="307.00" r="40.00" style="fill:rgb(127,127,127)" />
<circle cx="1026.00" cy="399.00" r="40.00" style="fill:rgb(255,255,255)" />
<circle cx="601.00" cy="347.00" r="40.00" style="fill:rgb(255,255,255)" />
<circle cx="1127.00" cy="203.00" r="40.00" style="fill:rgb(255,255,255)" />
<circle cx="129.00" cy="290.00" r="40.00" style="fill:rgb(255,255,255)" />
<circle cx="301.00" cy="253.00" r="40.00" style="fill:rgb(0,0,0)" />
<circle cx="746.00" cy="262.00" r="40.00" style="fill:rgb(127,0,0)" />
<circle cx="486.00" cy="349.00" r="40.00" style="fill:rgb(127,127,127)" />
<circle cx="678.00" cy="233.00" r="40.00" style="fill:rgb(255,255,255)" />
<circle cx="214.00" cy="367.00" r="40.00" style="fill:rgb(127,127,127)" />
<circle cx="1001.00" cy="366.00" r="40.00" style="fill:rgb(127,0,0)" />
<circle cx="421.00" cy="312.00" r="40.00" style="fill:rgb(127,127,127)" />
<circle cx="767.00" cy="219.00" r="40.00" style="fill:rgb(127,127,127)" />
<circle cx="72.00" cy="315.00" r="40.00" style="fill:rgb(255,255,255)" />
<circle cx="904.00" cy="280.00" r="40.00" style="fill:rgb(255,255,255)" />
<circle cx="1139.00" cy="202.00" r="40.00" style="fill:rgb(255,255,255)" />
<circle cx="552.00" cy="258.00" r="40.00" style="fill:rgb(255,255,255)" />
<circle cx="599.00" cy="227.00" r="40.00" style="fill:rgb(127,127,127)" />
<circle cx="580.00" cy="301.00" r="40.00" style="fill:rgb(255,255,255)" />
<circle cx="905.00" cy="296.00" r="40.00" style="fill:rgb(127,0,0)" />
<circle cx="658.00" cy="295.00" r="40.00" style="fill:rgb(127,127,127)" />
<circle cx="730.00" cy="274.00" r="40.00" style="fill:rgb(255,255,255)" />
<circle cx="294.00" cy="273.00" r="40.00" style="fill:rgb(127,127,127)" />
<circle cx="45.00" cy="371.00" r="40.00" style="fill:rgb(127,127,127)" />
<circle cx="23.00" cy="314.00" r="40.00" style="fill:rgb(127,127,127)" />
<circle cx="880.00" cy="369.00" r="40.00" style="fill:rgb(255,255,255)" />
<circle cx="1198.00" cy="337.00" r="40.00" style="fill:rgb(127,0,0)" />
<circle cx="473.00" cy="298.00" r="40.00" style="fill:rgb(255,255,255)" />
<circle cx="553.00" cy="355.00" r="40.00" style="fill:rgb(127,0,0)" />
<circle cx="1035.00" cy="313.00" r="40.00" style="fill:rgb(255,255,255)" />
<circle cx="524.00" cy="396.00" r="40.00" style="fill:rgb(127,127,127)" />
<circle cx="100.00" cy="263.00" r="40.00" style="fill:rgb(127,127,127)" />
<circle cx="660.00" cy="333.00" r="40.00" style="fill:rgb(127,0,0)" />
<circle cx="1196.00" cy="256.00" r="40.00" style="fill:rgb(127,127,127)" />
<circle cx="762.00" cy="214.00" r="40.00" style="fill:rgb(127,0,0)" />
<circle cx="684.00" cy="200.00" r="40.00" style="fill:rgb(127,127,127)" />
<circle cx="327.00" cy="202.00" r="40.00" style="fill:rgb(127,127,127)" />
<circle cx="809.00" cy="397.00" r="40.00" style="fill:rgb(0,0,0)" />
<circle cx="229.00" cy="316.00" r="40.00" style="fill:rgb(0,0,0)" />
<circle cx="557.00" cy="293.00" r="40.00" style="fill:rgb(0,0,0)" />
<circle cx="944.00" cy="282.00" r="40.00" style="fill:rgb(127,0,0)" />
<circle cx="257.00" cy="375.00" r="40.00" style="fill:rgb(127,0,0)" />
<circle cx="102.00" cy="291.00" r="40.00" style="fill:rgb(0,0,0)" />
<circle cx="224.00" cy="272.00" r="40.00" style="fill:rgb(0,0,0)" />
<circle cx="1136.00" cy="236.00" r="40.00" style="fill:rgb(255,255,255)" />
<circle cx="211.00" cy="218.00" r="40.00" style="fill:rgb(127,0,0)" />
<circle cx="233.00" cy="260.00" r="40.00" style="fill:rgb(127,0,0)" />
<circle cx="202.00" cy="387.00" r="40.00" style="fill:rgb(255,255,255)" />
<circle cx="50.00" cy="377.00" r="40.00" style="fill:rgb(127,127,127)" />
<circle cx="966.00" cy="201.00" r="40.00" style="fill:rgb(127,127,127)" />
<circle cx="813.00" cy="392.00" r="40.00" style="fill:rgb(127,127,127)" />
<circle cx="341.00" cy="345.00" r="40.00" style="fill:rgb(255,255,255)" />
<circle cx="559.00" cy="261.00" r="40.00" style="fill:rgb(255,255,255)" />
<circle cx="1127.00" cy="280.00" r="40.00" style="fill:rgb(255,255,255)" />
<circle cx="337.00" cy="243.00" r="40.00" style="fill:rgb(127,127,127)" />
<circle cx="971.00" cy="386.00" r="40.00" style="fill:rgb(0,0,0)" />
<circle cx="850.00" cy="235.00" r="40.00" style="fill:rgb(127,127,127)" />
<circle cx="1062.00" cy="334.00" r="40.00" style="fill:rgb(0,0,0)" />
<circle cx="1143.00" cy="201.00" r="40.00" style="fill:rgb(127,127,127)" />
<circle cx="547.00" cy="243.00" r="40.00" style="fill:rgb(127,127,127)" />
<circle cx="126.00" cy="265.00" r="40.00" style="fill:rgb(127,127,127)" />
<circle cx="746.00" cy="293.00" r="40.00" style="fill:rgb(127,127,127)" />
<circle cx="1199.00" cy="216.00" r="40.00" style="fill:rgb(127,0,0)" />
<circle cx="978.00" cy="297.00" r="40.00" style="fill:rgb(255,255,255)" />
<circle cx="153.00" cy="342.00" r="40.00" style="fill:rgb(127,127,127)" />
<circle cx="288.00" cy="258.00" r="40.00" style="fill:rgb(0,0,0)" />
<circle cx="656.00" cy="359.00" r="40.00" style="fill:rgb(255,255,255)" />
<circle cx="558.00" cy="258.00" r="40.00" style="fill:rgb(127,0,0)" />
<circle cx="553.00" cy="371.00" r="40.00" style="fill:rgb(255,255,255)" />
<circle cx="3.00" cy="249.00" r="40.00" style="fill:rgb(255,255,255)" />
<circle cx="242.00" cy="347.00" r="40.00" style="fill:rgb(127,0,0)" />
<circle cx="286.00" cy="348.00" r="40.00" style="fill:rgb(0,0,0)" />
<circle cx="424.00" cy="290.00" r="40.00" style="fill:rgb(127,0,0)" />
<circle cx="276.00" cy="365.00" r="40.00" style="fill:rgb(0,0,0)" />
<circle cx="392.00" cy="334.00" r="40.00" style="fill:rgb(0,0,0)" />
<circle cx="1051.00" cy="309.00" r="40.00" style="fill:rgb(127,0,0)" />
<circle cx="588.00" cy="205.00" r="40.00" style="fill:rgb(127,0,0)" />
<circle cx="80.00" cy="232.00" r="40.00" style="fill:rgb(0,0,0)" />
<circle cx="97.00" cy="325.00" r="40.00" style="fill:rgb(0,0,0)" />
<circle cx="908.00" cy="277.00" r="40.00" style="fill:rgb(0,0,0)" />
<circle cx="250.00" cy="231.00" r="40.00" style="fill:rgb(255,255,255)" />
<circle cx="967.00" cy="321.00" r="40.00" style="fill:rgb(127,127,127)" />
<circle cx="69.00" cy="296.00" r="40.00" style="fill:rgb(127,0,0)" />
<circle cx="165.00" cy="264.00" r="40.00" style="fill:rgb(127,127,127)" />
<circle cx="914.00" cy="321.00" r="40.00" style="fill:rgb(0,0,0)" />
<circle cx="337.00" cy="201.00" r="40.00" style="fill:rgb(127,0,0)" />
<circle cx="1099.00" cy="268.00" r="40.00" style="fill:rgb(127,127,127)" />
<circle cx="306.00" cy="254.00" r="40.00" style="fill:rgb(127,127,127)" />
<circle cx="39.00" cy="251.00" r="40.00" style="fill:rgb(255,255,255)" />
<circle cx="7.00" cy="214.00" r="40.00" style="fill:rgb(127,0,0)" />
<circle cx="362.00" cy="236.00" r="40.00" style="fill:rgb(0,0,0)" />
<circle cx="100.00" cy="209.00" r="40.00" style="fill:rgb(255,255,255)" />
<circle cx="1087.00" cy="294.00" r="40.00" style="fill:rgb(127,127,127)" />
<circle cx="976.00" cy="261.00" r="40.00" style="fill:rgb(0,0,0)" />
<circle cx="896.00" cy="356.00" r="40.00" style="fill:rgb(127,127,127)" />
<circle cx="1115.00" cy="397.00" r="40.00" style="fill:rgb(255,255,255)" />
<circle cx="306.00" cy="329.00" r="40.00" style="fill:rgb(127,0,0)" />
<circle cx="189.00" cy="226.00" r="40.00" style="fill:rgb(127,127,127)" />
<circle cx="816.00" cy="282.00" r="40.00" style="fill:rgb(0,0,0)" />
<circle cx="1086.00" cy="244.00" r="40.00" style="fill:rgb(127,0,0)" />
<circle cx="413.00" cy="245.00" r="40.00" style="fill:rgb(127,0,0)" />
<circle cx="500.00" cy="226.00" r="40.00" style="fill:rgb(255,255,255)" />
<circle cx="1197.00" cy="315.00" r="40.00" style="fill:rgb(255,255,255)" />
<circle cx="82.00" cy="301.00" r="40.00" style="fill:rgb(0,0,0)" />
<circle cx="321.00" cy="391.00" r="40.00" style="fill:rgb(0,0,0)" />
<circle cx="990.00" cy="391.00" r="40.00" style="fill:rgb(255,255,255)" />
<circle cx="538.00" cy="253.00" r="40.00" style="fill:rgb(127,0,0)" />
<circle cx="146.00" cy="393.00" r="40.00" style="fill:rgb(127,127,127)" />
<circle cx="862.00" cy="389.00" r="40.00" style="fill:rgb(255,255,255)" />
<circle cx="33.00" cy="335.00" r="40.00" style="fill:rgb(255,255,255)" />
<circle cx="556.00" cy="233.00" r="40.00" style="fill:rgb(255,255,255)" />
<circle cx="6.00" cy="217.00" r="40.00" style="fill:rgb(0,0,0)" />
<circle cx="764.00" cy="299.00" r="40.00" style="fill:rgb(255,255,255)" />
<circle cx="277.00" cy="320.00" r="40.00" style="fill:rgb(127,0,0)" />
<circle cx="810.00" cy="294.00" r="40.00" style="fill:rgb(127,0,0)" />
<circle cx="214.00" cy="338.00" r="40.00" style="fill:rgb(255,255,255)" />
<circle cx="1053.00" cy="248.00" r="40.00" style="fill:rgb(127,0,0)" />
<circle cx="658.00" cy="358.00" r="40.00" style="fill:rgb(127,127,127)" />
<circle cx="428.00" cy="341.00" r="40.00" style="fill:rgb(127,0,0)" />
<circle cx="879.00" cy="251.00" r="40.00" style="fill:rgb(127,127,127)" />
<circle cx="1049.00" cy="349.00" r="40.00" style="fill:rgb(127,127,127)" />
<circle cx="1115.00" cy="271.00" r="40.00" style="fill:rgb(255,255,255)" />
<circle cx="1002.00" cy="269.00" r="40.00" style="fill:rgb(0,0,0)" />
<circle cx="211.00" cy="377.00" r="40.00" style="fill:rgb(127,0,0)" />
<circle cx="50.00" cy="317.00" r="40.00" style="fill:rgb(0,0,0)" />
<circle cx="310.00" cy="241.00" r="40.00" style="fill:rgb(0,0,0)" />
<circle cx="561.00" cy="245.00" r="40.00" style="fill:rgb(255,255,255)" />
<circle cx="1080.00" cy="320.00" r="40.00" style="fill:rgb(255,255,255)" />
<circle cx="465.00" cy="378.00" r="40.00" style="fill:rgb(255,255,255)" />
<circle cx="193.00" cy="357.00" r="40.00" style="fill:rgb(127,0,0)" />
<circle cx="432.00" cy="350.00" r="40.00" style="fill:rgb(0,0,0)" />
<circle cx="317.00" cy="313.00" r="40.00" style="fill:rgb(127,127,127)" />
<circle cx="955.00" cy="233.00" r="40.00" style="fill:rgb(127,127,127)" />
<circle cx="390.00" cy="272.00" r="40.00" style="fill:rgb(255,255,255)" />
<circle cx="917.00" cy="268.00" r="40.00" style="fill:rgb(255,255,255)" />
<circle cx="1087.00" cy="208.00" r="40.00" style="fill:rgb(127,127,127)" />
<circle cx="246.00" cy="307.00" r="40.00" style="fill:rgb(127,0,0)" />
<circle cx="809.00" cy="392.00" r="40.00" style="fill:rgb(127,127,127)" />
<circle cx="301.00" cy="369.00" r="40.00" style="fill:rgb(127,127,127)" />
<circle cx="736.00" cy="237.00" r="40.00" style="fill:rgb(255,255,255)" />
<circle cx="92.00" cy="251.00" r="40.00" style="fill:rgb(255,255,255)" />
<circle cx="1112.00" cy="329.00" r="40.00" style="fill:rgb(127,127,127)" />
<circle cx="1133.00" cy="320.00" r="40.00" style="fill:rgb(127,0,0)" />
<circle cx="291.00" cy="252.00" r="40.00" style="fill:rgb(255,255,255)" />
<circle cx="422.00" cy="331.00" r="40.00" style="fill:rgb(255,255,255)" />
<circle cx="1131.00" cy="250.00" r="40.00" style="fill:rgb(0,0,0)" />
<circle cx="1175.00" cy="353.00" r="40.00" style="fill:rgb(0,0,0)" />
<circle cx="140.00" cy="385.00" r="40.00" style="fill:rgb(0,0,0)" />
<circle cx="735.00" cy="248.00" r="40.00" style="fill:rgb(127,0,0)" />
<circle cx="1.00" cy="299.00" r="40.00" style="fill:rgb(0,0,0)" />
<circle cx="837.00" cy="396.00" r="40.00" style="fill:rgb(0,0,0)" />
<circle cx="335.00" cy="274.00" r="40.00" style="fill:rgb(127,0,0)" />
<circle cx="985.00" cy="248.00" r="40.00" style="fill:rgb(127,127,127)" />
<circle cx="1199.00" cy="206.00" r="40.00" style="fill:rgb(255,255,255)" />
<circle cx="759.00" cy="310.00" r="40.00" style="fill:rgb(127,127,127)" />
<circle cx="48.00" cy="310.00" r="40.00" style="fill:rgb(255,255,255)" />
<circle cx="1092.00" cy="359.00" r="40.00" style="fill:rgb(255,255,255)" />
<circle cx="516.00" cy="313.00" r="40.00" style="fill:rgb(127,127,127)" />
<circle cx="1024.00" cy="224.00" r="40.00" style="fill:rgb(255,255,255)" />
<circle cx="869.00" cy="269.00" r="40.00" style="fill:rgb(0,0,0)" />
<circle cx="39.00" cy="317.00" r="40.00" style="fill:rgb(127,127,127)" />
<circle cx="815.00" cy="335.00" r="40.00" style="fill:rgb(0,0,0)" />
<circle cx="996.00" cy="260.00" r="40.00" style="fill:rgb(0,0,0)" />
<circle cx="1032.00" cy="374.00" r="40.00" style="fill:rgb(127,0,0)" />
<circle cx="1001.00" cy="378.00" r="40.00" style="fill:rgb(0,0,0)" />
<circle cx="536.00" cy="357.00" r="40.00" style="fill:rgb(255,255,255)" />
<circle cx="307.00" cy="372.00" r="40.00" style="fill:rgb(127,127,127)" />
<circle cx="490.00" cy="308.00" r="40.00" style="fill:rgb(0,0,0)" />
<circle cx="111.00" cy="298.00" r="40.00" style="fill:rgb(255,255,255)" />
<circle cx="770.00" cy="339.00" r="40.00" style="fill:rgb(255,255,255)" />
<circle cx="1067.00" cy="208.00" r="40.00" style="fill:rgb(255,255,255)" />
<circle cx="784.00" cy="277.00" r="40.00" style="fill:rgb(255,255,255)" />
<circle cx="761.00" cy="215.00" r="40.00" style="fill:rgb(127,0,0)" />
<circle cx="83.00" cy="253.00" r="40.00" style="fill:rgb(0,0,0)" />
</g>
</svg>
