<?xml version="1.0"?>
<!-- Generated by SVGo (float) -->
<svg width="600.00" height="400.00"
     xmlns="http://www.w3.org/2000/svg"
     xmlns:xlink="http://www.w3.org/1999/xlink">
<title>Random Integer Comparison</title>
<desc>Comparison of Random integers: the random device &amp; the Go rand package</desc>
<rect x="0.00" y="0.00" width="256.00" height="256.00" style="fill:white; stroke:gray" />
<rect x="256.00" y="0.00" width="256.00" height="256.00" style="fill:white; stroke:gray" />
<desc>Left: Go rand package (red), Right: /dev/urandom</desc>
<g style="stroke:none; fill-opacity:0.5">
<circle cx="88.00" cy="252.00" r="5.00" style="fill:rgb(127,0,0)" />
<circle cx="35.00" cy="38.00" r="5.00" style="fill:black" />
<circle cx="135.00" cy="26.00" r="5.00" style="fill:rgb(127,0,0)" />
<circle cx="6.00" cy="97.00" r="5.00" style="fill:black" />
<circle cx="133.00" cy="45.00" r="5.00" style="fill:rgb(127,0,0)" />
<circle cx="81.00" cy="225.00" r="5.00" style="fill:black" />
<circle cx="36.00" cy="141.00" r="5.00" style="fill:rgb(127,0,0)" />
<circle cx="109.00" cy="0.00" r="5.00" style="fill:black" />
<circle cx="177.00" cy="49.00" r="5.00" style="fill:rgb(127,0,0)" />
<circle cx="235.00" cy="10.00" r="5.00" style="fill:black" />
<circle cx="197.00" cy="147.00" r="5.00" style="fill:rgb(127,0,0)" />
<circle cx="226.00" cy="69.00" r="5.00" style="fill:black" />
<circle cx="92.00" cy="19.00" r="5.00" style="fill:rgb(127,0,0)" />
<circle cx="25.00" cy="81.00" r="5.00" style="fill:black" />
<circle cx="52.00" cy="150.00" r="5.00" style="fill:rgb(127,0,0)" />
<circle cx="169.00" cy="216.00" r="5.00" style="fill:black" />
<circle cx="197.00" cy="87.00" r="5.00" style="fill:rgb(127,0,0)" />
<circle cx="249.00" cy="129.00" r="5.00" style="fill:black" />
<circle cx="107.00" cy="207.00" r="5.00" style="fill:rgb(127,0,0)" />
<circle cx="235.00" cy="18.00" r="5.00" style="fill:black" />
<circle cx="105.00" cy="142.00" r="5.00" style="fill:rgb(127,0,0)" />
<circle cx="138.00" cy="142.00" r="5.00" style="fill:black" />
<circle cx="145.00" cy="88.00" r="5.00" style="fill:rgb(127,0,0)" />
<circle cx="167.00" cy="74.00" r="5.00" style="fill:black" />
<circle cx="205.00" cy="185.00" r="5.00" style="fill:rgb(127,0,0)" />
<circle cx="152.00" cy="31.00" r="5.00" style="fill:black" />
<circle cx="184.00" cy="187.00" r="5.00" style="fill:rgb(127,0,0)" />
<circle cx="164.00" cy="57.00" r="5.00" style="fill:black" />
<circle cx="69.00" cy="217.00" r="5.00" style="fill:rgb(127,0,0)" />
<circle cx="0.00" cy="227.00" r="5.00" style="fill:black" />
<circle cx="217.00" cy="236.00" r="5.00" style="fill:rgb(127,0,0)" />
<circle cx="159.00" cy="93.00" r="5.00" style="fill:black" />
<circle cx="38.00" cy="114.00" r="5.00" style="fill:rgb(127,0,0)" />
<circle cx="222.00" cy="23.00" r="5.00" style="fill:black" />
<circle cx="47.00" cy="233.00" r="5.00" style="fill:rgb(127,0,0)" />
<circle cx="254.00" cy="239.00" r="5.00" style="fill:black" />
<circle cx="90.00" cy="54.00" r="5.00" style="fill:rgb(127,0,0)" />
<circle cx="151.00" cy="67.00" r="5.00" style="fill:black" />
<circle cx="37.00" cy="154.00" r="5.00" style="fill:rgb(127,0,0)" />
<circle cx="199.00" cy="51.00" r="5.00" style="fill:black" />
<circle cx="167.00" cy="177.00" r="5.00" style="fill:rgb(127,0,0)" />
<circle cx="10.00" cy="162.00" r="5.00" style="fill:black" />
<circle cx="254.00" cy="80.00" r="5.00" style="fill:rgb(127,0,0)" />
<circle cx="239.00" cy="49.00" r="5.00" style="fill:black" />
<circle cx="135.00" cy="97.00" r="5.00" style="fill:rgb(127,0,0)" />
<circle cx="208.00" cy="52.00" r="5.00" style="fill:black" />
<circle cx="153.00" cy="213.00" r="5.00" style="fill:rgb(127,0,0)" />
<circle cx="190.00" cy="134.00" r="5.00" style="fill:black" />
<circle cx="183.00" cy="92.00" r="5.00" style="fill:rgb(127,0,0)" />
<circle cx="56.00" cy="130.00" r="5.00" style="fill:black" />
<circle cx="104.00" cy="9.00" r="5.00" style="fill:rgb(127,0,0)" />
<circle cx="67.00" cy="79.00" r="5.00" style="fill:black" />
<circle cx="157.00" cy="3.00" r="5.00" style="fill:rgb(127,0,0)" />
<circle cx="75.00" cy="76.00" r="5.00" style="fill:black" />
<circle cx="148.00" cy="197.00" r="5.00" style="fill:rgb(127,0,0)" />
<circle cx="194.00" cy="252.00" r="5.00" style="fill:black" />
<circle cx="217.00" cy="226.00" r="5.00" style="fill:rgb(127,0,0)" />
<circle cx="114.00" cy="95.00" r="5.00" style="fill:black" />
<circle cx="171.00" cy="90.00" r="5.00" style="fill:rgb(127,0,0)" />
<circle cx="16.00" cy="158.00" r="5.00" style="fill:black" />
<circle cx="207.00" cy="125.00" r="5.00" style="fill:rgb(127,0,0)" />
<circle cx="204.00" cy="229.00" r="5.00" style="fill:black" />
<circle cx="126.00" cy="65.00" r="5.00" style="fill:rgb(127,0,0)" />
<circle cx="192.00" cy="7.00" r="5.00" style="fill:black" />
<circle cx="73.00" cy="88.00" r="5.00" style="fill:rgb(127,0,0)" />
<circle cx="124.00" cy="241.00" r="5.00" style="fill:black" />
<circle cx="72.00" cy="43.00" r="5.00" style="fill:rgb(127,0,0)" />
<circle cx="173.00" cy="213.00" r="5.00" style="fill:black" />
<circle cx="230.00" cy="106.00" r="5.00" style="fill:rgb(127,0,0)" />
<circle cx="88.00" cy="132.00" r="5.00" style="fill:black" />
<circle cx="155.00" cy="115.00" r="5.00" style="fill:rgb(127,0,0)" />
<circle cx="144.00" cy="83.00" r="5.00" style="fill:black" />
<circle cx="166.00" cy="60.00" r="5.00" style="fill:rgb(127,0,0)" />
<circle cx="53.00" cy="35.00" r="5.00" style="fill:black" />
<circle cx="94.00" cy="211.00" r="5.00" style="fill:rgb(127,0,0)" />
<circle cx="60.00" cy="160.00" r="5.00" style="fill:black" />
<circle cx="34.00" cy="76.00" r="5.00" style="fill:rgb(127,0,0)" />
<circle cx="2.00" cy="252.00" r="5.00" style="fill:black" />
<circle cx="215.00" cy="132.00" r="5.00" style="fill:rgb(127,0,0)" />
<circle cx="62.00" cy="178.00" r="5.00" style="fill:black" />
<circle cx="61.00" cy="165.00" r="5.00" style="fill:rgb(127,0,0)" />
<circle cx="142.00" cy="38.00" r="5.00" style="fill:black" />
<circle cx="167.00" cy="220.00" r="5.00" style="fill:rgb(127,0,0)" />
<circle cx="255.00" cy="193.00" r="5.00" style="fill:black" />
<circle cx="85.00" cy="215.00" r="5.00" style="fill:rgb(127,0,0)" />
<circle cx="4.00" cy="189.00" r="5.00" style="fill:black" />
<circle cx="242.00" cy="52.00" r="5.00" style="fill:rgb(127,0,0)" />
<circle cx="212.00" cy="173.00" r="5.00" style="fill:black" />
<circle cx="20.00" cy="254.00" r="5.00" style="fill:rgb(127,0,0)" />
<circle cx="155.00" cy="96.00" r="5.00" style="fill:black" />
<circle cx="237.00" cy="139.00" r="5.00" style="fill:rgb(127,0,0)" />
<circle cx="224.00" cy="65.00" r="5.00" style="fill:black" />
<circle cx="55.00" cy="180.00" r="5.00" style="fill:rgb(127,0,0)" />
<circle cx="229.00" cy="142.00" r="5.00" style="fill:black" />
<circle cx="36.00" cy="153.00" r="5.00" style="fill:rgb(127,0,0)" />
<circle cx="172.00" cy="135.00" r="5.00" style="fill:black" />
<circle cx="176.00" cy="236.00" r="5.00" style="fill:rgb(127,0,0)" />
<circle cx="68.00" cy="100.00" r="5.00" style="fill:black" />
<circle cx="203.00" cy="31.00" r="5.00" style="fill:rgb(127,0,0)" />
<circle cx="98.00" cy="218.00" r="5.00" style="fill:black" />
<circle cx="206.00" cy="31.00" r="5.00" style="fill:rgb(127,0,0)" />
<circle cx="55.00" cy="138.00" r="5.00" style="fill:black" />
<circle cx="55.00" cy="77.00" r="5.00" style="fill:rgb(127,0,0)" />
<circle cx="231.00" cy="156.00" r="5.00" style="fill:black" />
<circle cx="15.00" cy="223.00" r="5.00" style="fill:rgb(127,0,0)" />
<circle cx="138.00" cy="9.00" r="5.00" style="fill:black" />
<circle cx="64.00" cy="194.00" r="5.00" style="fill:rgb(127,0,0)" />
<circle cx="252.00" cy="126.00" r="5.00" style="fill:black" />
<circle cx="245.00" cy="188.00" r="5.00" style="fill:rgb(127,0,0)" />
<circle cx="120.00" cy="176.00" r="5.00" style="fill:black" />
<circle cx="45.00" cy="223.00" r="5.00" style="fill:rgb(127,0,0)" />
<circle cx="109.00" cy="141.00" r="5.00" style="fill:black" />
<circle cx="91.00" cy="241.00" r="5.00" style="fill:rgb(127,0,0)" />
<circle cx="181.00" cy="14.00" r="5.00" style="fill:black" />
<circle cx="15.00" cy="217.00" r="5.00" style="fill:rgb(127,0,0)" />
<circle cx="220.00" cy="43.00" r="5.00" style="fill:black" />
<circle cx="40.00" cy="169.00" r="5.00" style="fill:rgb(127,0,0)" />
<circle cx="40.00" cy="182.00" r="5.00" style="fill:black" />
<circle cx="188.00" cy="109.00" r="5.00" style="fill:rgb(127,0,0)" />
<circle cx="212.00" cy="160.00" r="5.00" style="fill:black" />
<circle cx="178.00" cy="39.00" r="5.00" style="fill:rgb(127,0,0)" />
<circle cx="188.00" cy="167.00" r="5.00" style="fill:black" />
<circle cx="139.00" cy="222.00" r="5.00" style="fill:rgb(127,0,0)" />
<circle cx="206.00" cy="184.00" r="5.00" style="fill:black" />
<circle cx="159.00" cy="158.00" r="5.00" style="fill:rgb(127,0,0)" />
<circle cx="234.00" cy="20.00" r="5.00" style="fill:black" />
<circle cx="132.00" cy="60.00" r="5.00" style="fill:rgb(127,0,0)" />
<circle cx="166.00" cy="60.00" r="5.00" style="fill:black" />
<circle cx="208.00" cy="121.00" r="5.00" style="fill:rgb(127,0,0)" />
<circle cx="129.00" cy="154.00" r="5.00" style="fill:black" />
<circle cx="2.00" cy="253.00" r="5.00" style="fill:rgb(127,0,0)" />
<circle cx="209.00" cy="26.00" r="5.00" style="fill:black" />
<circle cx="133.00" cy="227.00" r="5.00" style="fill:rgb(127,0,0)" />
<circle cx="24.00" cy="26.00" r="5.00" style="fill:black" />
<circle cx="218.00" cy="213.00" r="5.00" style="fill:rgb(127,0,0)" />
<circle cx="12.00" cy="49.00" r="5.00" style="fill:black" />
<circle cx="131.00" cy="52.00" r="5.00" style="fill:rgb(127,0,0)" />
<circle cx="67.00" cy="127.00" r="5.00" style="fill:black" />
<circle cx="201.00" cy="51.00" r="5.00" style="fill:rgb(127,0,0)" />
<circle cx="97.00" cy="69.00" r="5.00" style="fill:black" />
<circle cx="146.00" cy="4.00" r="5.00" style="fill:rgb(127,0,0)" />
<circle cx="167.00" cy="211.00" r="5.00" style="fill:black" />
<circle cx="116.00" cy="169.00" r="5.00" style="fill:rgb(127,0,0)" />
<circle cx="64.00" cy="149.00" r="5.00" style="fill:black" />
<circle cx="195.00" cy="110.00" r="5.00" style="fill:rgb(127,0,0)" />
<circle cx="174.00" cy="92.00" r="5.00" style="fill:black" />
<circle cx="199.00" cy="40.00" r="5.00" style="fill:rgb(127,0,0)" />
<circle cx="228.00" cy="231.00" r="5.00" style="fill:black" />
<circle cx="57.00" cy="165.00" r="5.00" style="fill:rgb(127,0,0)" />
<circle cx="244.00" cy="145.00" r="5.00" style="fill:black" />
<circle cx="36.00" cy="23.00" r="5.00" style="fill:rgb(127,0,0)" />
<circle cx="169.00" cy="158.00" r="5.00" style="fill:black" />
<circle cx="18.00" cy="19.00" r="5.00" style="fill:rgb(127,0,0)" />
<circle cx="67.00" cy="192.00" r="5.00" style="fill:black" />
<circle cx="16.00" cy="163.00" r="5.00" style="fill:rgb(127,0,0)" />
<circle cx="168.00" cy="193.00" r="5.00" style="fill:black" />
<circle cx="179.00" cy="78.00" r="5.00" style="fill:rgb(127,0,0)" />
<circle cx="17.00" cy="25.00" r="5.00" style="fill:black" />
<circle cx="235.00" cy="234.00" r="5.00" style="fill:rgb(127,0,0)" />
<circle cx="233.00" cy="173.00" r="5.00" style="fill:black" />
<circle cx="107.00" cy="141.00" r="5.00" style="fill:rgb(127,0,0)" />
<circle cx="60.00" cy="214.00" r="5.00" style="fill:black" />
<circle cx="96.00" cy="79.00" r="5.00" style="fill:rgb(127,0,0)" />
<circle cx="167.00" cy="198.00" r="5.00" style="fill:black" />
<circle cx="158.00" cy="206.00" r="5.00" style="fill:rgb(127,0,0)" />
<circle cx="35.00" cy="106.00" r="5.00" style="fill:black" />
<circle cx="158.00" cy="97.00" r="5.00" style="fill:rgb(127,0,0)" />
<circle cx="38.00" cy="51.00" r="5.00" style="fill:black" />
<circle cx="215.00" cy="237.00" r="5.00" style="fill:rgb(127,0,0)" />
<circle cx="190.00" cy="100.00" r="5.00" style="fill:black" />
<circle cx="250.00" cy="74.00" r="5.00" style="fill:rgb(127,0,0)" />
<circle cx="63.00" cy="148.00" r="5.00" style="fill:black" />
<circle cx="59.00" cy="163.00" r="5.00" style="fill:rgb(127,0,0)" />
<circle cx="35.00" cy="48.00" r="5.00" style="fill:black" />
<circle cx="152.00" cy="44.00" r="5.00" style="fill:rgb(127,0,0)" />
<circle cx="45.00" cy="53.00" r="5.00" style="fill:black" />
<circle cx="64.00" cy="2.00" r="5.00" style="fill:rgb(127,0,0)" />
<circle cx="249.00" cy="244.00" r="5.00" style="fill:black" />
<circle cx="8.00" cy="74.00" r="5.00" style="fill:rgb(127,0,0)" />
<circle cx="210.00" cy="129.00" r="5.00" style="fill:black" />
<circle cx="159.00" cy="166.00" r="5.00" style="fill:rgb(127,0,0)" />
<circle cx="143.00" cy="190.00" r="5.00" style="fill:black" />
<circle cx="76.00" cy="64.00" r="5.00" style="fill:rgb(127,0,0)" />
<circle cx="43.00" cy="150.00" r="5.00" style="fill:black" />
<circle cx="222.00" cy="59.00" r="5.00" style="fill:rgb(127,0,0)" />
<circle cx="227.00" cy="212.00" r="5.00" style="fill:black" />
<circle cx="93.00" cy="192.00" r="5.00" style="fill:rgb(127,0,0)" />
<circle cx="174.00" cy="63.00" r="5.00" style="fill:black" />
<circle cx="168.00" cy="71.00" r="5.00" style="fill:rgb(127,0,0)" />
<circle cx="231.00" cy="17.00" r="5.00" style="fill:black" />
<circle cx="134.00" cy="231.00" r="5.00" style="fill:rgb(127,0,0)" />
<circle cx="118.00" cy="223.00" r="5.00" style="fill:black" />
<circle cx="254.00" cy="109.00" r="5.00" style="fill:rgb(127,0,0)" />
<circle cx="233.00" cy="226.00" r="5.00" style="fill:black" />
<circle cx="245.00" cy="250.00" r="5.00" style="fill:rgb(127,0,0)" />
<circle cx="158.00" cy="188.00" r="5.00" style="fill:black" />
<circle cx="172.00" cy="30.00" r="5.00" style="fill:rgb(127,0,0)" />
<circle cx="164.00" cy="186.00" r="5.00" style="fill:black" />
<circle cx="174.00" cy="32.00" r="5.00" style="fill:rgb(127,0,0)" />
<circle cx="240.00" cy="139.00" r="5.00" style="fill:black" />
<circle cx="211.00" cy="26.00" r="5.00" style="fill:rgb(127,0,0)" />
<circle cx="61.00" cy="74.00" r="5.00" style="fill:black" />
<circle cx="69.00" cy="195.00" r="5.00" style="fill:rgb(127,0,0)" />
<circle cx="183.00" cy="125.00" r="5.00" style="fill:black" />
<circle cx="219.00" cy="93.00" r="5.00" style="fill:rgb(127,0,0)" />
<circle cx="45.00" cy="82.00" r="5.00" style="fill:black" />
<circle cx="76.00" cy="129.00" r="5.00" style="fill:rgb(127,0,0)" />
<circle cx="102.00" cy="57.00" r="5.00" style="fill:black" />
<circle cx="215.00" cy="141.00" r="5.00" style="fill:rgb(127,0,0)" />
<circle cx="14.00" cy="92.00" r="5.00" style="fill:black" />
<circle cx="153.00" cy="58.00" r="5.00" style="fill:rgb(127,0,0)" />
<circle cx="255.00" cy="19.00" r="5.00" style="fill:black" />
<circle cx="96.00" cy="198.00" r="5.00" style="fill:rgb(127,0,0)" />
<circle cx="2.00" cy="9.00" r="5.00" style="fill:black" />
<circle cx="248.00" cy="61.00" r="5.00" style="fill:rgb(127,0,0)" />
<circle cx="217.00" cy="211.00" r="5.00" style="fill:black" />
<circle cx="103.00" cy="59.00" r="5.00" style="fill:rgb(127,0,0)" />
<circle cx="160.00" cy="189.00" r="5.00" style="fill:black" />
<circle cx="216.00" cy="113.00" r="5.00" style="fill:rgb(127,0,0)" />
<circle cx="237.00" cy="221.00" r="5.00" style="fill:black" />
<circle cx="67.00" cy="213.00" r="5.00" style="fill:rgb(127,0,0)" />
<circle cx="132.00" cy="86.00" r="5.00" style="fill:black" />
<circle cx="72.00" cy="31.00" r="5.00" style="fill:rgb(127,0,0)" />
<circle cx="112.00" cy="249.00" r="5.00" style="fill:black" />
<circle cx="230.00" cy="70.00" r="5.00" style="fill:rgb(127,0,0)" />
<circle cx="19.00" cy="193.00" r="5.00" style="fill:black" />
<circle cx="172.00" cy="129.00" r="5.00" style="fill:rgb(127,0,0)" />
<circle cx="245.00" cy="194.00" r="5.00" style="fill:black" />
<circle cx="133.00" cy="173.00" r="5.00" style="fill:rgb(127,0,0)" />
<circle cx="66.00" cy="165.00" r="5.00" style="fill:black" />
<circle cx="55.00" cy="29.00" r="5.00" style="fill:rgb(127,0,0)" />
<circle cx="101.00" cy="230.00" r="5.00" style="fill:black" />
<circle cx="78.00" cy="1.00" r="5.00" style="fill:rgb(127,0,0)" />
<circle cx="24.00" cy="1.00" r="5.00" style="fill:black" />
<circle cx="146.00" cy="142.00" r="5.00" style="fill:rgb(127,0,0)" />
<circle cx="143.00" cy="247.00" r="5.00" style="fill:black" />
<circle cx="119.00" cy="135.00" r="5.00" style="fill:rgb(127,0,0)" />
<circle cx="126.00" cy="77.00" r="5.00" style="fill:black" />
<circle cx="205.00" cy="13.00" r="5.00" style="fill:rgb(127,0,0)" />
<circle cx="241.00" cy="8.00" r="5.00" style="fill:black" />
<circle cx="137.00" cy="25.00" r="5.00" style="fill:rgb(127,0,0)" />
<circle cx="199.00" cy="225.00" r="5.00" style="fill:black" />
<circle cx="207.00" cy="31.00" r="5.00" style="fill:rgb(127,0,0)" />
<circle cx="42.00" cy="10.00" r="5.00" style="fill:black" />
<circle cx="210.00" cy="166.00" r="5.00" style="fill:rgb(127,0,0)" />
<circle cx="246.00" cy="244.00" r="5.00" style="fill:black" />
<circle cx="166.00" cy="84.00" r="5.00" style="fill:rgb(127,0,0)" />
<circle cx="89.00" cy="145.00" r="5.00" style="fill:black" />
<circle cx="158.00" cy="0.00" r="5.00" style="fill:rgb(127,0,0)" />
<circle cx="203.00" cy="111.00" r="5.00" style="fill:black" />
<circle cx="125.00" cy="220.00" r="5.00" style="fill:rgb(127,0,0)" />
<circle cx="101.00" cy="245.00" r="5.00" style="fill:black" />
<circle cx="71.00" cy="131.00" r="5.00" style="fill:rgb(127,0,0)" />
<circle cx="236.00" cy="79.00" r="5.00" style="fill:black" />
<circle cx="46.00" cy="172.00" r="5.00" style="fill:rgb(127,0,0)" />
<circle cx="126.00" cy="208.00" r="5.00" style="fill:black" />
<circle cx="74.00" cy="83.00" r="5.00" style="fill:rgb(127,0,0)" />
<circle cx="97.00" cy="124.00" r="5.00" style="fill:black" />
<circle cx="194.00" cy="168.00" r="5.00" style="fill:rgb(127,0,0)" />
<circle cx="211.00" cy="37.00" r="5.00" style="fill:black" />
<circle cx="55.00" cy="5.00" r="5.00" style="fill:rgb(127,0,0)" />
<circle cx="245.00" cy="99.00" r="5.00" style="fill:black" />
<circle cx="66.00" cy="133.00" r="5.00" style="fill:rgb(127,0,0)" />
<circle cx="85.00" cy="210.00" r="5.00" style="fill:black" />
<circle cx="162.00" cy="55.00" r="5.00" style="fill:rgb(127,0,0)" />
<circle cx="74.00" cy="52.00" r="5.00" style="fill:black" />
<circle cx="95.00" cy="147.00" r="5.00" style="fill:rgb(127,0,0)" />
<circle cx="21.00" cy="117.00" r="5.00" style="fill:black" />
<circle cx="18.00" cy="109.00" r="5.00" style="fill:rgb(127,0,0)" />
<circle cx="51.00" cy="174.00" r="5.00" style="fill:black" />
<circle cx="179.00" cy="42.00" r="5.00" style="fill:rgb(127,0,0)" />
<circle cx="179.00" cy="254.00" r="5.00" style="fill:black" />
<circle cx="218.00" cy="80.00" r="5.00" style="fill:rgb(127,0,0)" />
<circle cx="133.00" cy="183.00" r="5.00" style="fill:black" />
<circle cx="133.00" cy="250.00" r="5.00" style="fill:rgb(127,0,0)" />
<circle cx="46.00" cy="136.00" r="5.00" style="fill:black" />
<circle cx="52.00" cy="117.00" r="5.00" style="fill:rgb(127,0,0)" />
<circle cx="134.00" cy="230.00" r="5.00" style="fill:black" />
<circle cx="12.00" cy="144.00" r="5.00" style="fill:rgb(127,0,0)" />
<circle cx="106.00" cy="12.00" r="5.00" style="fill:black" />
<circle cx="121.00" cy="147.00" r="5.00" style="fill:rgb(127,0,0)" />
<circle cx="38.00" cy="122.00" r="5.00" style="fill:black" />
<circle cx="116.00" cy="110.00" r="5.00" style="fill:rgb(127,0,0)" />
<circle cx="65.00" cy="126.00" r="5.00" style="fill:black" />
<circle cx="43.00" cy="231.00" r="5.00" style="fill:rgb(127,0,0)" />
<circle cx="96.00" cy="46.00" r="5.00" style="fill:black" />
<circle cx="37.00" cy="144.00" r="5.00" style="fill:rgb(127,0,0)" />
<circle cx="236.00" cy="71.00" r="5.00" style="fill:black" />
<circle cx="190.00" cy="110.00" r="5.00" style="fill:rgb(127,0,0)" />
<circle cx="184.00" cy="10.00" r="5.00" style="fill:black" />
<circle cx="14.00" cy="36.00" r="5.00" style="fill:rgb(127,0,0)" />
<circle cx="199.00" cy="219.00" r="5.00" style="fill:black" />
<circle cx="110.00" cy="249.00" r="5.00" style="fill:rgb(127,0,0)" />
<circle cx="38.00" cy="222.00" r="5.00" style="fill:black" />
<circle cx="171.00" cy="85.00" r="5.00" style="fill:rgb(127,0,0)" />
<circle cx="108.00" cy="157.00" r="5.00" style="fill:black" />
<circle cx="85.00" cy="88.00" r="5.00" style="fill:rgb(127,0,0)" />
<circle cx="73.00" cy="34.00" r="5.00" style="fill:black" />
<circle cx="148.00" cy="63.00" r="5.00" style="fill:rgb(127,0,0)" />
<circle cx="157.00" cy="198.00" r="5.00" style="fill:black" />
<circle cx="117.00" cy="239.00" r="5.00" style="fill:rgb(127,0,0)" />
<circle cx="55.00" cy="174.00" r="5.00" style="fill:black" />
<circle cx="13.00" cy="123.00" r="5.00" style="fill:rgb(127,0,0)" />
<circle cx="132.00" cy="29.00" r="5.00" style="fill:black" />
<circle cx="247.00" cy="172.00" r="5.00" style="fill:rgb(127,0,0)" />
<circle cx="179.00" cy="128.00" r="5.00" style="fill:black" />
<circle cx="214.00" cy="50.00" r="5.00" style="fill:rgb(127,0,0)" />
<circle cx="79.00" cy="242.00" r="5.00" style="fill:black" />
<circle cx="203.00" cy="40.00" r="5.00" style="fill:rgb(127,0,0)" />
<circle cx="97.00" cy="200.00" r="5.00" style="fill:black" />
<circle cx="163.00" cy="59.00" r="5.00" style="fill:rgb(127,0,0)" />
<circle cx="97.00" cy="146.00" r="5.00" style="fill:black" />
<circle cx="171.00" cy="139.00" r="5.00" style="fill:rgb(127,0,0)" />
<circle cx="18.00" cy="178.00" r="5.00" style="fill:black" />
<circle cx="230.00" cy="200.00" r="5.00" style="fill:rgb(127,0,0)" />
<circle cx="53.00" cy="126.00" r="5.00" style="fill:black" />
<circle cx="159.00" cy="83.00" r="5.00" style="fill:rgb(127,0,0)" />
<circle cx="185.00" cy="133.00" r="5.00" style="fill:black" />
<circle cx="99.00" cy="52.00" r="5.00" style="fill:rgb(127,0,0)" />
<circle cx="0.00" cy="81.00" r="5.00" style="fill:black" />
<circle cx="135.00" cy="185.00" r="5.00" style="fill:rgb(127,0,0)" />
<circle cx="184.00" cy="202.00" r="5.00" style="fill:black" />
<circle cx="32.00" cy="182.00" r="5.00" style="fill:rgb(127,0,0)" />
<circle cx="104.00" cy="236.00" r="5.00" style="fill:black" />
<circle cx="208.00" cy="21.00" r="5.00" style="fill:rgb(127,0,0)" />
<circle cx="204.00" cy="34.00" r="5.00" style="fill:black" />
<circle cx="0.00" cy="221.00" r="5.00" style="fill:rgb(127,0,0)" />
<circle cx="53.00" cy="188.00" r="5.00" style="fill:black" />
<circle cx="79.00" cy="140.00" r="5.00" style="fill:rgb(127,0,0)" />
<circle cx="137.00" cy="213.00" r="5.00" style="fill:black" />
<circle cx="142.00" cy="23.00" r="5.00" style="fill:rgb(127,0,0)" />
<circle cx="159.00" cy="106.00" r="5.00" style="fill:black" />
<circle cx="85.00" cy="24.00" r="5.00" style="fill:rgb(127,0,0)" />
<circle cx="52.00" cy="206.00" r="5.00" style="fill:black" />
<circle cx="176.00" cy="64.00" r="5.00" style="fill:rgb(127,0,0)" />
<circle cx="5.00" cy="106.00" r="5.00" style="fill:black" />
<circle cx="185.00" cy="66.00" r="5.00" style="fill:rgb(127,0,0)" />
<circle cx="218.00" cy="86.00" r="5.00" style="fill:black" />
<circle cx="114.00" cy="91.00" r="5.00" style="fill:rgb(127,0,0)" />
<circle cx="203.00" cy="83.00" r="5.00" style="fill:black" />
<circle cx="118.00" cy="227.00" r="5.00" style="fill:rgb(127,0,0)" />
<circle cx="151.00" cy="98.00" r="5.00" style="fill:black" />
<circle cx="155.00" cy="98.00" r="5.00" style="fill:rgb(127,0,0)" />
<circle cx="120.00" cy="43.00" r="5.00" style="fill:black" />
<circle cx="84.00" cy="26.00" r="5.00" style="fill:rgb(127,0,0)" />
<circle cx="115.00" cy="116.00" r="5.00" style="fill:black" />
<circle cx="208.00" cy="0.00" r="5.00" style="fill:rgb(127,0,0)" />
<circle cx="73.00" cy="247.00" r="5.00" style="fill:black" />
<circle cx="243.00" cy="107.00" r="5.00" style="fill:rgb(127,0,0)" />
<circle cx="252.00" cy="168.00" r="5.00" style="fill:black" />
<circle cx="145.00" cy="34.00" r="5.00" style="fill:rgb(127,0,0)" />
<circle cx="2.00" cy="194.00" r="5.00" style="fill:black" />
<circle cx="0.00" cy="39.00" r="5.00" style="fill:rgb(127,0,0)" />
<circle cx="250.00" cy="28.00" r="5.00" style="fill:black" />
<circle cx="81.00" cy="11.00" r="5.00" style="fill:rgb(127,0,0)" />
<circle cx="100.00" cy="37.00" r="5.00" style="fill:black" />
<circle cx="53.00" cy="127.00" r="5.00" style="fill:rgb(127,0,0)" />
<circle cx="11.00" cy="1.00" r="5.00" style="fill:black" />
<circle cx="55.00" cy="219.00" r="5.00" style="fill:rgb(127,0,0)" />
<circle cx="155.00" cy="211.00" r="5.00" style="fill:black" />
<circle cx="66.00" cy="94.00" r="5.00" style="fill:rgb(127,0,0)" />
<circle cx="68.00" cy="118.00" r="5.00" style="fill:black" />
<circle cx="120.00" cy="154.00" r="5.00" style="fill:rgb(127,0,0)" />
<circle cx="2.00" cy="150.00" r="5.00" style="fill:black" />
<circle cx="58.00" cy="145.00" r="5.00" style="fill:rgb(127,0,0)" />
<circle cx="246.00" cy="39.00" r="5.00" style="fill:black" />
<circle cx="59.00" cy="101.00" r="5.00" style="fill:rgb(127,0,0)" />
<circle cx="42.00" cy="99.00" r="5.00" style="fill:black" />
<circle cx="90.00" cy="171.00" r="5.00" style="fill:rgb(127,0,0)" />
<circle cx="143.00" cy="139.00" r="5.00" style="fill:black" />
<circle cx="30.00" cy="107.00" r="5.00" style="fill:rgb(127,0,0)" />
<circle cx="103.00" cy="237.00" r="5.00" style="fill:black" />
<circle cx="159.00" cy="184.00" r="5.00" style="fill:rgb(127,0,0)" />
<circle cx="122.00" cy="191.00" r="5.00" style="fill:black" />
<circle cx="144.00" cy="192.00" r="5.00" style="fill:rgb(127,0,0)" />
<circle cx="14.00" cy="126.00" r="5.00" style="fill:black" />
<circle cx="205.00" cy="114.00" r="5.00" style="fill:rgb(127,0,0)" />
<circle cx="10.00" cy="214.00" r="5.00" style="fill:black" />
<circle cx="154.00" cy="96.00" r="5.00" style="fill:rgb(127,0,0)" />
<circle cx="3.00" cy="72.00" r="5.00" style="fill:black" />
<circle cx="226.00" cy="229.00" r="5.00" style="fill:rgb(127,0,0)" />
<circle cx="102.00" cy="209.00" r="5.00" style="fill:black" />
<circle cx="220.00" cy="66.00" r="5.00" style="fill:rgb(127,0,0)" />
<circle cx="113.00" cy="66.00" r="5.00" style="fill:black" />
<circle cx="182.00" cy="169.00" r="5.00" style="fill:rgb(127,0,0)" />
<circle cx="85.00" cy="96.00" r="5.00" style="fill:black" />
<circle cx="212.00" cy="224.00" r="5.00" style="fill:rgb(127,0,0)" />
<circle cx="92.00" cy="46.00" r="5.00" style="fill:black" />
<circle cx="29.00" cy="83.00" r="5.00" style="fill:rgb(127,0,0)" />
<circle cx="197.00" cy="42.00" r="5.00" style="fill:black" />
<circle cx="64.00" cy="73.00" r="5.00" style="fill:rgb(127,0,0)" />
<circle cx="30.00" cy="107.00" r="5.00" style="fill:black" />
<circle cx="58.00" cy="111.00" r="5.00" style="fill:rgb(127,0,0)" />
<circle cx="131.00" cy="245.00" r="5.00" style="fill:black" />
<circle cx="183.00" cy="127.00" r="5.00" style="fill:rgb(127,0,0)" />
<circle cx="90.00" cy="3.00" r="5.00" style="fill:black" />
<circle cx="56.00" cy="67.00" r="5.00" style="fill:rgb(127,0,0)" />
<circle cx="94.00" cy="126.00" r="5.00" style="fill:black" />
<circle cx="200.00" cy="70.00" r="5.00" style="fill:rgb(127,0,0)" />
<circle cx="76.00" cy="5.00" r="5.00" style="fill:black" />
<circle cx="84.00" cy="236.00" r="5.00" style="fill:rgb(127,0,0)" />
<circle cx="129.00" cy="24.00" r="5.00" style="fill:black" />
<circle cx="231.00" cy="228.00" r="5.00" style="fill:rgb(127,0,0)" />
<circle cx="5.00" cy="26.00" r="5.00" style="fill:black" />
<circle cx="79.00" cy="20.00" r="5.00" style="fill:rgb(127,0,0)" />
<circle cx="128.00" cy="21.00" r="5.00" style="fill:black" />
<circle cx="15.00" cy="242.00" r="5.00" style="fill:rgb(127,0,0)" />
<circle cx="10.00" cy="132.00" r="5.00" style="fill:black" />
<circle cx="150.00" cy="227.00" r="5.00" style="fill:rgb(127,0,0)" />
<circle cx="92.00" cy="31.00" r="5.00" style="fill:black" />
<circle cx="140.00" cy="155.00" r="5.00" style="fill:rgb(127,0,0)" />
<circle cx="94.00" cy="79.00" r="5.00" style="fill:black" />
<circle cx="109.00" cy="110.00" r="5.00" style="fill:rgb(127,0,0)" />
<circle cx="146.00" cy="220.00" r="5.00" style="fill:black" />
<circle cx="37.00" cy="235.00" r="5.00" style="fill:rgb(127,0,0)" />
<circle cx="47.00" cy="160.00" r="5.00" style="fill:black" />
<circle cx="221.00" cy="73.00" r="5.00" style="fill:rgb(127,0,0)" />
<circle cx="124.00" cy="78.00" r="5.00" style="fill:black" />
<circle cx="84.00" cy="24.00" r="5.00" style="fill:rgb(127,0,0)" />
<circle cx="82.00" cy="242.00" r="5.00" style="fill:black" />
<circle cx="162.00" cy="18.00" r="5.00" style="fill:rgb(127,0,0)" />
<circle cx="187.00" cy="40.00" r="5.00" style="fill:black" />
<circle cx="200.00" cy="197.00" r="5.00" style="fill:rgb(127,0,0)" />
<circle cx="99.00" cy="226.00" r="5.00" style="fill:black" />
<circle cx="199.00" cy="110.00" r="5.00" style="fill:rgb(127,0,0)" />
<circle cx="220.00" cy="144.00" r="5.00" style="fill:black" />
<circle cx="119.00" cy="46.00" r="5.00" style="fill:rgb(127,0,0)" />
<circle cx="231.00" cy="178.00" r="5.00" style="fill:black" />
<circle cx="17.00" cy="133.00" r="5.00" style="fill:rgb(127,0,0)" />
<circle cx="48.00" cy="217.00" r="5.00" style="fill:black" />
<circle cx="34.00" cy="31.00" r="5.00" style="fill:rgb(127,0,0)" />
<circle cx="156.00" cy="107.00" r="5.00" style="fill:black" />
<circle cx="45.00" cy="245.00" r="5.00" style="fill:rgb(127,0,0)" />
<circle cx="77.00" cy="63.00" r="5.00" style="fill:black" />
<circle cx="51.00" cy="125.00" r="5.00" style="fill:rgb(127,0,0)" />
<circle cx="74.00" cy="14.00" r="5.00" style="fill:black" />
<circle cx="177.00" cy="176.00" r="5.00" style="fill:rgb(127,0,0)" />
<circle cx="179.00" cy="236.00" r="5.00" style="fill:black" />
<circle cx="217.00" cy="45.00" r="5.00" style="fill:rgb(127,0,0)" />
<circle cx="165.00" cy="123.00" r="5.00" style="fill:black" />
<circle cx="161.00" cy="239.00" r="5.00" style="fill:rgb(127,0,0)" />
<circle cx="255.00" cy="57.00" r="5.00" style="fill:black" />
<circle cx="81.00" cy="110.00" r="5.00" style="fill:rgb(127,0,0)" />
<circle cx="111.00" cy="173.00" r="5.00" style="fill:black" />
<circle cx="69.00" cy="82.00" r="5.00" style="fill:rgb(127,0,0)" />
<circle cx="141.00" cy="224.00" r="5.00" style="fill:black" />
<circle cx="53.00" cy="222.00" r="5.00" style="fill:rgb(127,0,0)" />
<circle cx="159.00" cy="92.00" r="5.00" style="fill:black" />
<circle cx="193.00" cy="141.00" r="5.00" style="fill:rgb(127,0,0)" />
<circle cx="118.00" cy="219.00" r="5.00" style="fill:black" />
<circle cx="17.00" cy="67.00" r="5.00" style="fill:rgb(127,0,0)" />
<circle cx="121.00" cy="105.00" r="5.00" style="fill:black" />
<circle cx="9.00" cy="11.00" r="5.00" style="fill:rgb(127,0,0)" />
<circle cx="11.00" cy="149.00" r="5.00" style="fill:black" />
<circle cx="221.00" cy="88.00" r="5.00" style="fill:rgb(127,0,0)" />
<circle cx="25.00" cy="92.00" r="5.00" style="fill:black" />
<circle cx="226.00" cy="66.00" r="5.00" style="fill:rgb(127,0,0)" />
<circle cx="197.00" cy="102.00" r="5.00" style="fill:black" />
<circle cx="79.00" cy="25.00" r="5.00" style="fill:rgb(127,0,0)" />
<circle cx="179.00" cy="163.00" r="5.00" style="fill:black" />
<circle cx="222.00" cy="61.00" r="5.00" style="fill:rgb(127,0,0)" />
<circle cx="25.00" cy="163.00" r="5.00" style="fill:black" />
<circle cx="243.00" cy="108.00" r="5.00" style="fill:rgb(127,0,0)" />
<circle cx="124.00" cy="120.00" r="5.00" style="fill:black" />
<circle cx="194.00" cy="79.00" r="5.00" style="fill:rgb(127,0,0)" />
<circle cx="219.00" cy="91.00" r="5.00" style="fill:black" />
<circle cx="18.00" cy="193.00" r="5.00" style="fill:rgb(127,0,0)" />
<circle cx="100.00" cy="133.00" r="5.00" style="fill:black" />
<circle cx="44.00" cy="228.00" r="5.00" style="fill:rgb(127,0,0)" />
<circle cx="36.00" cy="20.00" r="5.00" style="fill:black" />
<circle cx="210.00" cy="184.00" r="5.00" style="fill:rgb(127,0,0)" />
<circle cx="91.00" cy="45.00" r="5.00" style="fill:black" />
<circle cx="38.00" cy="82.00" r="5.00" style="fill:rgb(127,0,0)" />
<circle cx="171.00" cy="5.00" r="5.00" style="fill:black" />
<circle cx="44.00" cy="252.00" r="5.00" style="fill:rgb(127,0,0)" />
<circle cx="12.00" cy="247.00" r="5.00" style="fill:black" />
<circle cx="173.00" cy="6.00" r="5.00" style="fill:rgb(127,0,0)" />
<circle cx="94.00" cy="39.00" r="5.00" style="fill:black" />
<circle cx="83.00" cy="3.00" r="5.00" style="fill:rgb(127,0,0)" />
<circle cx="59.00" cy="224.00" r="5.00" style="fill:black" />
<circle cx="167.00" cy="150.00" r="5.00" style="fill:rgb(127,0,0)" />
<circle cx="133.00" cy="91.00" r="5.00" style="fill:black" />
<circle cx="201.00" cy="107.00" r="5.00" style="fill:rgb(127,0,0)" />
<circle cx="83.00" cy="10.00" r="5.00" style="fill:black" />
<circle cx="138.00" cy="23.00" r="5.00" style="fill:rgb(127,0,0)" />
<circle cx="211.00" cy="64.00" r="5.00" style="fill:black" />
<circle cx="228.00" cy="15.00" r="5.00" style="fill:rgb(127,0,0)" />
<circle cx="103.00" cy="76.00" r="5.00" style="fill:black" />
<circle cx="62.00" cy="241.00" r="5.00" style="fill:rgb(127,0,0)" />
<circle cx="251.00" cy="160.00" r="5.00" style="fill:black" />
<circle cx="163.00" cy="74.00" r="5.00" style="fill:rgb(127,0,0)" />
<circle cx="84.00" cy="64.00" r="5.00" style="fill:black" />
<circle cx="245.00" cy="168.00" r="5.00" style="fill:rgb(127,0,0)" />
<circle cx="4.00" cy="142.00" r="5.00" style="fill:black" />
<circle cx="17.00" cy="201.00" r="5.00" style="fill:rgb(127,0,0)" />
<circle cx="184.00" cy="181.00" r="5.00" style="fill:black" />
<circle cx="252.00" cy="177.00" r="5.00" style="fill:rgb(127,0,0)" />
<circle cx="218.00" cy="158.00" r="5.00" style="fill:black" />
<circle cx="10.00" cy="32.00" r="5.00" style="fill:rgb(127,0,0)" />
<circle cx="227.00" cy="50.00" r="5.00" style="fill:black" />
<circle cx="72.00" cy="207.00" r="5.00" style="fill:rgb(127,0,0)" />
<circle cx="174.00" cy="196.00" r="5.00" style="fill:black" />
<circle cx="215.00" cy="103.00" r="5.00" style="fill:rgb(127,0,0)" />
<circle cx="136.00" cy="176.00" r="5.00" style="fill:black" />
<circle cx="60.00" cy="155.00" r="5.00" style="fill:rgb(127,0,0)" />
<circle cx="89.00" cy="184.00" r="5.00" style="fill:black" />
<circle cx="184.00" cy="243.00" r="5.00" style="fill:rgb(127,0,0)" />
<circle cx="45.00" cy="241.00" r="5.00" style="fill:black" />
<circle cx="181.00" cy="56.00" r="5.00" style="fill:rgb(127,0,0)" />
<circle cx="69.00" cy="149.00" r="5.00" style="fill:black" />
<circle cx="209.00" cy="4.00" r="5.00" style="fill:rgb(127,0,0)" />
<circle cx="220.00" cy="142.00" r="5.00" style="fill:black" />
</g>
<desc>Legends</desc>
<g style="text-anchor:middle; font-size:18; font-family:sans-serif">
<text x="128.00" y="280.00"  >Go rand package</text>
<text x="384.00" y="280.00" >/dev/urandom</text>
<text x="256.00" y="280.00" style="font-size:12" >n=256</text>
</g>
</svg>
