<?xml version="1.0"?>
<!-- Generated by SVGo (float) -->
<svg width="500.00" height="500.00"
     xmlns="http://www.w3.org/2000/svg"
     xmlns:xlink="http://www.w3.org/1999/xlink">
<title>Android</title>
<rect x="0.00" y="0.00" width="500.00" height="500.00" style="fill:rgb(255,255,255)" />
<g style="fill:rgb(164,198,57);opacity:1.00">
<path d="M130.00,170.00 A35.00,35.00 0.00 0 1 230.00,170.00" />
<line x1="160.00" y1="125.00" x2="150.00" y2="110.00" stroke="rgb(164,198,57)" stroke-linecap="round" stroke-width="5" />
<line x1="200.00" y1="125.00" x2="210.00" y2="110.00" stroke="rgb(164,198,57)" stroke-linecap="round" stroke-width="5" />
<circle cx="160.00" cy="145.00" r="5.00" style="fill:white" />
<circle cx="200.00" cy="145.00" r="5.00" fill="white" />
<rect x="130.00" y="175.00" width="100.00" height="90.00" rx="10.00" ry="10.00" />
<rect x="130.00" y="175.00" width="100.00" height="80.00" />
<rect x="105.00" y="180.00" width="20.00" height="70.00" rx="10.00" ry="10.00" />
<rect x="235.00" y="180.00" width="20.00" height="70.00" rx="10.00" ry="10.00" />
<rect x="150.00" y="250.00" width="20.00" height="50.00" rx="10.00" ry="10.00" />
<rect x="190.00" y="250.00" width="20.00" height="50.00" rx="10.00" ry="10.00" />
</g>
<g transform="scale(3)">
<g style="fill:gray;opacity:0.50">
<path d="M80.00,120.00 A35.00,35.00 0.00 0 1 180.00,120.00" />
<line x1="110.00" y1="75.00" x2="100.00" y2="60.00" stroke="gray" stroke-linecap="round" stroke-width="5" />
<line x1="150.00" y1="75.00" x2="160.00" y2="60.00" stroke="gray" stroke-linecap="round" stroke-width="5" />
<circle cx="110.00" cy="95.00" r="5.00" style="fill:white" />
<circle cx="150.00" cy="95.00" r="5.00" fill="white" />
<rect x="80.00" y="125.00" width="100.00" height="90.00" rx="10.00" ry="10.00" />
<rect x="80.00" y="125.00" width="100.00" height="80.00" />
<rect x="55.00" y="130.00" width="20.00" height="70.00" rx="10.00" ry="10.00" />
<rect x="185.00" y="130.00" width="20.00" height="70.00" rx="10.00" ry="10.00" />
<rect x="100.00" y="200.00" width="20.00" height="50.00" rx="10.00" ry="10.00" />
<rect x="140.00" y="200.00" width="20.00" height="50.00" rx="10.00" ry="10.00" />
</g>
</g>
<g transform="scale(0.5)">
<g style="fill:red;opacity:1.00">
<path d="M130.00,170.00 A35.00,35.00 0.00 0 1 230.00,170.00" />
<line x1="160.00" y1="125.00" x2="150.00" y2="110.00" stroke="red" stroke-linecap="round" stroke-width="5" />
<line x1="200.00" y1="125.00" x2="210.00" y2="110.00" stroke="red" stroke-linecap="round" stroke-width="5" />
<circle cx="160.00" cy="145.00" r="5.00" style="fill:white" />
<circle cx="200.00" cy="145.00" r="5.00" fill="white" />
<rect x="130.00" y="175.00" width="100.00" height="90.00" rx="10.00" ry="10.00" />
<rect x="130.00" y="175.00" width="100.00" height="80.00" />
<rect x="105.00" y="180.00" width="20.00" height="70.00" rx="10.00" ry="10.00" />
<rect x="235.00" y="180.00" width="20.00" height="70.00" rx="10.00" ry="10.00" />
<rect x="150.00" y="250.00" width="20.00" height="50.00" rx="10.00" ry="10.00" />
<rect x="190.00" y="250.00" width="20.00" height="50.00" rx="10.00" ry="10.00" />
</g>
</g>
</svg>
