<?xml version="1.0"?>
<!-- Generated by SVGo (float) -->
<svg width="500.00" height="300.00"
     xmlns="http://www.w3.org/2000/svg"
     xmlns:xlink="http://www.w3.org/1999/xlink">
<title>SVG Gopher</title>
<rect x="0.00" y="0.00" width="500.00" height="300.00" style="fill:rgb(255,255,255)" />
<g transform="translate(100, 100)">
<g transform="rotate(-30)">
<g style="fill:none; stroke:none">
<path d="M48.00,120.00 C48.00,120.00 168.00,-24.00 288.00,120.00" style="fill:rgb(210,161,161)" />
<rect x="48.00" y="119.00" width="240.00" height="72.00" rx="10.00" ry="10.00" style="fill:rgb(210,161,161)" />
<circle cx="48.00" cy="120.00" r="20.00" style="fill:brown; fill-opacity:0.2" />
<circle cx="48.00" cy="120.00" r="10.00" style="fill:brown" />
<circle cx="288.00" cy="120.00" r="20.00" style="fill:brown; fill-opacity:0.2" />
<circle cx="288.00" cy="120.00" r="10.00" style="fill:brown" />
<circle cx="128.00" cy="96.00" r="26.67" style="fill:white" />
<circle cx="138.00" cy="96.00" r="14.00" style="fill:black" />
<circle cx="143.00" cy="96.00" r="5.00" style="fill:white" />
<circle cx="208.00" cy="96.00" r="26.67" style="fill:white" />
<circle cx="218.00" cy="96.00" r="14.00" style="fill:black" />
<circle cx="223.00" cy="96.00" r="5.00" style="fill:white" />
<rect x="138.00" y="150.00" width="30.00" height="40.00" rx="5.00" ry="5.00" style="fill:white" />
<rect x="168.00" y="150.00" width="30.00" height="40.00" rx="5.00" ry="5.00" style="fill:white" />
<ellipse cx="168.00" cy="150.00" rx="40.00" ry="20.00" style="fill:brown" />
<ellipse cx="168.00" cy="130.00" rx="24.00" ry="20.00" style="fill:black" />
</g>
</g>
</g>
<a xlink:href="svgdef.svg" xlink:title="SVG Spec &amp; Usage">
<text x="90.00" y="145.00" style="font-family:Calibri,sans-serif;font-size:80;fill:brown" >SVG</text>
</a>
</svg>
