<?xml version="1.0"?>
<!-- Generated by SVGo (float) -->
<svg width="600.00" height="600.00"
     xmlns="http://www.w3.org/2000/svg"
     xmlns:xlink="http://www.w3.org/1999/xlink">
<rect x="0.00" y="0.00" width="600.00" height="600.00" style="fill:rgb(209,150,234)" />
<polygon points="60.00,60.00 120.00,100.00 60.00,140.00 0.00,100.00 60.00,60.00" style="fill:rgb(151,174,216)" />
<polygon points="0.00,100.00 60.00,140.00 60.00,220.00 0.00,180.00 0.00,100.00" style="fill:rgb(194,95,234)" />
<polygon points="120.00,100.00 120.00,180.00 60.00,220.00 60.00,140.00 120.00,100.00" style="fill:rgb(194,111,120)" />
<polygon points="180.00,60.00 240.00,100.00 180.00,140.00 120.00,100.00 180.00,60.00" style="fill:rgb(126,185,21)" />
<polygon points="120.00,100.00 180.00,140.00 180.00,220.00 120.00,180.00 120.00,100.00" style="fill:rgb(66,208,110)" />
<polygon points="240.00,100.00 240.00,180.00 180.00,220.00 180.00,140.00 240.00,100.00" style="fill:rgb(117,121,42)" />
<polygon points="300.00,60.00 360.00,100.00 300.00,140.00 240.00,100.00 300.00,60.00" style="fill:rgb(115,167,92)" />
<polygon points="240.00,100.00 300.00,140.00 300.00,220.00 240.00,180.00 240.00,100.00" style="fill:rgb(120,64,51)" />
<polygon points="360.00,100.00 360.00,180.00 300.00,220.00 300.00,140.00 360.00,100.00" style="fill:rgb(164,144,189)" />
<polygon points="420.00,60.00 480.00,100.00 420.00,140.00 360.00,100.00 420.00,60.00" style="fill:rgb(207,167,47)" />
<polygon points="360.00,100.00 420.00,140.00 420.00,220.00 360.00,180.00 360.00,100.00" style="fill:rgb(100,101,155)" />
<polygon points="480.00,100.00 480.00,180.00 420.00,220.00 420.00,140.00 480.00,100.00" style="fill:rgb(176,136,183)" />
<polygon points="540.00,60.00 600.00,100.00 540.00,140.00 480.00,100.00 540.00,60.00" style="fill:rgb(41,193,114)" />
<polygon points="480.00,100.00 540.00,140.00 540.00,220.00 480.00,180.00 480.00,100.00" style="fill:rgb(157,112,233)" />
<polygon points="600.00,100.00 600.00,180.00 540.00,220.00 540.00,140.00 600.00,100.00" style="fill:rgb(215,238,190)" />
<polygon points="60.00,220.00 120.00,260.00 60.00,300.00 0.00,260.00 60.00,220.00" style="fill:rgb(227,170,243)" />
<polygon points="0.00,260.00 60.00,300.00 60.00,380.00 0.00,340.00 0.00,260.00" style="fill:rgb(132,31,25)" />
<polygon points="120.00,260.00 120.00,340.00 60.00,380.00 60.00,300.00 120.00,260.00" style="fill:rgb(91,66,158)" />
<polygon points="180.00,220.00 240.00,260.00 180.00,300.00 120.00,260.00 180.00,220.00" style="fill:rgb(43,225,3)" />
<polygon points="120.00,260.00 180.00,300.00 180.00,380.00 120.00,340.00 120.00,260.00" style="fill:rgb(168,16,190)" />
<polygon points="240.00,260.00 240.00,340.00 180.00,380.00 180.00,300.00 240.00,260.00" style="fill:rgb(73,241,186)" />
<polygon points="300.00,220.00 360.00,260.00 300.00,300.00 240.00,260.00 300.00,220.00" style="fill:rgb(194,87,100)" />
<polygon points="240.00,260.00 300.00,300.00 300.00,380.00 240.00,340.00 240.00,260.00" style="fill:rgb(4,185,161)" />
<polygon points="360.00,260.00 360.00,340.00 300.00,380.00 300.00,300.00 360.00,260.00" style="fill:rgb(10,203,145)" />
<polygon points="420.00,220.00 480.00,260.00 420.00,300.00 360.00,260.00 420.00,220.00" style="fill:rgb(16,36,94)" />
<polygon points="360.00,260.00 420.00,300.00 420.00,380.00 360.00,340.00 360.00,260.00" style="fill:rgb(118,217,96)" />
<polygon points="480.00,260.00 480.00,340.00 420.00,380.00 420.00,300.00 480.00,260.00" style="fill:rgb(210,7,0)" />
<polygon points="540.00,220.00 600.00,260.00 540.00,300.00 480.00,260.00 540.00,220.00" style="fill:rgb(227,211,82)" />
<polygon points="480.00,260.00 540.00,300.00 540.00,380.00 480.00,340.00 480.00,260.00" style="fill:rgb(158,55,131)" />
<polygon points="600.00,260.00 600.00,340.00 540.00,380.00 540.00,300.00 600.00,260.00" style="fill:rgb(219,24,237)" />
<polygon points="60.00,380.00 120.00,420.00 60.00,460.00 0.00,420.00 60.00,380.00" style="fill:rgb(97,173,255)" />
<polygon points="0.00,420.00 60.00,460.00 60.00,540.00 0.00,500.00 0.00,420.00" style="fill:rgb(119,186,168)" />
<polygon points="120.00,420.00 120.00,500.00 60.00,540.00 60.00,460.00 120.00,420.00" style="fill:rgb(23,151,82)" />
<polygon points="180.00,380.00 240.00,420.00 180.00,460.00 120.00,420.00 180.00,380.00" style="fill:rgb(197,221,169)" />
<polygon points="120.00,420.00 180.00,460.00 180.00,540.00 120.00,500.00 120.00,420.00" style="fill:rgb(140,98,90)" />
<polygon points="240.00,420.00 240.00,500.00 180.00,540.00 180.00,460.00 240.00,420.00" style="fill:rgb(81,108,234)" />
<polygon points="300.00,380.00 360.00,420.00 300.00,460.00 240.00,420.00 300.00,380.00" style="fill:rgb(147,197,189)" />
<polygon points="240.00,420.00 300.00,460.00 300.00,540.00 240.00,500.00 240.00,420.00" style="fill:rgb(193,213,115)" />
<polygon points="360.00,420.00 360.00,500.00 300.00,540.00 300.00,460.00 360.00,420.00" style="fill:rgb(49,23,164)" />
<polygon points="420.00,380.00 480.00,420.00 420.00,460.00 360.00,420.00 420.00,380.00" style="fill:rgb(219,144,155)" />
<polygon points="360.00,420.00 420.00,460.00 420.00,540.00 360.00,500.00 360.00,420.00" style="fill:rgb(125,143,188)" />
<polygon points="480.00,420.00 480.00,500.00 420.00,540.00 420.00,460.00 480.00,420.00" style="fill:rgb(81,108,243)" />
<polygon points="540.00,380.00 600.00,420.00 540.00,460.00 480.00,420.00 540.00,380.00" style="fill:rgb(165,52,92)" />
<polygon points="480.00,420.00 540.00,460.00 540.00,540.00 480.00,500.00 480.00,420.00" style="fill:rgb(30,145,54)" />
<polygon points="600.00,420.00 600.00,500.00 540.00,540.00 540.00,460.00 600.00,420.00" style="fill:rgb(141,88,88)" />
</svg>
