<?xml version="1.0"?>
<!-- Generated by SVGo (float) -->
<svg width="700.00" height="400.00"
     xmlns="http://www.w3.org/2000/svg"
     xmlns:xlink="http://www.w3.org/1999/xlink">
<title>Richter</title>
<rect x="0.00" y="0.00" width="700.00" height="400.00" style="fill:white" />
<rect x="57.00" y="20.00" width="32.00" height="18.00" style="fill:rgb(220,231,146)" />
<rect x="57.00" y="43.00" width="32.00" height="18.00" style="fill:rgb(215,167,185)" />
<rect x="57.00" y="66.00" width="32.00" height="18.00" style="fill:rgb(89,109,103)" />
<rect x="57.00" y="89.00" width="32.00" height="18.00" style="fill:rgb(74,167,3)" />
<rect x="57.00" y="112.00" width="32.00" height="18.00" style="fill:rgb(98,193,223)" />
<rect x="57.00" y="135.00" width="32.00" height="18.00" style="fill:rgb(148,45,236)" />
<rect x="57.00" y="158.00" width="32.00" height="18.00" style="fill:rgb(86,178,102)" />
<rect x="57.00" y="181.00" width="32.00" height="18.00" style="fill:rgb(230,169,38)" />
<rect x="57.00" y="204.00" width="32.00" height="18.00" style="fill:rgb(12,20,8)" />
<rect x="57.00" y="227.00" width="32.00" height="18.00" style="fill:rgb(223,82,159)" />
<rect x="57.00" y="250.00" width="32.00" height="18.00" style="fill:rgb(143,144,201)" />
<rect x="57.00" y="273.00" width="32.00" height="18.00" style="fill:rgb(31,153,235)" />
<rect x="57.00" y="296.00" width="32.00" height="18.00" style="fill:rgb(141,253,220)" />
<rect x="57.00" y="319.00" width="32.00" height="18.00" style="fill:rgb(4,155,222)" />
<rect x="57.00" y="342.00" width="32.00" height="18.00" style="fill:rgb(225,148,214)" />
<rect x="57.00" y="365.00" width="32.00" height="18.00" style="fill:rgb(193,166,23)" />
<rect x="94.00" y="20.00" width="32.00" height="18.00" style="fill:rgb(38,245,156)" />
<rect x="94.00" y="43.00" width="32.00" height="18.00" style="fill:rgb(148,0,56)" />
<rect x="94.00" y="66.00" width="32.00" height="18.00" style="fill:rgb(73,78,13)" />
<rect x="94.00" y="89.00" width="32.00" height="18.00" style="fill:rgb(39,26,123)" />
<rect x="94.00" y="112.00" width="32.00" height="18.00" style="fill:rgb(66,247,125)" />
<rect x="94.00" y="135.00" width="32.00" height="18.00" style="fill:rgb(231,39,38)" />
<rect x="94.00" y="158.00" width="32.00" height="18.00" style="fill:rgb(30,71,34)" />
<rect x="94.00" y="181.00" width="32.00" height="18.00" style="fill:rgb(111,211,206)" />
<rect x="94.00" y="204.00" width="32.00" height="18.00" style="fill:rgb(102,194,26)" />
<rect x="94.00" y="227.00" width="32.00" height="18.00" style="fill:rgb(34,105,178)" />
<rect x="94.00" y="250.00" width="32.00" height="18.00" style="fill:rgb(54,31,188)" />
<rect x="94.00" y="273.00" width="32.00" height="18.00" style="fill:rgb(179,48,110)" />
<rect x="94.00" y="296.00" width="32.00" height="18.00" style="fill:rgb(215,138,4)" />
<rect x="94.00" y="319.00" width="32.00" height="18.00" style="fill:rgb(241,6,174)" />
<rect x="94.00" y="342.00" width="32.00" height="18.00" style="fill:rgb(67,204,219)" />
<rect x="94.00" y="365.00" width="32.00" height="18.00" style="fill:rgb(38,24,18)" />
<rect x="131.00" y="20.00" width="32.00" height="18.00" style="fill:rgb(55,171,152)" />
<rect x="131.00" y="43.00" width="32.00" height="18.00" style="fill:rgb(99,94,185)" />
<rect x="131.00" y="66.00" width="32.00" height="18.00" style="fill:rgb(84,222,90)" />
<rect x="131.00" y="89.00" width="32.00" height="18.00" style="fill:rgb(115,217,165)" />
<rect x="131.00" y="112.00" width="32.00" height="18.00" style="fill:rgb(105,36,81)" />
<rect x="131.00" y="135.00" width="32.00" height="18.00" style="fill:rgb(250,216,8)" />
<rect x="131.00" y="158.00" width="32.00" height="18.00" style="fill:rgb(54,197,227)" />
<rect x="131.00" y="181.00" width="32.00" height="18.00" style="fill:rgb(179,132,75)" />
<rect x="131.00" y="204.00" width="32.00" height="18.00" style="fill:rgb(75,143,29)" />
<rect x="131.00" y="227.00" width="32.00" height="18.00" style="fill:rgb(168,230,120)" />
<rect x="131.00" y="250.00" width="32.00" height="18.00" style="fill:rgb(253,214,142)" />
<rect x="131.00" y="273.00" width="32.00" height="18.00" style="fill:rgb(160,58,51)" />
<rect x="131.00" y="296.00" width="32.00" height="18.00" style="fill:rgb(45,201,203)" />
<rect x="131.00" y="319.00" width="32.00" height="18.00" style="fill:rgb(110,78,43)" />
<rect x="131.00" y="342.00" width="32.00" height="18.00" style="fill:rgb(5,65,16)" />
<rect x="131.00" y="365.00" width="32.00" height="18.00" style="fill:rgb(198,120,19)" />
<rect x="168.00" y="20.00" width="32.00" height="18.00" style="fill:rgb(18,104,95)" />
<rect x="168.00" y="43.00" width="32.00" height="18.00" style="fill:rgb(45,143,29)" />
<rect x="168.00" y="66.00" width="32.00" height="18.00" style="fill:rgb(53,62,73)" />
<rect x="168.00" y="89.00" width="32.00" height="18.00" style="fill:rgb(174,68,38)" />
<rect x="168.00" y="112.00" width="32.00" height="18.00" style="fill:rgb(76,232,100)" />
<rect x="168.00" y="135.00" width="32.00" height="18.00" style="fill:rgb(48,117,194)" />
<rect x="168.00" y="158.00" width="32.00" height="18.00" style="fill:rgb(51,205,44)" />
<rect x="168.00" y="181.00" width="32.00" height="18.00" style="fill:rgb(195,137,169)" />
<rect x="168.00" y="204.00" width="32.00" height="18.00" style="fill:rgb(66,10,4)" />
<rect x="168.00" y="227.00" width="32.00" height="18.00" style="fill:rgb(52,199,234)" />
<rect x="168.00" y="250.00" width="32.00" height="18.00" style="fill:rgb(180,106,14)" />
<rect x="168.00" y="273.00" width="32.00" height="18.00" style="fill:rgb(224,1,52)" />
<rect x="168.00" y="296.00" width="32.00" height="18.00" style="fill:rgb(62,184,118)" />
<rect x="168.00" y="319.00" width="32.00" height="18.00" style="fill:rgb(160,66,177)" />
<rect x="168.00" y="342.00" width="32.00" height="18.00" style="fill:rgb(200,170,233)" />
<rect x="168.00" y="365.00" width="32.00" height="18.00" style="fill:rgb(253,4,6)" />
<rect x="205.00" y="20.00" width="32.00" height="18.00" style="fill:rgb(114,1,75)" />
<rect x="205.00" y="43.00" width="32.00" height="18.00" style="fill:rgb(54,46,142)" />
<rect x="205.00" y="66.00" width="32.00" height="18.00" style="fill:rgb(135,244,28)" />
<rect x="205.00" y="89.00" width="32.00" height="18.00" style="fill:rgb(137,206,34)" />
<rect x="205.00" y="112.00" width="32.00" height="18.00" style="fill:rgb(39,170,65)" />
<rect x="205.00" y="135.00" width="32.00" height="18.00" style="fill:rgb(92,75,218)" />
<rect x="205.00" y="158.00" width="32.00" height="18.00" style="fill:rgb(40,210,222)" />
<rect x="205.00" y="181.00" width="32.00" height="18.00" style="fill:rgb(71,249,144)" />
<rect x="205.00" y="204.00" width="32.00" height="18.00" style="fill:rgb(192,208,128)" />
<rect x="205.00" y="227.00" width="32.00" height="18.00" style="fill:rgb(190,19,165)" />
<rect x="205.00" y="250.00" width="32.00" height="18.00" style="fill:rgb(152,168,19)" />
<rect x="205.00" y="273.00" width="32.00" height="18.00" style="fill:rgb(28,156,174)" />
<rect x="205.00" y="296.00" width="32.00" height="18.00" style="fill:rgb(125,2,119)" />
<rect x="205.00" y="319.00" width="32.00" height="18.00" style="fill:rgb(60,157,87)" />
<rect x="205.00" y="342.00" width="32.00" height="18.00" style="fill:rgb(85,152,246)" />
<rect x="205.00" y="365.00" width="32.00" height="18.00" style="fill:rgb(84,220,131)" />
<rect x="242.00" y="20.00" width="32.00" height="18.00" style="fill:rgb(73,134,119)" />
<rect x="242.00" y="43.00" width="32.00" height="18.00" style="fill:rgb(200,245,208)" />
<rect x="242.00" y="66.00" width="32.00" height="18.00" style="fill:rgb(30,71,96)" />
<rect x="242.00" y="89.00" width="32.00" height="18.00" style="fill:rgb(229,169,124)" />
<rect x="242.00" y="112.00" width="32.00" height="18.00" style="fill:rgb(112,9,183)" />
<rect x="242.00" y="135.00" width="32.00" height="18.00" style="fill:rgb(37,88,223)" />
<rect x="242.00" y="158.00" width="32.00" height="18.00" style="fill:rgb(126,99,212)" />
<rect x="242.00" y="181.00" width="32.00" height="18.00" style="fill:rgb(135,167,207)" />
<rect x="242.00" y="204.00" width="32.00" height="18.00" style="fill:rgb(14,242,71)" />
<rect x="242.00" y="227.00" width="32.00" height="18.00" style="fill:rgb(147,187,121)" />
<rect x="242.00" y="250.00" width="32.00" height="18.00" style="fill:rgb(232,47,28)" />
<rect x="242.00" y="273.00" width="32.00" height="18.00" style="fill:rgb(124,125,154)" />
<rect x="242.00" y="296.00" width="32.00" height="18.00" style="fill:rgb(139,200,55)" />
<rect x="242.00" y="319.00" width="32.00" height="18.00" style="fill:rgb(141,0,213)" />
<rect x="242.00" y="342.00" width="32.00" height="18.00" style="fill:rgb(2,3,188)" />
<rect x="242.00" y="365.00" width="32.00" height="18.00" style="fill:rgb(89,37,126)" />
<rect x="279.00" y="20.00" width="32.00" height="18.00" style="fill:rgb(162,98,122)" />
<rect x="279.00" y="43.00" width="32.00" height="18.00" style="fill:rgb(147,152,9)" />
<rect x="279.00" y="66.00" width="32.00" height="18.00" style="fill:rgb(22,138,125)" />
<rect x="279.00" y="89.00" width="32.00" height="18.00" style="fill:rgb(34,39,111)" />
<rect x="279.00" y="112.00" width="32.00" height="18.00" style="fill:rgb(146,217,127)" />
<rect x="279.00" y="135.00" width="32.00" height="18.00" style="fill:rgb(194,147,97)" />
<rect x="279.00" y="158.00" width="32.00" height="18.00" style="fill:rgb(175,153,78)" />
<rect x="279.00" y="181.00" width="32.00" height="18.00" style="fill:rgb(55,7,157)" />
<rect x="279.00" y="204.00" width="32.00" height="18.00" style="fill:rgb(109,203,86)" />
<rect x="279.00" y="227.00" width="32.00" height="18.00" style="fill:rgb(93,118,81)" />
<rect x="279.00" y="250.00" width="32.00" height="18.00" style="fill:rgb(37,201,251)" />
<rect x="279.00" y="273.00" width="32.00" height="18.00" style="fill:rgb(205,217,65)" />
<rect x="279.00" y="296.00" width="32.00" height="18.00" style="fill:rgb(155,88,144)" />
<rect x="279.00" y="319.00" width="32.00" height="18.00" style="fill:rgb(103,121,105)" />
<rect x="279.00" y="342.00" width="32.00" height="18.00" style="fill:rgb(106,179,41)" />
<rect x="279.00" y="365.00" width="32.00" height="18.00" style="fill:rgb(125,71,128)" />
<rect x="316.00" y="20.00" width="32.00" height="18.00" style="fill:rgb(44,110,140)" />
<rect x="316.00" y="43.00" width="32.00" height="18.00" style="fill:rgb(232,90,35)" />
<rect x="316.00" y="66.00" width="32.00" height="18.00" style="fill:rgb(1,116,170)" />
<rect x="316.00" y="89.00" width="32.00" height="18.00" style="fill:rgb(188,9,77)" />
<rect x="316.00" y="112.00" width="32.00" height="18.00" style="fill:rgb(87,252,220)" />
<rect x="316.00" y="135.00" width="32.00" height="18.00" style="fill:rgb(142,244,124)" />
<rect x="316.00" y="158.00" width="32.00" height="18.00" style="fill:rgb(166,54,128)" />
<rect x="316.00" y="181.00" width="32.00" height="18.00" style="fill:rgb(143,43,48)" />
<rect x="316.00" y="204.00" width="32.00" height="18.00" style="fill:rgb(240,13,164)" />
<rect x="316.00" y="227.00" width="32.00" height="18.00" style="fill:rgb(205,4,36)" />
<rect x="316.00" y="250.00" width="32.00" height="18.00" style="fill:rgb(231,1,229)" />
<rect x="316.00" y="273.00" width="32.00" height="18.00" style="fill:rgb(245,237,200)" />
<rect x="316.00" y="296.00" width="32.00" height="18.00" style="fill:rgb(36,108,175)" />
<rect x="316.00" y="319.00" width="32.00" height="18.00" style="fill:rgb(141,56,223)" />
<rect x="316.00" y="342.00" width="32.00" height="18.00" style="fill:rgb(26,51,171)" />
<rect x="316.00" y="365.00" width="32.00" height="18.00" style="fill:rgb(248,78,199)" />
<rect x="353.00" y="20.00" width="32.00" height="18.00" style="fill:rgb(239,169,54)" />
<rect x="353.00" y="43.00" width="32.00" height="18.00" style="fill:rgb(242,111,80)" />
<rect x="353.00" y="66.00" width="32.00" height="18.00" style="fill:rgb(161,109,116)" />
<rect x="353.00" y="89.00" width="32.00" height="18.00" style="fill:rgb(208,75,154)" />
<rect x="353.00" y="112.00" width="32.00" height="18.00" style="fill:rgb(64,59,119)" />
<rect x="353.00" y="135.00" width="32.00" height="18.00" style="fill:rgb(81,120,16)" />
<rect x="353.00" y="158.00" width="32.00" height="18.00" style="fill:rgb(159,226,47)" />
<rect x="353.00" y="181.00" width="32.00" height="18.00" style="fill:rgb(139,161,226)" />
<rect x="353.00" y="204.00" width="32.00" height="18.00" style="fill:rgb(188,158,77)" />
<rect x="353.00" y="227.00" width="32.00" height="18.00" style="fill:rgb(179,145,8)" />
<rect x="353.00" y="250.00" width="32.00" height="18.00" style="fill:rgb(3,54,67)" />
<rect x="353.00" y="273.00" width="32.00" height="18.00" style="fill:rgb(246,215,49)" />
<rect x="353.00" y="296.00" width="32.00" height="18.00" style="fill:rgb(67,91,11)" />
<rect x="353.00" y="319.00" width="32.00" height="18.00" style="fill:rgb(186,145,8)" />
<rect x="353.00" y="342.00" width="32.00" height="18.00" style="fill:rgb(156,214,110)" />
<rect x="353.00" y="365.00" width="32.00" height="18.00" style="fill:rgb(5,119,245)" />
<rect x="390.00" y="20.00" width="32.00" height="18.00" style="fill:rgb(197,110,110)" />
<rect x="390.00" y="43.00" width="32.00" height="18.00" style="fill:rgb(207,217,100)" />
<rect x="390.00" y="66.00" width="32.00" height="18.00" style="fill:rgb(14,123,58)" />
<rect x="390.00" y="89.00" width="32.00" height="18.00" style="fill:rgb(253,196,45)" />
<rect x="390.00" y="112.00" width="32.00" height="18.00" style="fill:rgb(64,185,86)" />
<rect x="390.00" y="135.00" width="32.00" height="18.00" style="fill:rgb(70,31,116)" />
<rect x="390.00" y="158.00" width="32.00" height="18.00" style="fill:rgb(146,130,225)" />
<rect x="390.00" y="181.00" width="32.00" height="18.00" style="fill:rgb(227,166,112)" />
<rect x="390.00" y="204.00" width="32.00" height="18.00" style="fill:rgb(82,204,248)" />
<rect x="390.00" y="227.00" width="32.00" height="18.00" style="fill:rgb(197,156,254)" />
<rect x="390.00" y="250.00" width="32.00" height="18.00" style="fill:rgb(87,31,207)" />
<rect x="390.00" y="273.00" width="32.00" height="18.00" style="fill:rgb(188,254,52)" />
<rect x="390.00" y="296.00" width="32.00" height="18.00" style="fill:rgb(46,41,176)" />
<rect x="390.00" y="319.00" width="32.00" height="18.00" style="fill:rgb(73,26,216)" />
<rect x="390.00" y="342.00" width="32.00" height="18.00" style="fill:rgb(118,122,156)" />
<rect x="390.00" y="365.00" width="32.00" height="18.00" style="fill:rgb(55,71,154)" />
<rect x="427.00" y="20.00" width="32.00" height="18.00" style="fill:rgb(190,151,206)" />
<rect x="427.00" y="43.00" width="32.00" height="18.00" style="fill:rgb(80,159,11)" />
<rect x="427.00" y="66.00" width="32.00" height="18.00" style="fill:rgb(215,186,84)" />
<rect x="427.00" y="89.00" width="32.00" height="18.00" style="fill:rgb(235,133,184)" />
<rect x="427.00" y="112.00" width="32.00" height="18.00" style="fill:rgb(213,164,205)" />
<rect x="427.00" y="135.00" width="32.00" height="18.00" style="fill:rgb(235,119,196)" />
<rect x="427.00" y="158.00" width="32.00" height="18.00" style="fill:rgb(86,178,31)" />
<rect x="427.00" y="181.00" width="32.00" height="18.00" style="fill:rgb(24,77,182)" />
<rect x="427.00" y="204.00" width="32.00" height="18.00" style="fill:rgb(204,131,171)" />
<rect x="427.00" y="227.00" width="32.00" height="18.00" style="fill:rgb(98,56,181)" />
<rect x="427.00" y="250.00" width="32.00" height="18.00" style="fill:rgb(151,181,184)" />
<rect x="427.00" y="273.00" width="32.00" height="18.00" style="fill:rgb(26,21,251)" />
<rect x="427.00" y="296.00" width="32.00" height="18.00" style="fill:rgb(69,228,96)" />
<rect x="427.00" y="319.00" width="32.00" height="18.00" style="fill:rgb(83,4,105)" />
<rect x="427.00" y="342.00" width="32.00" height="18.00" style="fill:rgb(110,93,97)" />
<rect x="427.00" y="365.00" width="32.00" height="18.00" style="fill:rgb(2,8,223)" />
<rect x="464.00" y="20.00" width="32.00" height="18.00" style="fill:rgb(204,185,41)" />
<rect x="464.00" y="43.00" width="32.00" height="18.00" style="fill:rgb(118,134,102)" />
<rect x="464.00" y="66.00" width="32.00" height="18.00" style="fill:rgb(152,16,145)" />
<rect x="464.00" y="89.00" width="32.00" height="18.00" style="fill:rgb(168,245,111)" />
<rect x="464.00" y="112.00" width="32.00" height="18.00" style="fill:rgb(230,236,146)" />
<rect x="464.00" y="135.00" width="32.00" height="18.00" style="fill:rgb(54,13,195)" />
<rect x="464.00" y="158.00" width="32.00" height="18.00" style="fill:rgb(38,147,168)" />
<rect x="464.00" y="181.00" width="32.00" height="18.00" style="fill:rgb(227,11,232)" />
<rect x="464.00" y="204.00" width="32.00" height="18.00" style="fill:rgb(154,44,30)" />
<rect x="464.00" y="227.00" width="32.00" height="18.00" style="fill:rgb(0,134,84)" />
<rect x="464.00" y="250.00" width="32.00" height="18.00" style="fill:rgb(5,18,61)" />
<rect x="464.00" y="273.00" width="32.00" height="18.00" style="fill:rgb(204,86,156)" />
<rect x="464.00" y="296.00" width="32.00" height="18.00" style="fill:rgb(145,46,183)" />
<rect x="464.00" y="319.00" width="32.00" height="18.00" style="fill:rgb(17,92,66)" />
<rect x="464.00" y="342.00" width="32.00" height="18.00" style="fill:rgb(82,75,111)" />
<rect x="464.00" y="365.00" width="32.00" height="18.00" style="fill:rgb(196,147,226)" />
<rect x="501.00" y="20.00" width="32.00" height="18.00" style="fill:rgb(72,83,97)" />
<rect x="501.00" y="43.00" width="32.00" height="18.00" style="fill:rgb(191,38,87)" />
<rect x="501.00" y="66.00" width="32.00" height="18.00" style="fill:rgb(171,143,90)" />
<rect x="501.00" y="89.00" width="32.00" height="18.00" style="fill:rgb(66,1,14)" />
<rect x="501.00" y="112.00" width="32.00" height="18.00" style="fill:rgb(94,145,202)" />
<rect x="501.00" y="135.00" width="32.00" height="18.00" style="fill:rgb(252,251,52)" />
<rect x="501.00" y="158.00" width="32.00" height="18.00" style="fill:rgb(190,39,171)" />
<rect x="501.00" y="181.00" width="32.00" height="18.00" style="fill:rgb(159,221,0)" />
<rect x="501.00" y="204.00" width="32.00" height="18.00" style="fill:rgb(222,203,186)" />
<rect x="501.00" y="227.00" width="32.00" height="18.00" style="fill:rgb(62,213,165)" />
<rect x="501.00" y="250.00" width="32.00" height="18.00" style="fill:rgb(84,36,232)" />
<rect x="501.00" y="273.00" width="32.00" height="18.00" style="fill:rgb(191,197,180)" />
<rect x="501.00" y="296.00" width="32.00" height="18.00" style="fill:rgb(35,52,145)" />
<rect x="501.00" y="319.00" width="32.00" height="18.00" style="fill:rgb(104,62,209)" />
<rect x="501.00" y="342.00" width="32.00" height="18.00" style="fill:rgb(64,234,142)" />
<rect x="501.00" y="365.00" width="32.00" height="18.00" style="fill:rgb(56,17,138)" />
<rect x="538.00" y="20.00" width="32.00" height="18.00" style="fill:rgb(251,76,175)" />
<rect x="538.00" y="43.00" width="32.00" height="18.00" style="fill:rgb(14,29,42)" />
<rect x="538.00" y="66.00" width="32.00" height="18.00" style="fill:rgb(54,183,196)" />
<rect x="538.00" y="89.00" width="32.00" height="18.00" style="fill:rgb(120,109,246)" />
<rect x="538.00" y="112.00" width="32.00" height="18.00" style="fill:rgb(237,147,52)" />
<rect x="538.00" y="135.00" width="32.00" height="18.00" style="fill:rgb(177,33,127)" />
<rect x="538.00" y="158.00" width="32.00" height="18.00" style="fill:rgb(225,123,70)" />
<rect x="538.00" y="181.00" width="32.00" height="18.00" style="fill:rgb(128,239,76)" />
<rect x="538.00" y="204.00" width="32.00" height="18.00" style="fill:rgb(108,154,243)" />
<rect x="538.00" y="227.00" width="32.00" height="18.00" style="fill:rgb(241,245,210)" />
<rect x="538.00" y="250.00" width="32.00" height="18.00" style="fill:rgb(143,243,190)" />
<rect x="538.00" y="273.00" width="32.00" height="18.00" style="fill:rgb(12,62,182)" />
<rect x="538.00" y="296.00" width="32.00" height="18.00" style="fill:rgb(44,184,159)" />
<rect x="538.00" y="319.00" width="32.00" height="18.00" style="fill:rgb(47,149,14)" />
<rect x="538.00" y="342.00" width="32.00" height="18.00" style="fill:rgb(204,13,146)" />
<rect x="538.00" y="365.00" width="32.00" height="18.00" style="fill:rgb(61,162,31)" />
<rect x="575.00" y="20.00" width="32.00" height="18.00" style="fill:rgb(120,22,214)" />
<rect x="575.00" y="43.00" width="32.00" height="18.00" style="fill:rgb(194,209,130)" />
<rect x="575.00" y="66.00" width="32.00" height="18.00" style="fill:rgb(217,135,165)" />
<rect x="575.00" y="89.00" width="32.00" height="18.00" style="fill:rgb(214,64,182)" />
<rect x="575.00" y="112.00" width="32.00" height="18.00" style="fill:rgb(229,200,166)" />
<rect x="575.00" y="135.00" width="32.00" height="18.00" style="fill:rgb(191,233,116)" />
<rect x="575.00" y="158.00" width="32.00" height="18.00" style="fill:rgb(228,175,187)" />
<rect x="575.00" y="181.00" width="32.00" height="18.00" style="fill:rgb(199,78,144)" />
<rect x="575.00" y="204.00" width="32.00" height="18.00" style="fill:rgb(105,212,85)" />
<rect x="575.00" y="227.00" width="32.00" height="18.00" style="fill:rgb(121,253,134)" />
<rect x="575.00" y="250.00" width="32.00" height="18.00" style="fill:rgb(151,46,162)" />
<rect x="575.00" y="273.00" width="32.00" height="18.00" style="fill:rgb(222,82,204)" />
<rect x="575.00" y="296.00" width="32.00" height="18.00" style="fill:rgb(9,174,194)" />
<rect x="575.00" y="319.00" width="32.00" height="18.00" style="fill:rgb(105,111,148)" />
<rect x="575.00" y="342.00" width="32.00" height="18.00" style="fill:rgb(163,47,81)" />
<rect x="575.00" y="365.00" width="32.00" height="18.00" style="fill:rgb(146,52,47)" />
<rect x="612.00" y="20.00" width="32.00" height="18.00" style="fill:rgb(79,212,59)" />
<rect x="612.00" y="43.00" width="32.00" height="18.00" style="fill:rgb(118,182,229)" />
<rect x="612.00" y="66.00" width="32.00" height="18.00" style="fill:rgb(175,114,1)" />
<rect x="612.00" y="89.00" width="32.00" height="18.00" style="fill:rgb(239,117,96)" />
<rect x="612.00" y="112.00" width="32.00" height="18.00" style="fill:rgb(189,26,85)" />
<rect x="612.00" y="135.00" width="32.00" height="18.00" style="fill:rgb(101,63,138)" />
<rect x="612.00" y="158.00" width="32.00" height="18.00" style="fill:rgb(239,172,254)" />
<rect x="612.00" y="181.00" width="32.00" height="18.00" style="fill:rgb(250,23,126)" />
<rect x="612.00" y="204.00" width="32.00" height="18.00" style="fill:rgb(244,32,153)" />
<rect x="612.00" y="227.00" width="32.00" height="18.00" style="fill:rgb(134,192,21)" />
<rect x="612.00" y="250.00" width="32.00" height="18.00" style="fill:rgb(202,89,3)" />
<rect x="612.00" y="273.00" width="32.00" height="18.00" style="fill:rgb(158,197,221)" />
<rect x="612.00" y="296.00" width="32.00" height="18.00" style="fill:rgb(236,84,73)" />
<rect x="612.00" y="319.00" width="32.00" height="18.00" style="fill:rgb(33,232,25)" />
<rect x="612.00" y="342.00" width="32.00" height="18.00" style="fill:rgb(19,210,34)" />
<rect x="612.00" y="365.00" width="32.00" height="18.00" style="fill:rgb(185,213,194)" />
</svg>
