<?xml version="1.0"?>
<!-- Generated by SVGo (float) -->
<svg width="512.00" height="512.00"
     onload="initializeDraggableElements();"
     xmlns:drag="http://www.codedread.com/dragsvg"
     xmlns="http://www.w3.org/2000/svg"
     xmlns:xlink="http://www.w3.org/1999/xlink">
<title>HTML5 Logo</title>
<rect x="0.00" y="0.00" width="512.00" height="512.00" />
<script type="application/javascript" xlink:href="http://www.codedread.com/dragsvg.js"/>
<polygon points="71.00,460.00 30.00,0.00 481.00,0.00 440.00,460.00 255.00,512.00" drag:enable="true" style="fill:rgb(227,79,38)" />
<polygon points="256.00,472.00 405.00,431.00 440.00,37.00 256.00,37.00" drag:enable="true" style="fill-opacity:0.30; fill:rgb(255,255,255)" />
<polygon points="181.00,208.00 176.00,150.00 392.00,150.00 393.00,138.00 396.00,109.00 397.00,94.00 114.00,94.00 115.00,109.00 129.00,265.00 325.00,265.00 318.00,338.00 256.00,355.00 192.00,338.00 188.00,293.00 132.00,293.00 139.00,382.00 256.00,414.00 371.00,382.00 372.00,372.00 385.00,223.00 387.00,208.00 371.00,208.00" drag:enable="true" style="fill:rgb(219,219,219)" />
</svg>
