<?xml version="1.0"?>
<!-- Generated by SVGo (float) -->
<svg width="800.00" height="600.00"
     xmlns="http://www.w3.org/2000/svg"
     xmlns:xlink="http://www.w3.org/1999/xlink">
<rect x="0.00" y="0.00" width="800.00" height="600.00" />
<g style="fill:none; stroke:gray">
<path d="M400.00,600.00 Q200.00,0.00 0.00,0.00" id="lc00" />
<path d="M800.00,0.00 Q600.00,0.00 400.00,600.00" id="rc00" />
<circle cx="0.00" cy="0.00" r="10.00" style="fill:red;stroke:none" id="ldot00" />
<circle cx="0.00" cy="0.00" r="10.00" style="fill:blue;stroke:none" id="rdot00" />
<path d="M400.00,600.00 Q200.00,100.00 0.00,100.00" id="lc01" />
<path d="M800.00,100.00 Q600.00,100.00 400.00,600.00" id="rc01" />
<circle cx="0.00" cy="0.00" r="10.00" style="fill:red;stroke:none" id="ldot01" />
<circle cx="0.00" cy="0.00" r="10.00" style="fill:blue;stroke:none" id="rdot01" />
<path d="M400.00,600.00 Q200.00,200.00 0.00,200.00" id="lc02" />
<path d="M800.00,200.00 Q600.00,200.00 400.00,600.00" id="rc02" />
<circle cx="0.00" cy="0.00" r="10.00" style="fill:red;stroke:none" id="ldot02" />
<circle cx="0.00" cy="0.00" r="10.00" style="fill:blue;stroke:none" id="rdot02" />
<path d="M400.00,600.00 Q200.00,300.00 0.00,300.00" id="lc03" />
<path d="M800.00,300.00 Q600.00,300.00 400.00,600.00" id="rc03" />
<circle cx="0.00" cy="0.00" r="10.00" style="fill:red;stroke:none" id="ldot03" />
<circle cx="0.00" cy="0.00" r="10.00" style="fill:blue;stroke:none" id="rdot03" />
<path d="M400.00,600.00 Q200.00,400.00 0.00,400.00" id="lc04" />
<path d="M800.00,400.00 Q600.00,400.00 400.00,600.00" id="rc04" />
<circle cx="0.00" cy="0.00" r="10.00" style="fill:red;stroke:none" id="ldot04" />
<circle cx="0.00" cy="0.00" r="10.00" style="fill:blue;stroke:none" id="rdot04" />
<path d="M400.00,600.00 Q200.00,500.00 0.00,500.00" id="lc05" />
<path d="M800.00,500.00 Q600.00,500.00 400.00,600.00" id="rc05" />
<circle cx="0.00" cy="0.00" r="10.00" style="fill:red;stroke:none" id="ldot05" />
<circle cx="0.00" cy="0.00" r="10.00" style="fill:blue;stroke:none" id="rdot05" />
<animateMotion xlink:href="#ldot00" dur="5s" repeatCount="indefinite" ><mpath xlink:href="#lc00"/></animateMotion>
<animateMotion xlink:href="#rdot00" dur="5s" repeatCount="indefinite" ><mpath xlink:href="#rc00"/></animateMotion>
<animateMotion xlink:href="#ldot01" dur="4.8s" repeatCount="indefinite" ><mpath xlink:href="#lc01"/></animateMotion>
<animateMotion xlink:href="#rdot01" dur="4.8s" repeatCount="indefinite" ><mpath xlink:href="#rc01"/></animateMotion>
<animateMotion xlink:href="#ldot02" dur="4.6s" repeatCount="indefinite" ><mpath xlink:href="#lc02"/></animateMotion>
<animateMotion xlink:href="#rdot02" dur="4.6s" repeatCount="indefinite" ><mpath xlink:href="#rc02"/></animateMotion>
<animateMotion xlink:href="#ldot03" dur="4.3999999999999995s" repeatCount="indefinite" ><mpath xlink:href="#lc03"/></animateMotion>
<animateMotion xlink:href="#rdot03" dur="4.3999999999999995s" repeatCount="indefinite" ><mpath xlink:href="#rc03"/></animateMotion>
<animateMotion xlink:href="#ldot04" dur="4.199999999999999s" repeatCount="indefinite" ><mpath xlink:href="#lc04"/></animateMotion>
<animateMotion xlink:href="#rdot04" dur="4.199999999999999s" repeatCount="indefinite" ><mpath xlink:href="#rc04"/></animateMotion>
<animateMotion xlink:href="#ldot05" dur="3.999999999999999s" repeatCount="indefinite" ><mpath xlink:href="#lc05"/></animateMotion>
<animateMotion xlink:href="#rdot05" dur="3.999999999999999s" repeatCount="indefinite" ><mpath xlink:href="#rc05"/></animateMotion>
</g>
</svg>
