<?xml version="1.0"?>
<!-- Generated by SVGo (float) -->
<svg width="1600.00" height="900.00"
     xmlns="http://www.w3.org/2000/svg"
     xmlns:xlink="http://www.w3.org/1999/xlink">
<title>SVG Color Table</title>
<rect x="0.00" y="0.00" width="1600.00" height="900.00" style="fill:white" />
<g style="font-family:Calibri,sans-serif;font-size:12pt;fill:black">
<circle cx="32.00" cy="32.00" r="8.00" style="fill:#F0F8FF" />
<text x="54.00" y="36.00" style="stroke:none" >aliceblue</text>
<text x="288.00" y="36.00" style="text-anchor:end;fill:gray" >240,248,255</text>
<circle cx="32.00" cy="59.00" r="8.00" style="fill:#FAEBD7" />
<text x="54.00" y="63.00" style="stroke:none" >antiquewhite</text>
<text x="288.00" y="63.00" style="text-anchor:end;fill:gray" >250,235,215</text>
<circle cx="32.00" cy="86.00" r="8.00" style="fill:#00FFFF" />
<text x="54.00" y="90.00" style="stroke:none" >aqua</text>
<text x="288.00" y="90.00" style="text-anchor:end;fill:gray" >0,255,25</text>
<circle cx="32.00" cy="113.00" r="8.00" style="fill:#7FFFD4" />
<text x="54.00" y="117.00" style="stroke:none" >aquamarine</text>
<text x="288.00" y="117.00" style="text-anchor:end;fill:gray" >127,255,21</text>
<circle cx="32.00" cy="140.00" r="8.00" style="fill:#F0FFFF" />
<text x="54.00" y="144.00" style="stroke:none" >azure</text>
<text x="288.00" y="144.00" style="text-anchor:end;fill:gray" >240,255,255</text>
<circle cx="32.00" cy="167.00" r="8.00" style="fill:#F5F5DC" />
<text x="54.00" y="171.00" style="stroke:none" >beige</text>
<text x="288.00" y="171.00" style="text-anchor:end;fill:gray" >245,245,220</text>
<circle cx="32.00" cy="194.00" r="8.00" style="fill:#FFE4C4" />
<text x="54.00" y="198.00" style="stroke:none" >bisque</text>
<text x="288.00" y="198.00" style="text-anchor:end;fill:gray" >255,228,196</text>
<circle cx="32.00" cy="221.00" r="8.00" style="fill:#000000" />
<text x="54.00" y="225.00" style="stroke:none" >black</text>
<text x="288.00" y="225.00" style="text-anchor:end;fill:gray" >0,0,0</text>
<circle cx="32.00" cy="248.00" r="8.00" style="fill:#FFEBCD" />
<text x="54.00" y="252.00" style="stroke:none" >blanchedalmond</text>
<text x="288.00" y="252.00" style="text-anchor:end;fill:gray" >255,235,205</text>
<circle cx="32.00" cy="275.00" r="8.00" style="fill:#0000FF" />
<text x="54.00" y="279.00" style="stroke:none" >blue</text>
<text x="288.00" y="279.00" style="text-anchor:end;fill:gray" >0,0,255</text>
<circle cx="32.00" cy="302.00" r="8.00" style="fill:#8A2BE2" />
<text x="54.00" y="306.00" style="stroke:none" >blueviolet</text>
<text x="288.00" y="306.00" style="text-anchor:end;fill:gray" >138,43,226</text>
<circle cx="32.00" cy="329.00" r="8.00" style="fill:#A52A2A" />
<text x="54.00" y="333.00" style="stroke:none" >brown</text>
<text x="288.00" y="333.00" style="text-anchor:end;fill:gray" >165,42,42</text>
<circle cx="32.00" cy="356.00" r="8.00" style="fill:#DEB887" />
<text x="54.00" y="360.00" style="stroke:none" >burlywood</text>
<text x="288.00" y="360.00" style="text-anchor:end;fill:gray" >222,184,135</text>
<circle cx="32.00" cy="383.00" r="8.00" style="fill:#5F9EA0" />
<text x="54.00" y="387.00" style="stroke:none" >cadetblue</text>
<text x="288.00" y="387.00" style="text-anchor:end;fill:gray" >95,158,160</text>
<circle cx="32.00" cy="410.00" r="8.00" style="fill:#7FFF00" />
<text x="54.00" y="414.00" style="stroke:none" >chartreuse</text>
<text x="288.00" y="414.00" style="text-anchor:end;fill:gray" >127,255,0</text>
<circle cx="32.00" cy="437.00" r="8.00" style="fill:#D2691E" />
<text x="54.00" y="441.00" style="stroke:none" >chocolate</text>
<text x="288.00" y="441.00" style="text-anchor:end;fill:gray" >210,105,30</text>
<circle cx="32.00" cy="464.00" r="8.00" style="fill:#FF7F50" />
<text x="54.00" y="468.00" style="stroke:none" >coral</text>
<text x="288.00" y="468.00" style="text-anchor:end;fill:gray" >255,127,80</text>
<circle cx="32.00" cy="491.00" r="8.00" style="fill:#6495ED" />
<text x="54.00" y="495.00" style="stroke:none" >cornflowerblue</text>
<text x="288.00" y="495.00" style="text-anchor:end;fill:gray" >100,149,237</text>
<circle cx="32.00" cy="518.00" r="8.00" style="fill:#FFF8DC" />
<text x="54.00" y="522.00" style="stroke:none" >cornsilk</text>
<text x="288.00" y="522.00" style="text-anchor:end;fill:gray" >255,248,220</text>
<circle cx="32.00" cy="545.00" r="8.00" style="fill:#DC143C" />
<text x="54.00" y="549.00" style="stroke:none" >crimson</text>
<text x="288.00" y="549.00" style="text-anchor:end;fill:gray" >220,20,60</text>
<circle cx="32.00" cy="572.00" r="8.00" style="fill:#00FFFF" />
<text x="54.00" y="576.00" style="stroke:none" >cyan</text>
<text x="288.00" y="576.00" style="text-anchor:end;fill:gray" >0,255,255</text>
<circle cx="32.00" cy="599.00" r="8.00" style="fill:#00008B" />
<text x="54.00" y="603.00" style="stroke:none" >darkblue</text>
<text x="288.00" y="603.00" style="text-anchor:end;fill:gray" >0,0,139</text>
<circle cx="32.00" cy="626.00" r="8.00" style="fill:#008B8B" />
<text x="54.00" y="630.00" style="stroke:none" >darkcyan</text>
<text x="288.00" y="630.00" style="text-anchor:end;fill:gray" >0,139,139</text>
<circle cx="32.00" cy="653.00" r="8.00" style="fill:#B8860B" />
<text x="54.00" y="657.00" style="stroke:none" >darkgoldenrod</text>
<text x="288.00" y="657.00" style="text-anchor:end;fill:gray" >184,134,11</text>
<circle cx="32.00" cy="680.00" r="8.00" style="fill:#A9A9A9" />
<text x="54.00" y="684.00" style="stroke:none" >darkgray</text>
<text x="288.00" y="684.00" style="text-anchor:end;fill:gray" >169,169,169</text>
<circle cx="32.00" cy="707.00" r="8.00" style="fill:#006400" />
<text x="54.00" y="711.00" style="stroke:none" >darkgreen</text>
<text x="288.00" y="711.00" style="text-anchor:end;fill:gray" >0,100,0</text>
<circle cx="32.00" cy="734.00" r="8.00" style="fill:#A9A9A9" />
<text x="54.00" y="738.00" style="stroke:none" >darkgrey</text>
<text x="288.00" y="738.00" style="text-anchor:end;fill:gray" >169,169,169</text>
<circle cx="32.00" cy="761.00" r="8.00" style="fill:#BDB76B" />
<text x="54.00" y="765.00" style="stroke:none" >darkkhaki</text>
<text x="288.00" y="765.00" style="text-anchor:end;fill:gray" >189,183,107</text>
<circle cx="32.00" cy="788.00" r="8.00" style="fill:#8B008B" />
<text x="54.00" y="792.00" style="stroke:none" >darkmagenta</text>
<text x="288.00" y="792.00" style="text-anchor:end;fill:gray" >139,0,139</text>
<circle cx="32.00" cy="815.00" r="8.00" style="fill:#556B2F" />
<text x="54.00" y="819.00" style="stroke:none" >darkolivegreen</text>
<text x="288.00" y="819.00" style="text-anchor:end;fill:gray" >85,107,47</text>
<circle cx="32.00" cy="842.00" r="8.00" style="fill:#FF8C00" />
<text x="54.00" y="846.00" style="stroke:none" >darkorange</text>
<text x="288.00" y="846.00" style="text-anchor:end;fill:gray" >255,140,0</text>
<circle cx="32.00" cy="869.00" r="8.00" style="fill:#9932CC" />
<text x="54.00" y="873.00" style="stroke:none" >darkorchid</text>
<text x="288.00" y="873.00" style="text-anchor:end;fill:gray" >153,50,204</text>
<circle cx="352.00" cy="32.00" r="8.00" style="fill:#8B0000" />
<text x="374.00" y="36.00" style="stroke:none" >darkred</text>
<text x="608.00" y="36.00" style="text-anchor:end;fill:gray" >139,0,0</text>
<circle cx="352.00" cy="59.00" r="8.00" style="fill:#E9967A" />
<text x="374.00" y="63.00" style="stroke:none" >darksalmon</text>
<text x="608.00" y="63.00" style="text-anchor:end;fill:gray" >233,150,122</text>
<circle cx="352.00" cy="86.00" r="8.00" style="fill:#8FBC8F" />
<text x="374.00" y="90.00" style="stroke:none" >darkseagreen</text>
<text x="608.00" y="90.00" style="text-anchor:end;fill:gray" >143,188,143</text>
<circle cx="352.00" cy="113.00" r="8.00" style="fill:#483D8B" />
<text x="374.00" y="117.00" style="stroke:none" >darkslateblue</text>
<text x="608.00" y="117.00" style="text-anchor:end;fill:gray" >72,61,139</text>
<circle cx="352.00" cy="140.00" r="8.00" style="fill:#2F4F4F" />
<text x="374.00" y="144.00" style="stroke:none" >darkslategray</text>
<text x="608.00" y="144.00" style="text-anchor:end;fill:gray" >47,79,79</text>
<circle cx="352.00" cy="167.00" r="8.00" style="fill:#2F4F4F" />
<text x="374.00" y="171.00" style="stroke:none" >darkslategrey</text>
<text x="608.00" y="171.00" style="text-anchor:end;fill:gray" >47,79,79</text>
<circle cx="352.00" cy="194.00" r="8.00" style="fill:#00CED1" />
<text x="374.00" y="198.00" style="stroke:none" >darkturquoise</text>
<text x="608.00" y="198.00" style="text-anchor:end;fill:gray" >0,206,209</text>
<circle cx="352.00" cy="221.00" r="8.00" style="fill:#9400D3" />
<text x="374.00" y="225.00" style="stroke:none" >darkviolet</text>
<text x="608.00" y="225.00" style="text-anchor:end;fill:gray" >148,0,211</text>
<circle cx="352.00" cy="248.00" r="8.00" style="fill:#FF1493" />
<text x="374.00" y="252.00" style="stroke:none" >deeppink</text>
<text x="608.00" y="252.00" style="text-anchor:end;fill:gray" >255,20,147</text>
<circle cx="352.00" cy="275.00" r="8.00" style="fill:#00BFFF" />
<text x="374.00" y="279.00" style="stroke:none" >deepskyblue</text>
<text x="608.00" y="279.00" style="text-anchor:end;fill:gray" >0,191,255</text>
<circle cx="352.00" cy="302.00" r="8.00" style="fill:#696969" />
<text x="374.00" y="306.00" style="stroke:none" >dimgray</text>
<text x="608.00" y="306.00" style="text-anchor:end;fill:gray" >105,105,105</text>
<circle cx="352.00" cy="329.00" r="8.00" style="fill:#696969" />
<text x="374.00" y="333.00" style="stroke:none" >dimgrey</text>
<text x="608.00" y="333.00" style="text-anchor:end;fill:gray" >105,105,105</text>
<circle cx="352.00" cy="356.00" r="8.00" style="fill:#1E90FF" />
<text x="374.00" y="360.00" style="stroke:none" >dodgerblue</text>
<text x="608.00" y="360.00" style="text-anchor:end;fill:gray" >30,144,255</text>
<circle cx="352.00" cy="383.00" r="8.00" style="fill:#B22222" />
<text x="374.00" y="387.00" style="stroke:none" >firebrick</text>
<text x="608.00" y="387.00" style="text-anchor:end;fill:gray" >178,34,34</text>
<circle cx="352.00" cy="410.00" r="8.00" style="fill:#FFFAF0" />
<text x="374.00" y="414.00" style="stroke:none" >floralwhite</text>
<text x="608.00" y="414.00" style="text-anchor:end;fill:gray" >255,250,240</text>
<circle cx="352.00" cy="437.00" r="8.00" style="fill:#228B22" />
<text x="374.00" y="441.00" style="stroke:none" >forestgreen</text>
<text x="608.00" y="441.00" style="text-anchor:end;fill:gray" >34,139,34</text>
<circle cx="352.00" cy="464.00" r="8.00" style="fill:#FF00FF" />
<text x="374.00" y="468.00" style="stroke:none" >fuchsia</text>
<text x="608.00" y="468.00" style="text-anchor:end;fill:gray" >255,0,255</text>
<circle cx="352.00" cy="491.00" r="8.00" style="fill:#DCDCDC" />
<text x="374.00" y="495.00" style="stroke:none" >gainsboro</text>
<text x="608.00" y="495.00" style="text-anchor:end;fill:gray" >220,220,220</text>
<circle cx="352.00" cy="518.00" r="8.00" style="fill:#F8F8FF" />
<text x="374.00" y="522.00" style="stroke:none" >ghostwhite</text>
<text x="608.00" y="522.00" style="text-anchor:end;fill:gray" >248,248,255</text>
<circle cx="352.00" cy="545.00" r="8.00" style="fill:#FFD700" />
<text x="374.00" y="549.00" style="stroke:none" >gold</text>
<text x="608.00" y="549.00" style="text-anchor:end;fill:gray" >255,215,0</text>
<circle cx="352.00" cy="572.00" r="8.00" style="fill:#DAA520" />
<text x="374.00" y="576.00" style="stroke:none" >goldenrod</text>
<text x="608.00" y="576.00" style="text-anchor:end;fill:gray" >218,165,32</text>
<circle cx="352.00" cy="599.00" r="8.00" style="fill:#808080" />
<text x="374.00" y="603.00" style="stroke:none" >gray</text>
<text x="608.00" y="603.00" style="text-anchor:end;fill:gray" >128,128,128</text>
<circle cx="352.00" cy="626.00" r="8.00" style="fill:#008000" />
<text x="374.00" y="630.00" style="stroke:none" >green</text>
<text x="608.00" y="630.00" style="text-anchor:end;fill:gray" >0,128,0</text>
<circle cx="352.00" cy="653.00" r="8.00" style="fill:#ADFF2F" />
<text x="374.00" y="657.00" style="stroke:none" >greenyellow</text>
<text x="608.00" y="657.00" style="text-anchor:end;fill:gray" >173,255,47</text>
<circle cx="352.00" cy="680.00" r="8.00" style="fill:#808080" />
<text x="374.00" y="684.00" style="stroke:none" >grey</text>
<text x="608.00" y="684.00" style="text-anchor:end;fill:gray" >128,128,128</text>
<circle cx="352.00" cy="707.00" r="8.00" style="fill:#F0FFF0" />
<text x="374.00" y="711.00" style="stroke:none" >honeydew</text>
<text x="608.00" y="711.00" style="text-anchor:end;fill:gray" >240,255,240</text>
<circle cx="352.00" cy="734.00" r="8.00" style="fill:#FF69B4" />
<text x="374.00" y="738.00" style="stroke:none" >hotpink</text>
<text x="608.00" y="738.00" style="text-anchor:end;fill:gray" >255,105,180</text>
<circle cx="352.00" cy="761.00" r="8.00" style="fill:#CD5C5C" />
<text x="374.00" y="765.00" style="stroke:none" >indianred</text>
<text x="608.00" y="765.00" style="text-anchor:end;fill:gray" >205,92,92</text>
<circle cx="352.00" cy="788.00" r="8.00" style="fill:#4B0082" />
<text x="374.00" y="792.00" style="stroke:none" >indigo</text>
<text x="608.00" y="792.00" style="text-anchor:end;fill:gray" >75,0,130</text>
<circle cx="352.00" cy="815.00" r="8.00" style="fill:#FFFFF0" />
<text x="374.00" y="819.00" style="stroke:none" >ivory</text>
<text x="608.00" y="819.00" style="text-anchor:end;fill:gray" >255,255,240</text>
<circle cx="352.00" cy="842.00" r="8.00" style="fill:#F0E68C" />
<text x="374.00" y="846.00" style="stroke:none" >khaki</text>
<text x="608.00" y="846.00" style="text-anchor:end;fill:gray" >240,230,140</text>
<circle cx="352.00" cy="869.00" r="8.00" style="fill:#E6E6FA" />
<text x="374.00" y="873.00" style="stroke:none" >lavender</text>
<text x="608.00" y="873.00" style="text-anchor:end;fill:gray" >230,230,250</text>
<circle cx="672.00" cy="32.00" r="8.00" style="fill:#FFF0F5" />
<text x="694.00" y="36.00" style="stroke:none" >lavenderblush</text>
<text x="928.00" y="36.00" style="text-anchor:end;fill:gray" >255,240,245</text>
<circle cx="672.00" cy="59.00" r="8.00" style="fill:#7CFC00" />
<text x="694.00" y="63.00" style="stroke:none" >lawngreen</text>
<text x="928.00" y="63.00" style="text-anchor:end;fill:gray" >124,252,0</text>
<circle cx="672.00" cy="86.00" r="8.00" style="fill:#FFFACD" />
<text x="694.00" y="90.00" style="stroke:none" >lemonchiffon</text>
<text x="928.00" y="90.00" style="text-anchor:end;fill:gray" >255,250,205</text>
<circle cx="672.00" cy="113.00" r="8.00" style="fill:#ADD8E6" />
<text x="694.00" y="117.00" style="stroke:none" >lightblue</text>
<text x="928.00" y="117.00" style="text-anchor:end;fill:gray" >173,216,230</text>
<circle cx="672.00" cy="140.00" r="8.00" style="fill:#F08080" />
<text x="694.00" y="144.00" style="stroke:none" >lightcoral</text>
<text x="928.00" y="144.00" style="text-anchor:end;fill:gray" >240,128,128</text>
<circle cx="672.00" cy="167.00" r="8.00" style="fill:#E0FFFF" />
<text x="694.00" y="171.00" style="stroke:none" >lightcyan</text>
<text x="928.00" y="171.00" style="text-anchor:end;fill:gray" >224,255,255</text>
<circle cx="672.00" cy="194.00" r="8.00" style="fill:#FAFAD2" />
<text x="694.00" y="198.00" style="stroke:none" >lightgoldenrodyellow</text>
<text x="928.00" y="198.00" style="text-anchor:end;fill:gray" >250,250,210</text>
<circle cx="672.00" cy="221.00" r="8.00" style="fill:#D3D3D3" />
<text x="694.00" y="225.00" style="stroke:none" >lightgray</text>
<text x="928.00" y="225.00" style="text-anchor:end;fill:gray" >211,211,211</text>
<circle cx="672.00" cy="248.00" r="8.00" style="fill:#90EE90" />
<text x="694.00" y="252.00" style="stroke:none" >lightgreen</text>
<text x="928.00" y="252.00" style="text-anchor:end;fill:gray" >144,238,144</text>
<circle cx="672.00" cy="275.00" r="8.00" style="fill:#D3D3D3" />
<text x="694.00" y="279.00" style="stroke:none" >lightgrey</text>
<text x="928.00" y="279.00" style="text-anchor:end;fill:gray" >211,211,211</text>
<circle cx="672.00" cy="302.00" r="8.00" style="fill:#FFB6C1" />
<text x="694.00" y="306.00" style="stroke:none" >lightpink</text>
<text x="928.00" y="306.00" style="text-anchor:end;fill:gray" >255,182,193</text>
<circle cx="672.00" cy="329.00" r="8.00" style="fill:#FFA07A" />
<text x="694.00" y="333.00" style="stroke:none" >lightsalmon</text>
<text x="928.00" y="333.00" style="text-anchor:end;fill:gray" >255,160,122</text>
<circle cx="672.00" cy="356.00" r="8.00" style="fill:#20B2AA" />
<text x="694.00" y="360.00" style="stroke:none" >lightseagreen</text>
<text x="928.00" y="360.00" style="text-anchor:end;fill:gray" >32,178,170</text>
<circle cx="672.00" cy="383.00" r="8.00" style="fill:#87CEFA" />
<text x="694.00" y="387.00" style="stroke:none" >lightskyblue</text>
<text x="928.00" y="387.00" style="text-anchor:end;fill:gray" >135,206,250</text>
<circle cx="672.00" cy="410.00" r="8.00" style="fill:#778899" />
<text x="694.00" y="414.00" style="stroke:none" >lightslategray</text>
<text x="928.00" y="414.00" style="text-anchor:end;fill:gray" >119,136,153</text>
<circle cx="672.00" cy="437.00" r="8.00" style="fill:#778899" />
<text x="694.00" y="441.00" style="stroke:none" >lightslategrey</text>
<text x="928.00" y="441.00" style="text-anchor:end;fill:gray" >119,136,153</text>
<circle cx="672.00" cy="464.00" r="8.00" style="fill:#B0C4DE" />
<text x="694.00" y="468.00" style="stroke:none" >lightsteelblue</text>
<text x="928.00" y="468.00" style="text-anchor:end;fill:gray" >176,196,222</text>
<circle cx="672.00" cy="491.00" r="8.00" style="fill:#FFFFE0" />
<text x="694.00" y="495.00" style="stroke:none" >lightyellow</text>
<text x="928.00" y="495.00" style="text-anchor:end;fill:gray" >255,255,224</text>
<circle cx="672.00" cy="518.00" r="8.00" style="fill:#00FF00" />
<text x="694.00" y="522.00" style="stroke:none" >lime</text>
<text x="928.00" y="522.00" style="text-anchor:end;fill:gray" >0,255,0</text>
<circle cx="672.00" cy="545.00" r="8.00" style="fill:#32CD32" />
<text x="694.00" y="549.00" style="stroke:none" >limegreen</text>
<text x="928.00" y="549.00" style="text-anchor:end;fill:gray" >50,205,50</text>
<circle cx="672.00" cy="572.00" r="8.00" style="fill:#FAF0E6" />
<text x="694.00" y="576.00" style="stroke:none" >linen</text>
<text x="928.00" y="576.00" style="text-anchor:end;fill:gray" >250,240,230</text>
<circle cx="672.00" cy="599.00" r="8.00" style="fill:#FF00FF" />
<text x="694.00" y="603.00" style="stroke:none" >magenta</text>
<text x="928.00" y="603.00" style="text-anchor:end;fill:gray" >255,0,255</text>
<circle cx="672.00" cy="626.00" r="8.00" style="fill:#800000" />
<text x="694.00" y="630.00" style="stroke:none" >maroon</text>
<text x="928.00" y="630.00" style="text-anchor:end;fill:gray" >128,0,0</text>
<circle cx="672.00" cy="653.00" r="8.00" style="fill:#66CDAA" />
<text x="694.00" y="657.00" style="stroke:none" >mediumaquamarine</text>
<text x="928.00" y="657.00" style="text-anchor:end;fill:gray" >102,205,170</text>
<circle cx="672.00" cy="680.00" r="8.00" style="fill:#0000CD" />
<text x="694.00" y="684.00" style="stroke:none" >mediumblue</text>
<text x="928.00" y="684.00" style="text-anchor:end;fill:gray" >0,0,205</text>
<circle cx="672.00" cy="707.00" r="8.00" style="fill:#BA55D3" />
<text x="694.00" y="711.00" style="stroke:none" >mediumorchid</text>
<text x="928.00" y="711.00" style="text-anchor:end;fill:gray" >186,85,211</text>
<circle cx="672.00" cy="734.00" r="8.00" style="fill:#9370DB" />
<text x="694.00" y="738.00" style="stroke:none" >mediumpurple</text>
<text x="928.00" y="738.00" style="text-anchor:end;fill:gray" >147,112,219</text>
<circle cx="672.00" cy="761.00" r="8.00" style="fill:#3CB371" />
<text x="694.00" y="765.00" style="stroke:none" >mediumseagreen</text>
<text x="928.00" y="765.00" style="text-anchor:end;fill:gray" >60,179,113</text>
<circle cx="672.00" cy="788.00" r="8.00" style="fill:#7B68EE" />
<text x="694.00" y="792.00" style="stroke:none" >mediumslateblue</text>
<text x="928.00" y="792.00" style="text-anchor:end;fill:gray" >123,104,238</text>
<circle cx="672.00" cy="815.00" r="8.00" style="fill:#00FA9A" />
<text x="694.00" y="819.00" style="stroke:none" >mediumspringgreen</text>
<text x="928.00" y="819.00" style="text-anchor:end;fill:gray" >0,250,154</text>
<circle cx="672.00" cy="842.00" r="8.00" style="fill:#48D1CC" />
<text x="694.00" y="846.00" style="stroke:none" >mediumturquoise</text>
<text x="928.00" y="846.00" style="text-anchor:end;fill:gray" >72,209,204</text>
<circle cx="672.00" cy="869.00" r="8.00" style="fill:#C71585" />
<text x="694.00" y="873.00" style="stroke:none" >mediumvioletred</text>
<text x="928.00" y="873.00" style="text-anchor:end;fill:gray" >199,21,133</text>
<circle cx="992.00" cy="32.00" r="8.00" style="fill:#191970" />
<text x="1014.00" y="36.00" style="stroke:none" >midnightblue</text>
<text x="1248.00" y="36.00" style="text-anchor:end;fill:gray" >25,25,112</text>
<circle cx="992.00" cy="59.00" r="8.00" style="fill:#F5FFFA" />
<text x="1014.00" y="63.00" style="stroke:none" >mintcream</text>
<text x="1248.00" y="63.00" style="text-anchor:end;fill:gray" >245,255,250</text>
<circle cx="992.00" cy="86.00" r="8.00" style="fill:#FFE4E1" />
<text x="1014.00" y="90.00" style="stroke:none" >mistyrose</text>
<text x="1248.00" y="90.00" style="text-anchor:end;fill:gray" >255,228,225</text>
<circle cx="992.00" cy="113.00" r="8.00" style="fill:#FFE4B5" />
<text x="1014.00" y="117.00" style="stroke:none" >moccasin</text>
<text x="1248.00" y="117.00" style="text-anchor:end;fill:gray" >255,228,181</text>
<circle cx="992.00" cy="140.00" r="8.00" style="fill:#FFDEAD" />
<text x="1014.00" y="144.00" style="stroke:none" >navajowhite</text>
<text x="1248.00" y="144.00" style="text-anchor:end;fill:gray" >255,222,173</text>
<circle cx="992.00" cy="167.00" r="8.00" style="fill:#000080" />
<text x="1014.00" y="171.00" style="stroke:none" >navy</text>
<text x="1248.00" y="171.00" style="text-anchor:end;fill:gray" >0,0,128</text>
<circle cx="992.00" cy="194.00" r="8.00" style="fill:#FDF5E6" />
<text x="1014.00" y="198.00" style="stroke:none" >oldlace</text>
<text x="1248.00" y="198.00" style="text-anchor:end;fill:gray" >253,245,230</text>
<circle cx="992.00" cy="221.00" r="8.00" style="fill:#808000" />
<text x="1014.00" y="225.00" style="stroke:none" >olive</text>
<text x="1248.00" y="225.00" style="text-anchor:end;fill:gray" >128,128,0</text>
<circle cx="992.00" cy="248.00" r="8.00" style="fill:#6B8E23" />
<text x="1014.00" y="252.00" style="stroke:none" >olivedrab</text>
<text x="1248.00" y="252.00" style="text-anchor:end;fill:gray" >107,142,35</text>
<circle cx="992.00" cy="275.00" r="8.00" style="fill:#FFA500" />
<text x="1014.00" y="279.00" style="stroke:none" >orange</text>
<text x="1248.00" y="279.00" style="text-anchor:end;fill:gray" >255,165,0</text>
<circle cx="992.00" cy="302.00" r="8.00" style="fill:#FF4500" />
<text x="1014.00" y="306.00" style="stroke:none" >orangered</text>
<text x="1248.00" y="306.00" style="text-anchor:end;fill:gray" >255,69,0</text>
<circle cx="992.00" cy="329.00" r="8.00" style="fill:#DA70D6" />
<text x="1014.00" y="333.00" style="stroke:none" >orchid</text>
<text x="1248.00" y="333.00" style="text-anchor:end;fill:gray" >218,112,214</text>
<circle cx="992.00" cy="356.00" r="8.00" style="fill:#EEE8AA" />
<text x="1014.00" y="360.00" style="stroke:none" >palegoldenrod</text>
<text x="1248.00" y="360.00" style="text-anchor:end;fill:gray" >238,232,170</text>
<circle cx="992.00" cy="383.00" r="8.00" style="fill:#98FB98" />
<text x="1014.00" y="387.00" style="stroke:none" >palegreen</text>
<text x="1248.00" y="387.00" style="text-anchor:end;fill:gray" >152,251,152</text>
<circle cx="992.00" cy="410.00" r="8.00" style="fill:#AFEEEE" />
<text x="1014.00" y="414.00" style="stroke:none" >paleturquoise</text>
<text x="1248.00" y="414.00" style="text-anchor:end;fill:gray" >175,238,238</text>
<circle cx="992.00" cy="437.00" r="8.00" style="fill:#DB7093" />
<text x="1014.00" y="441.00" style="stroke:none" >palevioletred</text>
<text x="1248.00" y="441.00" style="text-anchor:end;fill:gray" >219,112,147</text>
<circle cx="992.00" cy="464.00" r="8.00" style="fill:#FFEFD5" />
<text x="1014.00" y="468.00" style="stroke:none" >papayawhip</text>
<text x="1248.00" y="468.00" style="text-anchor:end;fill:gray" >255,239,213</text>
<circle cx="992.00" cy="491.00" r="8.00" style="fill:#FFDAB9" />
<text x="1014.00" y="495.00" style="stroke:none" >peachpuff</text>
<text x="1248.00" y="495.00" style="text-anchor:end;fill:gray" >255,218,185</text>
<circle cx="992.00" cy="518.00" r="8.00" style="fill:#CD853F" />
<text x="1014.00" y="522.00" style="stroke:none" >peru</text>
<text x="1248.00" y="522.00" style="text-anchor:end;fill:gray" >205,133,63</text>
<circle cx="992.00" cy="545.00" r="8.00" style="fill:#FFC0CB" />
<text x="1014.00" y="549.00" style="stroke:none" >pink</text>
<text x="1248.00" y="549.00" style="text-anchor:end;fill:gray" >255,192,203</text>
<circle cx="992.00" cy="572.00" r="8.00" style="fill:#DDA0DD" />
<text x="1014.00" y="576.00" style="stroke:none" >plum</text>
<text x="1248.00" y="576.00" style="text-anchor:end;fill:gray" >221,160,221</text>
<circle cx="992.00" cy="599.00" r="8.00" style="fill:#B0E0E6" />
<text x="1014.00" y="603.00" style="stroke:none" >powderblue</text>
<text x="1248.00" y="603.00" style="text-anchor:end;fill:gray" >176,224,230</text>
<circle cx="992.00" cy="626.00" r="8.00" style="fill:#800080" />
<text x="1014.00" y="630.00" style="stroke:none" >purple</text>
<text x="1248.00" y="630.00" style="text-anchor:end;fill:gray" >128,0,128</text>
<circle cx="992.00" cy="653.00" r="8.00" style="fill:#FF0000" />
<text x="1014.00" y="657.00" style="stroke:none" >red</text>
<text x="1248.00" y="657.00" style="text-anchor:end;fill:gray" >255,0,0</text>
<circle cx="992.00" cy="680.00" r="8.00" style="fill:#BC8F8F" />
<text x="1014.00" y="684.00" style="stroke:none" >rosybrown</text>
<text x="1248.00" y="684.00" style="text-anchor:end;fill:gray" >188,143,143</text>
<circle cx="992.00" cy="707.00" r="8.00" style="fill:#4169E1" />
<text x="1014.00" y="711.00" style="stroke:none" >royalblue</text>
<text x="1248.00" y="711.00" style="text-anchor:end;fill:gray" >65,105,225</text>
<circle cx="992.00" cy="734.00" r="8.00" style="fill:#8B4513" />
<text x="1014.00" y="738.00" style="stroke:none" >saddlebrown</text>
<text x="1248.00" y="738.00" style="text-anchor:end;fill:gray" >139,69,19</text>
<circle cx="992.00" cy="761.00" r="8.00" style="fill:#FA8072" />
<text x="1014.00" y="765.00" style="stroke:none" >salmon</text>
<text x="1248.00" y="765.00" style="text-anchor:end;fill:gray" >250,128,114</text>
<circle cx="992.00" cy="788.00" r="8.00" style="fill:#F4A460" />
<text x="1014.00" y="792.00" style="stroke:none" >sandybrown</text>
<text x="1248.00" y="792.00" style="text-anchor:end;fill:gray" >244,164,96</text>
<circle cx="992.00" cy="815.00" r="8.00" style="fill:#2E8B57" />
<text x="1014.00" y="819.00" style="stroke:none" >seagreen</text>
<text x="1248.00" y="819.00" style="text-anchor:end;fill:gray" >46,139,87</text>
<circle cx="992.00" cy="842.00" r="8.00" style="fill:#FFF5EE" />
<text x="1014.00" y="846.00" style="stroke:none" >seashell</text>
<text x="1248.00" y="846.00" style="text-anchor:end;fill:gray" >255,245,238</text>
<circle cx="992.00" cy="869.00" r="8.00" style="fill:#A0522D" />
<text x="1014.00" y="873.00" style="stroke:none" >sienna</text>
<text x="1248.00" y="873.00" style="text-anchor:end;fill:gray" >160,82,45</text>
<circle cx="1312.00" cy="32.00" r="8.00" style="fill:#C0C0C0" />
<text x="1334.00" y="36.00" style="stroke:none" >silver</text>
<text x="1568.00" y="36.00" style="text-anchor:end;fill:gray" >192,192,192</text>
<circle cx="1312.00" cy="59.00" r="8.00" style="fill:#87CEEB" />
<text x="1334.00" y="63.00" style="stroke:none" >skyblue</text>
<text x="1568.00" y="63.00" style="text-anchor:end;fill:gray" >135,206,235</text>
<circle cx="1312.00" cy="86.00" r="8.00" style="fill:#6A5ACD" />
<text x="1334.00" y="90.00" style="stroke:none" >slateblue</text>
<text x="1568.00" y="90.00" style="text-anchor:end;fill:gray" >106,90,205</text>
<circle cx="1312.00" cy="113.00" r="8.00" style="fill:#708090" />
<text x="1334.00" y="117.00" style="stroke:none" >slategray</text>
<text x="1568.00" y="117.00" style="text-anchor:end;fill:gray" >112,128,144</text>
<circle cx="1312.00" cy="140.00" r="8.00" style="fill:#708090" />
<text x="1334.00" y="144.00" style="stroke:none" >slategrey</text>
<text x="1568.00" y="144.00" style="text-anchor:end;fill:gray" >112,128,144</text>
<circle cx="1312.00" cy="167.00" r="8.00" style="fill:#FFFAFA" />
<text x="1334.00" y="171.00" style="stroke:none" >snow</text>
<text x="1568.00" y="171.00" style="text-anchor:end;fill:gray" >255,250,250</text>
<circle cx="1312.00" cy="194.00" r="8.00" style="fill:#00FF7F" />
<text x="1334.00" y="198.00" style="stroke:none" >springgreen</text>
<text x="1568.00" y="198.00" style="text-anchor:end;fill:gray" >0,255,127</text>
<circle cx="1312.00" cy="221.00" r="8.00" style="fill:#4682B4" />
<text x="1334.00" y="225.00" style="stroke:none" >steelblue</text>
<text x="1568.00" y="225.00" style="text-anchor:end;fill:gray" >70,130,180</text>
<circle cx="1312.00" cy="248.00" r="8.00" style="fill:#D2B48C" />
<text x="1334.00" y="252.00" style="stroke:none" >tan</text>
<text x="1568.00" y="252.00" style="text-anchor:end;fill:gray" >210,180,140</text>
<circle cx="1312.00" cy="275.00" r="8.00" style="fill:#008080" />
<text x="1334.00" y="279.00" style="stroke:none" >teal</text>
<text x="1568.00" y="279.00" style="text-anchor:end;fill:gray" >0,128,128</text>
<circle cx="1312.00" cy="302.00" r="8.00" style="fill:#D8BFD8" />
<text x="1334.00" y="306.00" style="stroke:none" >thistle</text>
<text x="1568.00" y="306.00" style="text-anchor:end;fill:gray" >216,191,216</text>
<circle cx="1312.00" cy="329.00" r="8.00" style="fill:#FF6347" />
<text x="1334.00" y="333.00" style="stroke:none" >tomato</text>
<text x="1568.00" y="333.00" style="text-anchor:end;fill:gray" >255,99,71</text>
<circle cx="1312.00" cy="356.00" r="8.00" style="fill:#40E0D0" />
<text x="1334.00" y="360.00" style="stroke:none" >turquoise</text>
<text x="1568.00" y="360.00" style="text-anchor:end;fill:gray" >64,224,208</text>
<circle cx="1312.00" cy="383.00" r="8.00" style="fill:#EE82EE" />
<text x="1334.00" y="387.00" style="stroke:none" >violet</text>
<text x="1568.00" y="387.00" style="text-anchor:end;fill:gray" >238,130,238</text>
<circle cx="1312.00" cy="410.00" r="8.00" style="fill:#F5DEB3" />
<text x="1334.00" y="414.00" style="stroke:none" >wheat</text>
<text x="1568.00" y="414.00" style="text-anchor:end;fill:gray" >245,222,179</text>
<circle cx="1312.00" cy="437.00" r="8.00" style="fill:#FFFFFF" />
<text x="1334.00" y="441.00" style="stroke:none" >white</text>
<text x="1568.00" y="441.00" style="text-anchor:end;fill:gray" >255,255,255</text>
<circle cx="1312.00" cy="464.00" r="8.00" style="fill:#F5F5F5" />
<text x="1334.00" y="468.00" style="stroke:none" >whitesmoke</text>
<text x="1568.00" y="468.00" style="text-anchor:end;fill:gray" >245,245,245</text>
<circle cx="1312.00" cy="491.00" r="8.00" style="fill:#FFFF00" />
<text x="1334.00" y="495.00" style="stroke:none" >yellow</text>
<text x="1568.00" y="495.00" style="text-anchor:end;fill:gray" >255,255,0</text>
<circle cx="1312.00" cy="518.00" r="8.00" style="fill:#9ACD32" />
<text x="1334.00" y="522.00" style="stroke:none" >yellowgreen</text>
<text x="1568.00" y="522.00" style="text-anchor:end;fill:gray" >154,205,50</text>
</g>
</svg>
