<?xml version="1.0"?>
<!-- Generated by SVGo (float) -->
<svg width="4500.00" height="3375.00"
     xmlns="http://www.w3.org/2000/svg"
     xmlns:xlink="http://www.w3.org/1999/xlink">
<desc>Object Definitions</desc>
<defs>
<linearGradient id="linear" x1="0%" y1="0%" x2="100%" y2="0%">
<stop offset="0%" stop-color="white" stop-opacity="1.00"/>
<stop offset="25%" stop-color="lightblue" stop-opacity="1.00"/>
<stop offset="75%" stop-color="blue" stop-opacity="1.00"/>
<stop offset="100%" stop-color="rgb(0,0,127)" stop-opacity="1.00"/>
</linearGradient>
<radialGradient id="radial" cx="0%" cy="0%" r="100%" fx="50%" fy="50%">
<stop offset="0%" stop-color="white" stop-opacity="1.00"/>
<stop offset="25%" stop-color="lightblue" stop-opacity="1.00"/>
<stop offset="75%" stop-color="blue" stop-opacity="1.00"/>
<stop offset="100%" stop-color="rgb(0,0,127)" stop-opacity="1.00"/>
</radialGradient>
<path d="M 0,0 A62,62 0 0 1 250,0" id="tpath" />
<g id="square">
<circle cx="0.00" cy="0.00" r="4.00" style="fill:rgb(220,220,220)" />
<text x="0.00" y="-24.00" style="fill:gray; text-anchor:middle" >x, y</text>
<rect x="0.00" y="0.00" width="125.00" height="125.00" style="fill:none; stroke-width:2;stroke:rgb(0,0,127)" />
<text x="62.50" y="-24.00" style="fill:gray; text-anchor:middle" >w</text>
<text x="62.50" y="149.00" style="fill:black; text-anchor:middle;font-size:24px" >Square(x, y, w float64, style ...string)</text>
</g>
<g id="rect">
<circle cx="0.00" cy="0.00" r="4.00" style="fill:rgb(220,220,220)" />
<text x="0.00" y="-24.00" style="fill:gray; text-anchor:middle" >x, y</text>
<rect x="0.00" y="0.00" width="250.00" height="125.00" style="fill:none; stroke-width:2;stroke:rgb(0,0,127)" />
<text x="-24.00" y="62.50" style="fill:gray; text-anchor:middle" >h</text>
<text x="125.00" y="-24.00" style="fill:gray; text-anchor:middle" >w</text>
<text x="125.00" y="149.00" style="fill:black; text-anchor:middle;font-size:24px" >Rect(x, y, w, h float64, style ...string)</text>
</g>
<g id="crect">
<circle cx="125.00" cy="62.50" r="4.00" style="fill:rgb(220,220,220)" />
<text x="125.00" y="38.50" style="fill:gray; text-anchor:middle" >x, y</text>
<rect x="0.00" y="0.00" width="250.00" height="125.00" style="fill:none; stroke-width:2;stroke:rgb(0,0,127)" />
<text x="-24.00" y="62.50" style="fill:gray; text-anchor:middle" >h</text>
<text x="125.00" y="-24.00" style="fill:gray; text-anchor:middle" >w</text>
<text x="125.00" y="149.00" style="fill:black; text-anchor:middle;font-size:24px" >CenterRect(x, y, w, h float64, style ...string)</text>
</g>
<g id="roundrect">
<circle cx="0.00" cy="0.00" r="4.00" style="fill:rgb(220,220,220)" />
<text x="0.00" y="-24.00" style="fill:gray; text-anchor:middle" >x, y</text>
<rect x="0.00" y="0.00" width="250.00" height="125.00" rx="25.00" ry="25.00" style="fill:none; stroke-width:2;stroke:rgb(0,0,127)" />
<text x="-24.00" y="62.50" style="fill:gray; text-anchor:middle" >h</text>
<text x="125.00" y="-24.00" style="fill:gray; text-anchor:middle" >w</text>
<line x1="25.00" y1="0.00" x2="25.00" y2="25.00" style="stroke:black; stroke-width:1" />
<line x1="0.00" y1="25.00" x2="25.00" y2="25.00" style="stroke:black; stroke-width:1" />
<text x="49.00" y="12.50" style="fill:gray; text-anchor:middle" >ry</text>
<text x="12.50" y="49.00" style="fill:gray; text-anchor:middle" >rx</text>
<text x="125.00" y="149.00" style="fill:black; text-anchor:middle;font-size:24px" >Roundrect(x, y, w, h, rx, ry float64, style ...string)</text>
</g>
<g id="polygon">
<circle cx="0.00" cy="0.00" r="4.00" style="fill:rgb(220,220,220)" />
<text x="0.00" y="-24.00" style="fill:gray; text-anchor:middle" >x, y</text>
<circle cx="125.00" cy="-31.25" r="4.00" style="fill:rgb(220,220,220)" />
<text x="125.00" y="-55.25" style="fill:gray; text-anchor:middle" >x, y</text>
<circle cx="250.00" cy="0.00" r="4.00" style="fill:rgb(220,220,220)" />
<text x="250.00" y="-24.00" style="fill:gray; text-anchor:middle" >x, y</text>
<circle cx="250.00" cy="93.75" r="4.00" style="fill:rgb(220,220,220)" />
<text x="250.00" y="69.75" style="fill:gray; text-anchor:middle" >x, y</text>
<circle cx="125.00" cy="62.50" r="4.00" style="fill:rgb(220,220,220)" />
<text x="125.00" y="38.50" style="fill:gray; text-anchor:middle" >x, y</text>
<circle cx="0.00" cy="93.75" r="4.00" style="fill:rgb(220,220,220)" />
<text x="0.00" y="69.75" style="fill:gray; text-anchor:middle" >x, y</text>
<polygon points="0.00,0.00 125.00,-31.25 250.00,0.00 250.00,93.75 125.00,62.50 0.00,93.75" style="fill:none; stroke-width:2;stroke:rgb(0,0,127)" />
<text x="125.00" y="149.00" style="fill:black; text-anchor:middle;font-size:24px" >Polygon(x, y []float64, style ...string)</text>
</g>
<g id="circle">
<g transform="translate(125.00,62.50)">
<circle cx="0.00" cy="0.00" r="4.00" style="fill:rgb(220,220,220)" />
<text x="0.00" y="-24.00" style="fill:gray; text-anchor:middle" >x, y</text>
<circle cx="0.00" cy="0.00" r="62.50" style="fill:none; stroke-width:2;stroke:rgb(0,0,127)" />
<line x1="0.00" y1="0.00" x2="62.50" y2="0.00" style="stroke:black; stroke-width:1" />
<text x="31.25" y="24.00" style="fill:gray; text-anchor:middle" >r</text>
<text x="0.00" y="86.50" style="fill:black; text-anchor:middle;font-size:24px" >Circle(x, y, r float64, style ...string)</text>
</g>
</g>
<g id="ellipse">
<g transform="translate(125.00,62.50)">
<circle cx="0.00" cy="0.00" r="4.00" style="fill:rgb(220,220,220)" />
<text x="0.00" y="-24.00" style="fill:gray; text-anchor:middle" >x, y</text>
<ellipse cx="0.00" cy="0.00" rx="125.00" ry="62.50" style="fill:none; stroke-width:2;stroke:rgb(0,0,127)" />
<line x1="0.00" y1="0.00" x2="125.00" y2="0.00" style="stroke:black; stroke-width:1" />
<line x1="0.00" y1="0.00" x2="0.00" y2="62.50" style="stroke:black; stroke-width:1" />
<text x="62.50" y="24.00" style="fill:gray; text-anchor:middle" >rx</text>
<text x="-24.00" y="31.25" style="fill:gray; text-anchor:middle" >ry</text>
<text x="0.00" y="86.50" style="fill:black; text-anchor:middle;font-size:24px" >Ellipse(x, y, rx, ry float64, style ...string)</text>
</g>
</g>
<g id="line">
<circle cx="0.00" cy="0.00" r="4.00" style="fill:rgb(220,220,220)" />
<text x="0.00" y="-24.00" style="fill:gray; text-anchor:middle" >x1, y1</text>
<circle cx="250.00" cy="0.00" r="4.00" style="fill:rgb(220,220,220)" />
<text x="250.00" y="-24.00" style="fill:gray; text-anchor:middle" >x2, y2</text>
<line x1="0.00" y1="0.00" x2="250.00" y2="0.00" style="fill:none; stroke-width:2;stroke:rgb(0,0,127)" />
<text x="125.00" y="149.00" style="fill:black; text-anchor:middle;font-size:24px" >Line(x1, y1, x2, y2 float64, style ...string)</text>
</g>
<g id="polyline">
<circle cx="0.00" cy="0.00" r="4.00" style="fill:rgb(220,220,220)" />
<text x="0.00" y="-24.00" style="fill:gray; text-anchor:middle" >x, y</text>
<circle cx="83.33" cy="-62.50" r="4.00" style="fill:rgb(220,220,220)" />
<text x="83.33" y="-86.50" style="fill:gray; text-anchor:middle" >x, y</text>
<circle cx="187.50" cy="-41.67" r="4.00" style="fill:rgb(220,220,220)" />
<text x="187.50" y="-65.67" style="fill:gray; text-anchor:middle" >x, y</text>
<circle cx="250.00" cy="-125.00" r="4.00" style="fill:rgb(220,220,220)" />
<text x="250.00" y="-149.00" style="fill:gray; text-anchor:middle" >x, y</text>
<polyline points="0.00,0.00 83.33,-62.50 187.50,-41.67 250.00,-125.00" style="fill:none; stroke-width:2;stroke:rgb(0,0,127)" />
<text x="125.00" y="149.00" style="fill:black; text-anchor:middle;font-size:24px" >Polyline(x, y []float64, style ...string)</text>
</g>
<g id="arc">
<circle cx="0.00" cy="0.00" r="4.00" style="fill:rgb(220,220,220)" />
<text x="0.00" y="-24.00" style="fill:gray; text-anchor:middle" >sx, sy</text>
<circle cx="250.00" cy="0.00" r="4.00" style="fill:rgb(220,220,220)" />
<text x="250.00" y="-24.00" style="fill:gray; text-anchor:middle" >ex, ey</text>
<path d="M0.00,0.00 A62.50,62.50 0.00 0 1 250.00,0.00" style="fill:none; stroke-width:2;stroke:rgb(0,0,127)" />
<text x="125.00" y="149.00" style="fill:black; text-anchor:middle;font-size:24px" >Arc(sx, sy, ax, ay, r float64, lflag, sflag bool, ex, ey float64, style ...string)</text>
</g>
<g id="path">
<path d="M36,5l12,41l12-41h33v4l-13,21c30,10,2,69-21,28l7-2c15,27,33,-22,3,-19v-4l12-20h-15l-17,59h-1l-13-42l-12,42h-1l-20-67h9l12,41l8-28l-4-13h9" fill="rgb(0,0,127)" />
<path d="M94,53c15,32,30,14,35,7l-1-7c-16,26-32,3-34,0M122,16c-10-21-34,0-21,30c-5-30 16,-38 23,-21l5-10l-2-9" style="fill-opacity:0.50; fill:rgb(0,0,0)" />
<circle cx="0.00" cy="0.00" r="4.00" style="fill:rgb(220,220,220)" />
<text x="0.00" y="-24.00" style="fill:gray; text-anchor:middle" >x, y</text>
<text x="62.50" y="160.50" style="fill:black; text-anchor:middle;font-size:24px" >Path(s string, style ...string)</text>
</g>
<g id="qbez">
<circle cx="0.00" cy="0.00" r="4.00" style="fill:rgb(220,220,220)" />
<text x="0.00" y="-24.00" style="fill:gray; text-anchor:middle" >sx, sy</text>
<circle cx="41.67" cy="-93.75" r="4.00" style="fill:rgb(220,220,220)" />
<text x="41.67" y="-117.75" style="fill:gray; text-anchor:middle" >cx, cy</text>
<circle cx="250.00" cy="0.00" r="4.00" style="fill:rgb(220,220,220)" />
<text x="250.00" y="-24.00" style="fill:gray; text-anchor:middle" >ex, ey</text>
<path d="M0.00,0.00 Q41.67,-93.75 250.00,0.00" style="fill:none; stroke-width:2;stroke:rgb(0,0,127)" />
<text x="125.00" y="149.00" style="fill:black; text-anchor:middle;font-size:24px" >Qbez(sx, sy, cx, cy, ex, ey float64, style ...string)</text>
</g>
<g id="bezier">
<circle cx="0.00" cy="0.00" r="4.00" style="fill:rgb(220,220,220)" />
<text x="0.00" y="-24.00" style="fill:gray; text-anchor:middle" >sx, sy</text>
<circle cx="125.00" cy="-62.50" r="4.00" style="fill:rgb(220,220,220)" />
<text x="125.00" y="-86.50" style="fill:gray; text-anchor:middle" >cx, cy</text>
<circle cx="125.00" cy="62.50" r="4.00" style="fill:rgb(220,220,220)" />
<text x="125.00" y="38.50" style="fill:gray; text-anchor:middle" >px, py</text>
<circle cx="250.00" cy="0.00" r="4.00" style="fill:rgb(220,220,220)" />
<text x="250.00" y="-24.00" style="fill:gray; text-anchor:middle" >ex, ey</text>
<path d="M0.00,0.00 C125.00,-62.50 125.00,62.50 250.00,0.00" style="fill:none; stroke-width:2;stroke:rgb(0,0,127)" />
<text x="125.00" y="149.00" style="fill:black; text-anchor:middle;font-size:24px" >Bezier(sx, sy, cx, cy, px, py, ex, ey float64, style ...string)</text>
</g>
<g id="image">
<circle cx="0.00" cy="0.00" r="4.00" style="fill:rgb(220,220,220)" />
<text x="0.00" y="-24.00" style="fill:gray; text-anchor:middle" >x, y</text>
<rect x="0.00" y="0.00" width="128.00" height="128.00" style="fill:none; stroke-width:2;stroke:rgb(0,0,127)" />
<text x="-24.00" y="64.00" style="fill:gray; text-anchor:middle" >h</text>
<text x="64.00" y="-24.00" style="fill:gray; text-anchor:middle" >w</text>
<image x="0.00" y="0.00" width="128.00" height="128.00" xlink:href="gophercolor128x128.png" />
<text x="64.00" y="152.00" style="fill:black; text-anchor:middle;font-size:24px" >Image(x, y, w, h, float64 path string, style ...string)</text>
</g>
<g id="lgrad">
<rect x="0.00" y="0.00" width="250.00" height="125.00" style="fill:url(#linear)" />
<circle cx="0.00" cy="0.00" r="4.00" style="fill:rgb(220,220,220)" />
<text x="0.00" y="-24.00" style="fill:gray; text-anchor:middle" >x1%, y1%</text>
<circle cx="250.00" cy="0.00" r="4.00" style="fill:rgb(220,220,220)" />
<text x="250.00" y="-24.00" style="fill:gray; text-anchor:middle" >x2%, y2%</text>
<text x="125.00" y="149.00" style="fill:black; text-anchor:middle;font-size:24px" >LinearGradient(s string, x1, y1, x2, y2 uint8, oc []Offcolor)</text>
</g>
<g id="rgrad">
<rect x="0.00" y="0.00" width="250.00" height="125.00" style="fill:url(#radial)" />
<circle cx="0.00" cy="0.00" r="4.00" style="fill:rgb(220,220,220)" />
<text x="0.00" y="-24.00" style="fill:gray; text-anchor:middle" >cx%, cy%</text>
<circle cx="125.00" cy="62.50" r="4.00" style="fill:rgb(220,220,220)" />
<text x="125.00" y="38.50" style="fill:gray; text-anchor:middle" >fx%, fy%</text>
<text x="125.00" y="149.00" style="fill:black; text-anchor:middle;font-size:24px" >RadialGradient(s string, cx, cy, r, fx, fy uint8, oc []Offcolor)</text>
</g>
<g id="trans">
<circle cx="0.00" cy="0.00" r="4.00" style="fill:rgb(220,220,220)" />
<text x="0.00" y="-24.00" style="fill:gray; text-anchor:middle" >0, 0</text>
<circle cx="166.67" cy="0.00" r="4.00" style="fill:rgb(220,220,220)" />
<text x="166.67" y="-24.00" style="fill:gray; text-anchor:middle" >x, y</text>
<text x="125.00" y="149.00" style="fill:black; text-anchor:middle;font-size:24px" >Translate(x, y float64)</text>
<rect x="0.00" y="0.00" width="83.33" height="125.00" style="fill:none; stroke-width:2;stroke:rgb(0,0,127)" />
<g transform="translate(166.67,0.00)">
<rect x="0.00" y="0.00" width="83.33" height="125.00" style="fill-opacity:0.25;fill:rgb(0,0,127)" />
</g>
</g>
<g id="grid">
<circle cx="0.00" cy="0.00" r="4.00" style="fill:rgb(220,220,220)" />
<text x="0.00" y="-24.00" style="fill:gray; text-anchor:middle" >x, y</text>
<text x="-24.00" y="62.50" style="fill:gray; text-anchor:middle" >h</text>
<text x="125.00" y="-24.00" style="fill:gray; text-anchor:middle" >w</text>
<text x="55.25" y="15.62" style="fill:gray; text-anchor:middle" >n</text>
<g style="stroke:rgb(0,0,127)">
<line x1="0.00" y1="0.00" x2="0.00" y2="125.00" />
<line x1="31.25" y1="0.00" x2="31.25" y2="125.00" />
<line x1="62.50" y1="0.00" x2="62.50" y2="125.00" />
<line x1="93.75" y1="0.00" x2="93.75" y2="125.00" />
<line x1="125.00" y1="0.00" x2="125.00" y2="125.00" />
<line x1="156.25" y1="0.00" x2="156.25" y2="125.00" />
<line x1="187.50" y1="0.00" x2="187.50" y2="125.00" />
<line x1="218.75" y1="0.00" x2="218.75" y2="125.00" />
<line x1="250.00" y1="0.00" x2="250.00" y2="125.00" />
<line x1="0.00" y1="0.00" x2="250.00" y2="0.00" />
<line x1="0.00" y1="31.25" x2="250.00" y2="31.25" />
<line x1="0.00" y1="62.50" x2="250.00" y2="62.50" />
<line x1="0.00" y1="93.75" x2="250.00" y2="93.75" />
<line x1="0.00" y1="125.00" x2="250.00" y2="125.00" />
</g>
<text x="125.00" y="149.00" style="fill:black; text-anchor:middle;font-size:24px" >Grid(x, y, w, h, n float64, style ...string)</text>
</g>
<g id="text">
<circle cx="0.00" cy="62.50" r="4.00" style="fill:rgb(220,220,220)" />
<text x="0.00" y="86.50" style="fill:gray; text-anchor:middle" >x, y</text>
<text x="0.00" y="62.50" style="text-anchor:start;font-size:32pt" >hello, this is SVG</text>
<text x="125.00" y="149.00" style="fill:black; text-anchor:middle;font-size:24px" >Text(x, y float64, s string, style ...string)</text>
</g>
<g id="scale">
<circle cx="0.00" cy="0.00" r="4.00" style="fill:rgb(220,220,220)" />
<text x="0.00" y="-24.00" style="fill:gray; text-anchor:middle" >0, 0</text>
<rect x="0.00" y="0.00" width="250.00" height="125.00" style="fill:none; stroke-width:2;stroke:rgb(0,0,127)" />
<g transform="scale(0.5)">
<rect x="0.00" y="0.00" width="250.00" height="125.00" style="fill-opacity:0.25;fill:rgb(0,0,127)" />
</g>
<text x="125.00" y="149.00" style="fill:black; text-anchor:middle;font-size:24px" >Scale(n float64)</text>
</g>
<g id="scalexy">
<circle cx="0.00" cy="0.00" r="4.00" style="fill:rgb(220,220,220)" />
<text x="0.00" y="-24.00" style="fill:gray; text-anchor:middle" >0, 0</text>
<rect x="0.00" y="0.00" width="250.00" height="125.00" style="fill:none; stroke-width:2;stroke:rgb(0,0,127)" />
<g transform="scale(0.5,0.75)">
<rect x="0.00" y="0.00" width="250.00" height="125.00" style="fill-opacity:0.25;fill:rgb(0,0,127)" />
</g>
<text x="125.00" y="149.00" style="fill:black; text-anchor:middle;font-size:24px" >ScaleXY(x, y float64)</text>
</g>
<g id="skewx">
<circle cx="0.00" cy="0.00" r="4.00" style="fill:rgb(220,220,220)" />
<text x="0.00" y="-24.00" style="fill:gray; text-anchor:middle" >0, 0</text>
<rect x="0.00" y="0.00" width="250.00" height="125.00" style="fill:none; stroke-width:2;stroke:rgb(0,0,127)" />
<g transform="skewX(30)">
<rect x="0.00" y="0.00" width="250.00" height="125.00" style="fill-opacity:0.25;fill:rgb(0,0,127)" />
</g>
<text x="125.00" y="149.00" style="fill:black; text-anchor:middle;font-size:24px" >SkewX(a float64)</text>
</g>
<g id="skewy">
<circle cx="0.00" cy="0.00" r="4.00" style="fill:rgb(220,220,220)" />
<text x="0.00" y="-24.00" style="fill:gray; text-anchor:middle" >0, 0</text>
<rect x="0.00" y="0.00" width="250.00" height="125.00" style="fill:none; stroke-width:2;stroke:rgb(0,0,127)" />
<g transform="skewY(10)">
<rect x="0.00" y="0.00" width="250.00" height="125.00" style="fill-opacity:0.25;fill:rgb(0,0,127)" />
</g>
<text x="125.00" y="149.00" style="fill:black; text-anchor:middle;font-size:24px" >SkewY(a float64)</text>
</g>
<g id="skewxy">
<circle cx="0.00" cy="0.00" r="4.00" style="fill:rgb(220,220,220)" />
<text x="0.00" y="-24.00" style="fill:gray; text-anchor:middle" >0, 0</text>
<rect x="0.00" y="0.00" width="250.00" height="125.00" style="fill:none; stroke-width:2;stroke:rgb(0,0,127)" />
<g transform="skewX(10) skewY(10)">
<rect x="0.00" y="0.00" width="250.00" height="125.00" style="fill-opacity:0.25;fill:rgb(0,0,127)" />
</g>
<text x="125.00" y="149.00" style="fill:black; text-anchor:middle;font-size:24px" >SkewXY(x, y float64)</text>
</g>
<g id="rotate">
<circle cx="0.00" cy="0.00" r="4.00" style="fill:rgb(220,220,220)" />
<text x="0.00" y="-24.00" style="fill:gray; text-anchor:middle" >0, 0</text>
<text x="125.00" y="149.00" style="fill:black; text-anchor:middle;font-size:24px" >Rotate(r float64)</text>
<rect x="0.00" y="0.00" width="250.00" height="125.00" style="fill:none; stroke-width:2;stroke:rgb(0,0,127)" />
<path d="M125.00,0.00 Q135.00,31.25 108.25,62.50" style="fill:none;stroke:gray" />
<text x="62.50" y="24.00" style="fill:gray; text-anchor:middle" >r</text>
<g transform="rotate(30)">
<rect x="0.00" y="0.00" width="250.00" height="125.00" style="fill-opacity:0.25;fill:rgb(0,0,127)" />
</g>
</g>
<g id="textpath">
<text fill="rgb(0,0,127)" text-anchor="start" font-size="16pt" ><textPath xlink:href="#tpath">It&#39;s &#34;fine&#34; &amp; &#34;dandy&#34; to draw text along a path</textPath></text>
<text x="125.00" y="149.00" style="fill:black; text-anchor:middle;font-size:24px" >Textpath(s, pathid string, style ...string)</text>
</g>
<g id="meta">
<g style="font-size:24.00px;fill:black;text-anchor:start">
<text x="0.00" y="24.00" >New(w io Writer)</text>
<text x="0.00" y="52.00" >Start(w, h float64, options ...string)/End()</text>
<text x="0.00" y="80.00" >Startview(w, h, minx, miny, vw, vh float64)</text>
<text x="0.00" y="108.00" >Group(s ...string)/Gend()</text>
<text x="0.00" y="136.00" >Gstyle(s string)/Gend()</text>
<text x="0.00" y="164.00" >Gtransform(s string)/Gend()</text>
<text x="0.00" y="192.00" >Gid(id string)/Gend()</text>
<text x="0.00" y="220.00" >ClipPath(s ...string)/ClipEnd()</text>
<text x="0.00" y="248.00" >Def()/DefEnd()</text>
<text x="0.00" y="276.00" >Marker()/MarkerEnd()</text>
<text x="0.00" y="304.00" >Pattern()/PatternEnd()</text>
<text x="0.00" y="332.00" >Desc(s string)</text>
<text x="0.00" y="360.00" >Title(s string)</text>
<text x="0.00" y="388.00" >Script(type, data ...string)</text>
<text x="0.00" y="416.00" >Mask(id string, x,y,w,h float64, style ...string)/MaskEnd()</text>
<text x="0.00" y="444.00" >Link(href string, title string)/LinkEnd()</text>
<text x="0.00" y="472.00" >Use(x float64, y float64, link string, style ...string)</text>
</g>
<g style="font-size:24.00px;fill:rgb(127,127,127);text-anchor:start">
<text x="650.00" y="24.00" >specify destination</text>
<text x="650.00" y="52.00" >begin/end the document</text>
<text x="650.00" y="80.00" >begin/end the document with viewport</text>
<text x="650.00" y="108.00" >begin/end group with attributes</text>
<text x="650.00" y="136.00" >begin/end group style</text>
<text x="650.00" y="164.00" >begin/end group transform</text>
<text x="650.00" y="192.00" >begin/end group id</text>
<text x="650.00" y="220.00" >begin/end clip path</text>
<text x="650.00" y="248.00" >begin/end a defintion block</text>
<text x="650.00" y="276.00" >begin/end markers</text>
<text x="650.00" y="304.00" >begin/end pattern</text>
<text x="650.00" y="332.00" >set the description element</text>
<text x="650.00" y="360.00" >set the title element</text>
<text x="650.00" y="388.00" >define a script</text>
<text x="650.00" y="416.00" >begin/end mask element</text>
<text x="650.00" y="444.00" >begin/end link to href, with a title</text>
<text x="650.00" y="472.00" >use defined objects</text>
</g>
<text x="500.00" y="534.00" style="fill:black; text-anchor:middle;font-size:24px" >Textlines(x, y float64, s []string, size, spacing float64, fill, align string)</text>
</g>
<g id="rgb">
<g style="fill:gray; text-anchor:middle">
<circle cx="62.50" cy="0.00" r="15.62" style="fill:rgb(44,0,0)" />
<circle cx="125.00" cy="0.00" r="15.62" style="fill:rgb(0,77,0)" />
<circle cx="187.50" cy="0.00" r="15.62" style="fill:rgb(0,0,232)" />
<circle cx="250.00" cy="0.00" r="15.62" style="fill:rgb(44,77,232)" />
<text x="62.50" y="62.50" >r</text>
<text x="125.00" y="62.50" >g</text>
<text x="187.50" y="62.50" >b</text>
<text x="218.75" y="7.81" >-&gt;</text>
</g>
<text x="125.00" y="149.00" style="fill:black; text-anchor:middle;font-size:24px" >RGB(r, g, b int)</text>
</g>
<g id="rgba">
<g style="fill:gray; text-anchor:middle">
<circle cx="62.50" cy="0.00" r="15.62" style="fill:rgb(44,0,0)" />
<circle cx="125.00" cy="0.00" r="15.62" style="fill:rgb(0,77,0)" />
<circle cx="187.50" cy="0.00" r="15.62" style="fill:rgb(0,0,232)" />
<circle cx="250.00" cy="0.00" r="15.62" style="fill-opacity:0.33; fill:rgb(44,77,232)" />
<circle cx="260.00" cy="0.00" r="15.62" style="fill-opacity:0.33; fill:rgb(44,77,232)" />
<text x="250.00" y="62.50" >alpha</text>
<text x="62.50" y="62.50" >r</text>
<text x="125.00" y="62.50" >g</text>
<text x="187.50" y="62.50" >b</text>
<text x="218.75" y="7.81" >-&gt;</text>
</g>
<text x="125.00" y="149.00" style="fill:black; text-anchor:middle;font-size:24px" >RGBA(r, g, b int, opacity float64)</text>
</g>
</defs>
<title>SVG Go Library Description</title>
<rect x="0.00" y="0.00" width="4500.00" height="3375.00" style="fill:white;stroke:black;stroke-width:2" />
<g style="font-family:Calibri,sans; text-anchor:middle; font-size:24px">
<a xlink:href="http://github.com/ajstarks/gensvg" xlink:title="SVGo Library">
<text x="2250.00" y="150.00" style="font-size:125px" >SVG Go Library</text>
<text x="2250.00" y="200.00" style="font-size:50px;fill:gray" >github.com/ajstarks/gensvg</text>
</a>
<desc>Object Usage</desc>
<g transform="translate(400.00,400.00)">
<use x="0.00" y="0.00" xlink:href="#rect" />
<use x="700.00" y="0.00" xlink:href="#crect" />
<use x="1400.00" y="0.00" xlink:href="#roundrect" />
<use x="2100.00" y="0.00" xlink:href="#square" />
<use x="2800.00" y="0.00" xlink:href="#line" />
<use x="3500.00" y="0.00" xlink:href="#polyline" />
</g>
<g transform="translate(400.00,1000.00)">
<use x="0.00" y="0.00" xlink:href="#polygon" />
<use x="700.00" y="0.00" xlink:href="#circle" />
<use x="1400.00" y="0.00" xlink:href="#ellipse" />
<use x="2100.00" y="0.00" xlink:href="#arc" />
<use x="2800.00" y="0.00" xlink:href="#qbez" />
<use x="3500.00" y="0.00" xlink:href="#bezier" />
</g>
<g transform="translate(400.00,1600.00)">
<use x="0.00" y="0.00" xlink:href="#trans" />
<use x="700.00" y="0.00" xlink:href="#scale" />
<use x="1400.00" y="0.00" xlink:href="#scalexy" />
<use x="2100.00" y="0.00" xlink:href="#skewx" />
<use x="2800.00" y="0.00" xlink:href="#skewy" />
<use x="3500.00" y="0.00" xlink:href="#skewxy" />
</g>
<g transform="translate(400.00,2200.00)">
<use x="0.00" y="0.00" xlink:href="#rotate" />
<use x="700.00" y="0.00" xlink:href="#text" />
<use x="1400.00" y="0.00" xlink:href="#textpath" />
<use x="2100.00" y="0.00" xlink:href="#path" />
<use x="2800.00" y="0.00" xlink:href="#image" />
<use x="3500.00" y="0.00" xlink:href="#grid" />
</g>
<g transform="translate(400.00,2800.00)">
<use x="0.00" y="0.00" xlink:href="#lgrad" />
<use x="700.00" y="0.00" xlink:href="#rgrad" />
<use x="1400.00" y="0.00" xlink:href="#rgb" />
<use x="2100.00" y="0.00" xlink:href="#rgba" />
<use x="2800.00" y="0.00" xlink:href="#meta" />
</g>
</g>
</svg>
