<?xml version="1.0"?>
<!-- Generated by SVGo (float) -->
<svg width="1000.00" height="600.00"
     xmlns="http://www.w3.org/2000/svg"
     xmlns:xlink="http://www.w3.org/1999/xlink">
<rect x="0.00" y="0.00" width="1000.00" height="600.00" style="fill:white" />
<text x="80.00" y="540.00" style="font-size:14pt; fill:blue; font-family:sans" >sans</text>
<text x="80.00" y="560.00" style="font-size:14pt; fill:red;  font-family:sans-serif" >sans-serif</text>
<g style="font-family:sans;font-size:%!d(float64=32)pt;text-anchor:middle;fill:blue;fill-opacity:0.50">
<text x="100.00" y="100.00" >A</text>
<text x="164.00" y="100.00" >B</text>
<text x="228.00" y="100.00" >C</text>
<text x="292.00" y="100.00" >D</text>
<text x="356.00" y="100.00" >E</text>
<text x="420.00" y="100.00" >F</text>
<text x="484.00" y="100.00" >G</text>
<text x="548.00" y="100.00" >H</text>
<text x="612.00" y="100.00" >I</text>
<text x="676.00" y="100.00" >J</text>
<text x="740.00" y="100.00" >K</text>
<text x="804.00" y="100.00" >L</text>
<text x="868.00" y="100.00" >M</text>
<text x="100.00" y="164.00" >N</text>
<text x="164.00" y="164.00" >O</text>
<text x="228.00" y="164.00" >P</text>
<text x="292.00" y="164.00" >Q</text>
<text x="356.00" y="164.00" >R</text>
<text x="420.00" y="164.00" >S</text>
<text x="484.00" y="164.00" >T</text>
<text x="548.00" y="164.00" >U</text>
<text x="612.00" y="164.00" >V</text>
<text x="676.00" y="164.00" >W</text>
<text x="740.00" y="164.00" >X</text>
<text x="804.00" y="164.00" >Y</text>
<text x="868.00" y="164.00" >Z</text>
<text x="100.00" y="228.00" >a</text>
<text x="164.00" y="228.00" >b</text>
<text x="228.00" y="228.00" >c</text>
<text x="292.00" y="228.00" >d</text>
<text x="356.00" y="228.00" >e</text>
<text x="420.00" y="228.00" >f</text>
<text x="484.00" y="228.00" >g</text>
<text x="548.00" y="228.00" >h</text>
<text x="612.00" y="228.00" >i</text>
<text x="676.00" y="228.00" >j</text>
<text x="740.00" y="228.00" >k</text>
<text x="804.00" y="228.00" >l</text>
<text x="868.00" y="228.00" >m</text>
<text x="100.00" y="292.00" >n</text>
<text x="164.00" y="292.00" >o</text>
<text x="228.00" y="292.00" >p</text>
<text x="292.00" y="292.00" >q</text>
<text x="356.00" y="292.00" >r</text>
<text x="420.00" y="292.00" >s</text>
<text x="484.00" y="292.00" >t</text>
<text x="548.00" y="292.00" >u</text>
<text x="612.00" y="292.00" >v</text>
<text x="676.00" y="292.00" >w</text>
<text x="740.00" y="292.00" >x</text>
<text x="804.00" y="292.00" >y</text>
<text x="868.00" y="292.00" >z</text>
<text x="100.00" y="356.00" >0</text>
<text x="164.00" y="356.00" >1</text>
<text x="228.00" y="356.00" >2</text>
<text x="292.00" y="356.00" >3</text>
<text x="356.00" y="356.00" >4</text>
<text x="420.00" y="356.00" >5</text>
<text x="484.00" y="356.00" >6</text>
<text x="548.00" y="356.00" >7</text>
<text x="612.00" y="356.00" >8</text>
<text x="676.00" y="356.00" >9</text>
<text x="740.00" y="356.00" >(</text>
<text x="804.00" y="356.00" >)</text>
<text x="868.00" y="356.00" >{</text>
<text x="100.00" y="420.00" >}</text>
<text x="164.00" y="420.00" >[</text>
<text x="228.00" y="420.00" >]</text>
<text x="292.00" y="420.00" >,</text>
<text x="356.00" y="420.00" >.</text>
<text x="420.00" y="420.00" >:</text>
<text x="484.00" y="420.00" >;</text>
<text x="548.00" y="420.00" >-</text>
<text x="612.00" y="420.00" >+</text>
<text x="676.00" y="420.00" >*</text>
<text x="740.00" y="420.00" >/</text>
<text x="804.00" y="420.00" >\</text>
<text x="868.00" y="420.00" >&amp;</text>
<text x="100.00" y="484.00" >_</text>
<text x="164.00" y="484.00" >^</text>
<text x="228.00" y="484.00" >%</text>
<text x="292.00" y="484.00" >$</text>
<text x="356.00" y="484.00" >#</text>
<text x="420.00" y="484.00" >@</text>
<text x="484.00" y="484.00" >!</text>
<text x="548.00" y="484.00" >~</text>
<text x="612.00" y="484.00" >`</text>
<text x="676.00" y="484.00" >&#39;</text>
<text x="740.00" y="484.00" >&#34;</text>
<text x="804.00" y="484.00" >&lt;</text>
<text x="868.00" y="484.00" >&gt;</text>
</g>
<g style="font-family:sans-serif;font-size:%!d(float64=32)pt;text-anchor:middle;fill:red;fill-opacity:0.50">
<text x="100.00" y="100.00" >A</text>
<text x="164.00" y="100.00" >B</text>
<text x="228.00" y="100.00" >C</text>
<text x="292.00" y="100.00" >D</text>
<text x="356.00" y="100.00" >E</text>
<text x="420.00" y="100.00" >F</text>
<text x="484.00" y="100.00" >G</text>
<text x="548.00" y="100.00" >H</text>
<text x="612.00" y="100.00" >I</text>
<text x="676.00" y="100.00" >J</text>
<text x="740.00" y="100.00" >K</text>
<text x="804.00" y="100.00" >L</text>
<text x="868.00" y="100.00" >M</text>
<text x="100.00" y="164.00" >N</text>
<text x="164.00" y="164.00" >O</text>
<text x="228.00" y="164.00" >P</text>
<text x="292.00" y="164.00" >Q</text>
<text x="356.00" y="164.00" >R</text>
<text x="420.00" y="164.00" >S</text>
<text x="484.00" y="164.00" >T</text>
<text x="548.00" y="164.00" >U</text>
<text x="612.00" y="164.00" >V</text>
<text x="676.00" y="164.00" >W</text>
<text x="740.00" y="164.00" >X</text>
<text x="804.00" y="164.00" >Y</text>
<text x="868.00" y="164.00" >Z</text>
<text x="100.00" y="228.00" >a</text>
<text x="164.00" y="228.00" >b</text>
<text x="228.00" y="228.00" >c</text>
<text x="292.00" y="228.00" >d</text>
<text x="356.00" y="228.00" >e</text>
<text x="420.00" y="228.00" >f</text>
<text x="484.00" y="228.00" >g</text>
<text x="548.00" y="228.00" >h</text>
<text x="612.00" y="228.00" >i</text>
<text x="676.00" y="228.00" >j</text>
<text x="740.00" y="228.00" >k</text>
<text x="804.00" y="228.00" >l</text>
<text x="868.00" y="228.00" >m</text>
<text x="100.00" y="292.00" >n</text>
<text x="164.00" y="292.00" >o</text>
<text x="228.00" y="292.00" >p</text>
<text x="292.00" y="292.00" >q</text>
<text x="356.00" y="292.00" >r</text>
<text x="420.00" y="292.00" >s</text>
<text x="484.00" y="292.00" >t</text>
<text x="548.00" y="292.00" >u</text>
<text x="612.00" y="292.00" >v</text>
<text x="676.00" y="292.00" >w</text>
<text x="740.00" y="292.00" >x</text>
<text x="804.00" y="292.00" >y</text>
<text x="868.00" y="292.00" >z</text>
<text x="100.00" y="356.00" >0</text>
<text x="164.00" y="356.00" >1</text>
<text x="228.00" y="356.00" >2</text>
<text x="292.00" y="356.00" >3</text>
<text x="356.00" y="356.00" >4</text>
<text x="420.00" y="356.00" >5</text>
<text x="484.00" y="356.00" >6</text>
<text x="548.00" y="356.00" >7</text>
<text x="612.00" y="356.00" >8</text>
<text x="676.00" y="356.00" >9</text>
<text x="740.00" y="356.00" >(</text>
<text x="804.00" y="356.00" >)</text>
<text x="868.00" y="356.00" >{</text>
<text x="100.00" y="420.00" >}</text>
<text x="164.00" y="420.00" >[</text>
<text x="228.00" y="420.00" >]</text>
<text x="292.00" y="420.00" >,</text>
<text x="356.00" y="420.00" >.</text>
<text x="420.00" y="420.00" >:</text>
<text x="484.00" y="420.00" >;</text>
<text x="548.00" y="420.00" >-</text>
<text x="612.00" y="420.00" >+</text>
<text x="676.00" y="420.00" >*</text>
<text x="740.00" y="420.00" >/</text>
<text x="804.00" y="420.00" >\</text>
<text x="868.00" y="420.00" >&amp;</text>
<text x="100.00" y="484.00" >_</text>
<text x="164.00" y="484.00" >^</text>
<text x="228.00" y="484.00" >%</text>
<text x="292.00" y="484.00" >$</text>
<text x="356.00" y="484.00" >#</text>
<text x="420.00" y="484.00" >@</text>
<text x="484.00" y="484.00" >!</text>
<text x="548.00" y="484.00" >~</text>
<text x="612.00" y="484.00" >`</text>
<text x="676.00" y="484.00" >&#39;</text>
<text x="740.00" y="484.00" >&#34;</text>
<text x="804.00" y="484.00" >&lt;</text>
<text x="868.00" y="484.00" >&gt;</text>
</g>
</svg>
